<?xml version="1.0" encoding="UTF-8"?> <svg xmlns="http://www.w3.org/2000/svg" xmlns:xlink="http://www.w3.org/1999/xlink" viewBox="0 0 169.4281 121.64145"><defs><mask id="a" x="10.84975" y="-0.00015" width="147.72701" height="121.641" maskUnits="userSpaceOnUse"><polygon points="10.85 121.641 158.577 121.641 158.577 0 10.85 0 10.85 121.641" style="fill:#fff;fill-rule:evenodd"></polygon></mask><mask id="r" x="10.84975" y="-0.00015" width="147.72701" height="121.6416" maskUnits="userSpaceOnUse"><polygon points="10.85 121.641 158.577 121.641 158.577 0 10.85 0 10.85 121.641" style="fill:#fff;fill-rule:evenodd"></polygon></mask></defs><polygon points="98.974 112 115.74 112 115.74 72.556 98.974 72.556 98.974 112" style="fill:#ff7043;fill-rule:evenodd"></polygon><path d="M114.919,110.68275q-.318-4.665-.401-9.333c-.087-3.111-.081-6.222-.113-9.333-.035-3.111-.039-6.222-.028-9.333-.012-3.111.048-6.222.079-9.333l1.284,1.284-16.766-.446a.8388.8388,0,0,1,0-1.677l16.766-.445a1.25047,1.25047,0,0,1,1.284,1.217v.013l.001.054c.031,3.111.091,6.222.079,9.333q.01648,4.6665-.028,9.333c-.032,3.111-.026,6.222-.114,9.333-.049,3.111-.189,6.223-.4,9.333a.82337.82337,0,0,1-1.643,0" style="fill:#3f3350;fill-rule:evenodd"></path><line x1="98.97424" y1="81.70715" x2="98.97424" y2="110.68315" style="fill:none;stroke:#3f3350;stroke-linecap:round;stroke-linejoin:round;stroke-width:2px"></line><g style="mask:url(#a)"><polygon points="55.103 96.833 88.3 96.833 88.3 77.432 55.103 77.432 55.103 96.833" style="fill:#ff7043;fill-rule:evenodd"></polygon></g><g style="mask:url(#a)"><polygon points="50.889 96.833 88.3 96.833 88.3 73.351 50.889 73.351 50.889 96.833" style="fill:none;stroke:#3f3350;stroke-linecap:round;stroke-linejoin:round;stroke-width:2px"></polygon></g><g style="mask:url(#a)"><path d="M62.95075,86.98356c-.554.793-1.462,1.085-2.028.652a1.65393,1.65393,0,0,1-.022-2.217,1.49986,1.49986,0,0,1,2.029-.653,1.65656,1.65656,0,0,1,.021,2.218" style="fill:#d84315;fill-rule:evenodd"></path></g><g style="mask:url(#a)"><path d="M63.41705,92.588c.035.343-.468.681-1.124.754s-1.216-.145-1.251-.487c-.035-.343.468-.681,1.124-.754.656-.074,1.216.144,1.251.487" style="fill:#d84315;fill-rule:evenodd"></path></g><g style="mask:url(#a)"><path d="M63.13774,79.52155c.802.114,1.313.646,1.142,1.189a1.5875,1.5875,0,0,1-1.762.776c-.802-.115-1.313-.648-1.142-1.191a1.58792,1.58792,0,0,1,1.762-.774" style="fill:#d84315;fill-rule:evenodd"></path></g><g style="mask:url(#a)"><path d="M72.01084,82.28036c.401.057.587.543.416,1.086-.171.542-.635.935-1.036.879-.401-.058-.587-.544-.416-1.086.171-.543.635-.937,1.036-.879" style="fill:#d84315;fill-rule:evenodd"></path></g><g style="mask:url(#a)"><path d="M80.91074,81.10755c.192-.481,1.065-.725,1.95-.544.884.181,1.446.718,1.254,1.199-.192.482-1.065.726-1.95.545-.885-.18-1.446-.718-1.254-1.2" style="fill:#d84315;fill-rule:evenodd"></path></g><g style="mask:url(#a)"><path d="M82.34285,91.56355a1.53419,1.53419,0,0,1-1.62.979,1.00565,1.00565,0,0,1-.619-1.465,1.535,1.535,0,0,1,1.62-.98,1.00659,1.00659,0,0,1,.619,1.466" style="fill:#d84315;fill-rule:evenodd"></path></g><g style="mask:url(#a)"><path d="M72.76034,88.86043c1.024.004,1.612.55,1.313,1.221a2.74313,2.74313,0,0,1-2.398,1.207c-1.025-.004-1.613-.551-1.313-1.222a2.74132,2.74132,0,0,1,2.398-1.206" style="fill:#d84315;fill-rule:evenodd"></path></g><g style="mask:url(#a)"><line x1="41.42055" y1="110.02455" x2="41.42055" y2="24.35355" style="fill:none;stroke:#3f3350;stroke-linecap:round;stroke-linejoin:round;stroke-width:2px"></line></g><g style="mask:url(#a)"><line x1="125.20904" y1="24.35365" x2="125.20904" y2="95.29965" style="fill:none;stroke:#3f3350;stroke-linecap:round;stroke-linejoin:round;stroke-width:2px"></line></g><g style="mask:url(#a)"><path d="M119.35944,101.50305a24.77049,24.77049,0,0,1,2.354-3.453,12.74633,12.74633,0,0,1,3.201-2.847,7.87847,7.87847,0,0,1,4.161-1.163,10.17281,10.17281,0,0,1,4.061.956.40673.40673,0,0,1-.286.76l-.011-.004a9.12335,9.12335,0,0,0-3.704-.462,6.3951,6.3951,0,0,0-3.285,1.32,15.19677,15.19677,0,0,0-4.197,6.05l-.002.006a1.28675,1.28675,0,1,1-2.292-1.163" style="fill:#3f3350;fill-rule:evenodd"></path></g><g style="mask:url(#a)"><path d="M141.49765,100.82625a24.77861,24.77861,0,0,1,2.354-3.454,12.80269,12.80269,0,0,1,3.201-2.847,7.88745,7.88745,0,0,1,4.161-1.163,10.17366,10.17366,0,0,1,4.061.957.40619.40619,0,0,1-.286.759l-.011-.003a9.107,9.107,0,0,0-3.704-.463,6.38773,6.38773,0,0,0-3.285,1.321,15.20332,15.20332,0,0,0-4.197,6.049l-.002.006a1.28654,1.28654,0,0,1-2.354-1.039c.019-.043.04-.084.062-.123" style="fill:#3f3350;fill-rule:evenodd"></path></g><g style="mask:url(#a)"><path d="M130.04794,94.28235a9.22844,9.22844,0,0,1,4.458-1.191,6.32843,6.32843,0,0,1,4.232,1.883,14.09546,14.09546,0,0,1,2.519,3.446,39.9168,39.9168,0,0,1,1.753,3.716.40637.40637,0,0,1-.731.353,38.84415,38.84415,0,0,0-2.085-3.409,12.629,12.629,0,0,0-2.557-2.822,4.384,4.384,0,0,0-3.111-1.038,7.00333,7.00333,0,0,0-3.161,1.268l-.018.012a1.28733,1.28733,0,0,1-1.421-2.147,1.37875,1.37875,0,0,1,.122-.071" style="fill:#3f3350;fill-rule:evenodd"></path></g><g style="mask:url(#a)"><path d="M150.83745,103.675a1.42767,1.42767,0,0,0,1.542-1.293,1.45323,1.45323,0,0,0-.985-1.771,1.42767,1.42767,0,0,0-1.542,1.293,1.45426,1.45426,0,0,0,.985,1.771" style="fill:#ff7043;fill-rule:evenodd"></path></g><g style="mask:url(#a)"><path d="M136.42734,103.43465a1.42827,1.42827,0,0,0,1.543-1.292,1.4527,1.4527,0,0,0-.985-1.771,1.42772,1.42772,0,0,0-1.543,1.292,1.45322,1.45322,0,0,0,.985,1.771" style="fill:#ff7043;fill-rule:evenodd"></path></g><g style="mask:url(#a)"><path d="M127.92734,105.672c-.05.543.812,1.105,1.924,1.258,1.112.151,2.055-.165,2.104-.708.05-.542-.811-1.106-1.924-1.257-1.112-.152-2.054.165-2.104.707" style="fill:#ff7043;fill-rule:evenodd"></path></g><g style="mask:url(#r)"><path d="M23.70375,116.49135a1.23494,1.23494,0,0,1-.417-.034c-.176-.039-.408-.094-.617-.16-.207-.07-.415-.148-.589-.223a1.50171,1.50171,0,0,1-.359-.2c-.012-.372-.105-.438-.643-.603a.626.626,0,0,1-.511-.218,2.494,2.494,0,0,1-.453-.807,6.64959,6.64959,0,0,0-.502-.966,1.1956,1.1956,0,0,0-.55-.374.78638.78638,0,0,1-.634-.362c-.04-.056.055-.477-.089-.698a.57958.57958,0,0,1-.02-.4,1.66425,1.66425,0,0,1,.202-.527c-.04-.074.12-.448-.297-.548a.8926.8926,0,0,0-.356-.308,1.3955,1.3955,0,0,1-.339-.344,5.29161,5.29161,0,0,0-1.103-.794.74265.74265,0,0,0-.051-.097l-.028-.053c-.011-.034-.023-.063-.035-.097-.046-.126-.096-.262-.147-.4-.105-.275-.217-.562-.321-.835a3.09381,3.09381,0,0,1-.283-1.449c-.055-.191-.106-.37-.153-.534a.2705.2705,0,0,1-.014-.067c.004-.045.012-.092.017-.139.011-.09.022-.181.034-.268.023-.177.044-.343.063-.496.081-.619.138-1.07.167-1.297a8.74018,8.74018,0,0,1-.04-2.093c.027-.558.069-1.212.126-1.958q.045-.56548.096-1.18c.009-.102.019-.206.027-.313l.013-.16c.003-.014.001-.026.005-.04l.047-.044.088-.08q.3645-.339.74-.688c2.015-1.867,4.405-4.053,7.053-6.455q.498-.45152,1.006-.911l.127-.116.063-.059c.021-.015.046-.046.06-.041l.188-.029c.127-.02.253-.041.38-.062q.7665-.12,1.557-.246c1.059-.164,2.152-.332,3.268-.505.161.006.323.009.483.012a3.78774,3.78774,0,0,1,.443.023c.237.025.475.056.715.084.482.058.966.12,1.454.18l.364.049.183.023a.76033.76033,0,0,1,.127.031l.457.116c.303.083.603.164.9.245a5.42336,5.42336,0,0,1,.73.252c.217.082.427.167.627.252l.15.063.127.064c.081.044.162.087.243.13.156.087.305.168.445.25a3.31245,3.31245,0,0,1,.603.372c.12.084.251.167.382.246a2.57207,2.57207,0,0,0,.4.225c.538.229,1.011.506.79.66-.221.167-.023.264.268.138a1.61887,1.61887,0,0,1,1.19-.016c.433.111.769.367.571.526-.164.188.113.374.418.293.268-.113.584-.016,1.078.267a6.34392,6.34392,0,0,1,.888.621c.088.068.178.14.274.211.095.078.194.165.295.256.204.182.435.368.67.592.183.219.398.455.624.694.224.244.446.509.668.757a7.949,7.949,0,0,1,.578.725,5.51062,5.51062,0,0,1,.399.586c.084.164.212.368.362.603.076.119.158.246.242.379.078.132.159.272.242.416.158.285.334.589.47.896a9.12409,9.12409,0,0,1,.348.903c.468,1.648.182,2.099-.066,2.258a.95721.95721,0,0,0-.477.754c.023.276-.236.763-.227,1.025a2.75205,2.75205,0,0,0,.261,1.294,1.35532,1.35532,0,0,1,.215.548.9383.9383,0,0,1,.012.228c-.297.009-.327.26-.092.698a3.47234,3.47234,0,0,1-.078,1.505c-.116.515-.346.907-.507.928a2.71092,2.71092,0,0,1-.134.244c-.094.151-.21.402-.433.749-.106.175-.229.378-.373.615a7.84305,7.84305,0,0,1-.507.794c-.206.287-.419.623-.682.977-.283.341-.579.73-.927,1.137a4.32217,4.32217,0,0,0-.499.715c-.194.373-.483.892-1.003,1.781-.292.351-.57.65-.833.914a9.58,9.58,0,0,1-.784.667c-.127.098-.251.193-.377.282-.132.082-.259.161-.388.244-.259.156-.522.31-.8.463-1.001.187-1.371.365-1.404.653-.16.063-.104.327-.19.361-.08.03-.112.328-.28.392a1.79411,1.79411,0,0,0-.326.257,1.31156,1.31156,0,0,1-.41.257,3.15168,3.15168,0,0,0-.615.312c-.23.127-.253-.34-.482-.287a5.10437,5.10437,0,0,1-.485.263,3.66857,3.66857,0,0,1-.501.165,3.36007,3.36007,0,0,1-.949.107Z" style="fill:#fffef9;fill-rule:evenodd"></path></g><g style="mask:url(#a)"><path d="M22.424,92.77255a15.43142,15.43142,0,0,0-4.821,5.205,11.53386,11.53386,0,0,0-1.429,6.899.73663.73663,0,0,1-1.456.219,13.27842,13.27842,0,0,1,1.079-8.023,17.72178,17.72178,0,0,1,5.097-6.363,1.28476,1.28476,0,1,1,1.607,2.005c-.023.019-.053.041-.077.058" style="fill:#3f3350;fill-rule:evenodd"></path></g><g style="mask:url(#a)"><path d="M47.96105,108.49225a31.08136,31.08136,0,0,0,.447-5.232,15.2597,15.2597,0,0,0-.814-5.045,9.04951,9.04951,0,0,0-2.893-4.075,12.7497,12.7497,0,0,0-4.685-2.253l-.009-.002a.40617.40617,0,0,1,.182-.791,13.78863,13.78863,0,0,1,5.255,2.04,10.53206,10.53206,0,0,1,3.71,4.429,17.16822,17.16822,0,0,1,1.381,5.585,33.4614,33.4614,0,0,1-.024,5.655,1.28559,1.28559,0,0,1-2.563-.205c.003-.033.008-.073.013-.106" style="fill:#3f3350;fill-rule:evenodd"></path></g><g style="mask:url(#a)"><path d="M39.39515,93.47865a9.9478,9.9478,0,0,0-2.85-3.975,6.41415,6.41415,0,0,0-4.601-1.171,17.76169,17.76169,0,0,0-5.123,1.374,54.094,54.094,0,0,0-4.956,2.384.4064.4064,0,0,1-.412-.7,54.926,54.926,0,0,1,4.85-2.823,19.10817,19.10817,0,0,1,5.438-1.912,8.3345,8.3345,0,0,1,6.003,1.089,12.192,12.192,0,0,1,3.971,4.63,1.28613,1.28613,0,1,1-2.264,1.221.91859.91859,0,0,1-.044-.089Z" style="fill:#3f3350;fill-rule:evenodd"></path></g><g style="mask:url(#a)"><path d="M24.84235,103.675a1.42768,1.42768,0,0,0,1.542-1.293,1.45325,1.45325,0,0,0-.985-1.771,1.42768,1.42768,0,0,0-1.542,1.293,1.45427,1.45427,0,0,0,.985,1.771" style="fill:#ff7043;fill-rule:evenodd"></path></g><g style="mask:url(#a)"><path d="M37.35015,102.54505c-.05.542.811,1.104,1.923,1.257,1.113.151,2.055-.165,2.105-.707.05-.543-.811-1.106-1.924-1.258-1.112-.151-2.054.165-2.104.708" style="fill:#ff7043;fill-rule:evenodd"></path></g><g style="mask:url(#a)"><path d="M36.54115,108.05675c-.537.126-.72,1.093-.41,2.159.311,1.066.997,1.828,1.534,1.702.536-.126.719-1.092.409-2.159-.31-1.065-.996-1.828-1.533-1.702" style="fill:#ff7043;fill-rule:evenodd"></path></g><g style="mask:url(#a)"><path d="M34.79305,94.78625a1.4841,1.4841,0,0,0-1.304-1.56,1.33372,1.33372,0,0,0-1.527,1.204,1.48313,1.48313,0,0,0,1.303,1.559,1.33268,1.33268,0,0,0,1.528-1.203" style="fill:#ff7043;fill-rule:evenodd"></path></g><g style="mask:url(#a)"><path d="M11.87855,110.30775l36.543-.171c12.182-.066,24.363-.146,36.544-.077l36.543.283,18.272.197,18.272.271a.53105.53105,0,0,1,0,1.062l-18.272.27-18.272.198-36.543.282c-12.181.07-24.362-.01-36.544-.077l-36.543-.171a1.03351,1.03351,0,0,1,0-2.067" style="fill:#3f3350;fill-rule:evenodd"></path></g><g style="mask:url(#a)"><polyline points="48.95 17.245 37.526 17.245 37.63 24.353 129.941 24.353 129.941 17.245 60.739 17.245" style="fill:none;stroke:#3f3350;stroke-linecap:round;stroke-linejoin:round;stroke-width:2px"></polyline></g><g style="mask:url(#a)"><line x1="58.92145" y1="34.71595" x2="58.92145" y2="63.74495" style="fill:none;stroke:#3f3350;stroke-linecap:round;stroke-linejoin:round;stroke-width:2px"></line></g><g style="mask:url(#a)"><path d="M50.88875,63.74525v-21.087a8.0325,8.0325,0,0,1,16.065,0v21.087" style="fill:none;stroke:#3f3350;stroke-linecap:round;stroke-linejoin:round;stroke-width:2px"></path></g><g style="mask:url(#a)"><path d="M66.95375,64.74525l-12.429-.255a.74518.74518,0,0,1,0-1.49l12.429-.255a1.00022,1.00022,0,0,1,.042,2Z" style="fill:#3f3350;fill-rule:evenodd"></path></g><g style="mask:url(#a)"><path d="M50.88875,50.83605c0-.069,16.065,0,16.065,0" style="fill:none;stroke:#3f3350;stroke-linecap:round;stroke-linejoin:round;stroke-width:2px"></path></g><g style="mask:url(#a)"><line x1="83.13924" y1="34.71595" x2="83.13924" y2="63.74495" style="fill:none;stroke:#3f3350;stroke-linecap:round;stroke-linejoin:round;stroke-width:2px"></line></g><g style="mask:url(#a)"><path d="M75.10705,42.65825a8.0325,8.0325,0,0,1,16.065,0v21.087h-16.065Z" style="fill:none;stroke:#3f3350;stroke-linecap:round;stroke-linejoin:round;stroke-width:2px"></path></g><g style="mask:url(#a)"><path d="M75.10705,50.83605c0-.069,16.065,0,16.065,0" style="fill:none;stroke:#3f3350;stroke-linecap:round;stroke-linejoin:round;stroke-width:2px"></path></g><g style="mask:url(#a)"><line x1="107.35754" y1="34.71595" x2="107.35754" y2="63.74495" style="fill:none;stroke:#3f3350;stroke-linecap:round;stroke-linejoin:round;stroke-width:2px"></line></g><g style="mask:url(#a)"><path d="M116.14805,42.65825l.24206,21.087a.98921.98921,0,0,1-.97706,1h-.026l-16.062.19509a1.1807,1.1807,0,0,1-1.195-1.16609v-.034l.098-20.003c.005-.427-.005-.81.014-1.272a8.778,8.778,0,0,1,.146-1.41,9.24759,9.24759,0,0,1,.929-2.668,9.06478,9.06478,0,0,1,14.427-2.116.99986.99986,0,0,1-1.414,1.414,7.00392,7.00392,0,0,0-11.118,1.709,7.11573,7.11573,0,0,0-.687,2.041,6.67517,6.67517,0,0,0-.101,1.076c-.014.37,0,.82-.002,1.226l.098,20.003v.005l-1.195-1.194,16.062.194h.003l-1,1,.241-21.087a.75855.75855,0,0,1,1.517,0" style="fill:#3f3350;fill-rule:evenodd"></path></g><g style="mask:url(#a)"><path d="M99.32484,50.83605c0-.069,16.065,0,16.065,0" style="fill:none;stroke:#3f3350;stroke-linecap:round;stroke-linejoin:round;stroke-width:2px"></path></g><g style="mask:url(#a)"><path d="M41.42055,60.883l-23.465.031a1.0875,1.0875,0,1,1-.003-2.175h.003l23.465.032a1.056,1.056,0,0,1,0,2.112" style="fill:#3f3350;fill-rule:evenodd"></path></g><g style="mask:url(#a)"><polygon points="35.474 75.162 21.126 75.162 21.126 64.768 23.623 64.768 35.474 64.768 35.474 75.162" style="fill:none;stroke:#3f3350;stroke-linecap:round;stroke-linejoin:round;stroke-width:2px"></polygon></g><g style="mask:url(#a)"><path d="M25.11335,59.82725l.434,4.309a1.005,1.005,0,0,1-2,.201,1.03841,1.03841,0,0,1,0-.201l.434-4.309a.56875.56875,0,0,1,1.132,0" style="fill:#3f3350;fill-rule:evenodd"></path></g><g style="mask:url(#a)"><path d="M32.443,59.82725l.434,4.309a1.005,1.005,0,0,1-2,.201,1.03841,1.03841,0,0,1,0-.201l.434-4.309a.56875.56875,0,0,1,1.132,0" style="fill:#3f3350;fill-rule:evenodd"></path></g><g style="mask:url(#a)"><path d="M146.95175,17.24525a16.2455,16.2455,0,1,1-16.245-16.246,16.24483,16.24483,0,0,1,16.245,16.246" style="fill:#fffef9;fill-rule:evenodd"></path></g><g style="mask:url(#a)"><path d="M146.95175,19.03425a14.456,14.456,0,1,1-14.456-14.456,14.45578,14.45578,0,0,1,14.456,14.456" style="fill:#ff7043;fill-rule:evenodd"></path></g><g style="mask:url(#a)"><path d="M140.16954,3.21105a16.9982,16.9982,0,0,1-2.597,29.628,17.04171,17.04171,0,0,1-21.336-6.461,17.02276,17.02276,0,0,1-2.308-5.604,17.6583,17.6583,0,0,1-.181-6.061,17.01908,17.01908,0,0,1,5.735-10.492A17.377,17.377,0,0,1,130.70654,0a1,1,0,0,1,.012,2h-.012a15.42087,15.42087,0,0,0-9.97,3.675,15.14155,15.14155,0,0,0-5.17,9.307,15.8334,15.8334,0,0,0,.124,5.423,15.17981,15.17981,0,0,0,2.034,5.033,15.45022,15.45022,0,1,0,21.685-21.101.67924.67924,0,0,1,.76-1.126" style="fill:#3f3350;fill-rule:evenodd"></path></g><g style="mask:url(#a)"><polyline points="125.209 18.697 128.033 22.516 138.118 10.757" style="fill:none;stroke:#3f3350;stroke-linecap:round;stroke-linejoin:round;stroke-width:2px"></polyline></g></svg> 