<?xml version="1.0" encoding="UTF-8"?> <svg xmlns="http://www.w3.org/2000/svg" xmlns:xlink="http://www.w3.org/1999/xlink" viewBox="0 0 169.4281 121.64145"><defs><mask id="a" x="122.86742" y="23.54628" width="46.56067" height="82.66913" maskUnits="userSpaceOnUse"><polygon points="122.868 23.546 169.428 23.546 169.428 106.215 122.868 106.215 122.868 23.546" style="fill:#fff;fill-rule:evenodd"></polygon></mask></defs><path d="M131.30611,94.8694H7.7461a6.74626,6.74626,0,0,1-6.746-6.746h137.052a6.74625,6.74625,0,0,1-6.746,6.746" style="fill:#ff7043;fill-rule:evenodd"></path><path d="M48.7025,95.11541c-.781.12-1.483-.195-1.57-.704-.086-.509.477-1.019,1.257-1.139.781-.12,1.483.196,1.57.704.086.509-.477,1.019-1.257,1.139" style="fill:#d84315;fill-rule:evenodd"></path><path d="M36.4789,92.2268c-.391.06-.777-.304-.863-.813a.83111.83111,0,0,1,.55-1.03c.39-.06.777.304.863.813a.83162.83162,0,0,1-.55,1.03" style="fill:#d84315;fill-rule:evenodd"></path><path d="M125.1571,89.5549a1.41887,1.41887,0,0,1,1.936-.567,1.56706,1.56706,0,0,1-.034,2.099,1.41929,1.41929,0,0,1-1.936.568,1.56735,1.56735,0,0,1,.034-2.1" style="fill:#d84315;fill-rule:evenodd"></path><path d="M81.2567,91.2658c.05-.428,1.713-.809,3.716-.85,2.002-.042,3.585.271,3.535.7-.049.427-1.713.807-3.715.849s-3.585-.271-3.536-.699" style="fill:#d84315;fill-rule:evenodd"></path><path d="M130.3046,91.7873c-.025-.325.459-.632,1.082-.686.622-.053,1.147.167,1.172.493.025.325-.46.631-1.082.685-.623.054-1.148-.167-1.172-.492" style="fill:#d84315;fill-rule:evenodd"></path><path d="M112.4467,96.10471c-.378-.064-.542-.528-.367-1.038.175-.509.623-.87,1.002-.807.378.065.542.53.367,1.038-.175.51-.624.871-1.002.807" style="fill:#d84315;fill-rule:evenodd"></path><path d="M99.6522,90.69551a1.45553,1.45553,0,0,1,1.558-.888.95344.95344,0,0,1,.549,1.403,1.4529,1.4529,0,0,1-1.557.887.95287.95287,0,0,1-.55-1.402" style="fill:#d84315;fill-rule:evenodd"></path><path d="M115.0697,90.9524c-.97-.028-1.513-.561-1.213-1.187a2.59469,2.59469,0,0,1,2.299-1.084c.97.029,1.513.56,1.213,1.188a2.59413,2.59413,0,0,1-2.299,1.083" style="fill:#d84315;fill-rule:evenodd"></path><path d="M56.6503,89.96121c.377-.073.692.305.703.843a1.06619,1.06619,0,0,1-.661,1.107c-.377.072-.692-.304-.704-.843a1.066,1.066,0,0,1,.662-1.107" style="fill:#d84315;fill-rule:evenodd"></path><path d="M67.4208,90.3947c.026-.49.734-.979,1.583-1.092.848-.112,1.515.195,1.489.685-.026.491-.735.979-1.583,1.092-.848.112-1.515-.195-1.489-.685" style="fill:#d84315;fill-rule:evenodd"></path><path d="M71.2152,24.52661a1.689,1.689,0,1,1-1.689-1.688,1.68812,1.68812,0,0,1,1.689,1.688" style="fill:#3f3350;fill-rule:evenodd"></path><polyline points="129.289 88.123 9.762 88.123 9.762 16.426 129.289 16.426" style="fill:none;stroke:#3f3350;stroke-linecap:round;stroke-linejoin:round;stroke-width:2px"></polyline><line x1="129.2894" y1="16.42601" x2="129.2894" y2="81.37101" style="fill:none;stroke:#3f3350;stroke-linecap:round;stroke-linejoin:round;stroke-width:2px"></line><path d="M7.746,94.8694A6.74626,6.74626,0,0,1,1,88.12341H138.052a6.74626,6.74626,0,0,1-6.746,6.746" style="fill:none;stroke:#3f3350;stroke-linecap:round;stroke-linejoin:round;stroke-width:2px"></path><path d="M104.4286,95.35671l-96.683.513a1,1,0,1,1-.01-2h.01l96.683.511a.488.488,0,0,1,0,.976" style="fill:#3f3350;fill-rule:evenodd"></path><path d="M27.4555,37.0217c.894-1.113,1.89-2.126,2.88-3.144,1.016-.991,2.029-1.987,3.132-2.891a.83355.83355,0,0,1,1.173,1.173c-.905,1.103-1.901,2.115-2.893,3.132-1.017.99-2.029,1.986-3.143,2.879a.81734.81734,0,0,1-1.149-1.149" style="fill:#3f3350;fill-rule:evenodd"></path><path d="M26.6762,46.34791q1.311-1.4595,2.667-2.871l2.74-2.799,2.796-2.741q1.4085-1.3605,2.862-2.677a.83006.83006,0,0,1,1.172,1.173q-1.3185,1.4505-2.676,2.861l-2.742,2.797-2.798,2.739q-1.413,1.3575-2.872,2.667a.81361.81361,0,0,1-1.149-1.149" style="fill:#3f3350;fill-rule:evenodd"></path><path d="M168.4281,37.6574v62.186a5.46283,5.46283,0,0,1-5.447,5.447h-33.743a5.46283,5.46283,0,0,1-5.447-5.447v-69.925a5.46368,5.46368,0,0,1,5.447-5.448h33.743a5.46368,5.46368,0,0,1,5.447,5.448" style="fill:#fffef9;fill-rule:evenodd"></path><path d="M147.79919,31.802a1.6895,1.6895,0,1,1-1.689-1.689,1.68875,1.68875,0,0,1,1.689,1.689" style="fill:#3f3350;fill-rule:evenodd"></path><g style="mask:url(#a)"><path d="M169.4281,37.65741l-.073,58.447-.004,3.654a6.39572,6.39572,0,0,1-4.833,6.258,7.64135,7.64135,0,0,1-2.036.196h-32.877c-.283.007-.645-.01-1.005-.033a6.778,6.778,0,0,1-1.048-.201,6.36042,6.36042,0,0,1-3.445-2.382,6.4825,6.4825,0,0,1-.959-1.897,6.92815,6.92815,0,0,1-.28036-2.073v-69.406a6.87166,6.87166,0,0,1,.25436-2.063,6.47481,6.47481,0,0,1,.926-1.914,6.40883,6.40883,0,0,1,3.407-2.436,6.835,6.835,0,0,1,2.065-.259h32.877a8.33976,8.33976,0,0,1,2.025.171,6.39112,6.39112,0,0,1,4.928,6.199.92205.92205,0,0,1-1.844.019l-.001-.019a4.54814,4.54814,0,0,0-3.503-4.403,6.49815,6.49815,0,0,0-1.605-.122h-32.877a4.90649,4.90649,0,0,0-1.545.185,4.56,4.56,0,0,0-2.423,1.734,4.60752,4.60752,0,0,0-.838,2.908v69.406a4.56,4.56,0,0,0,3.329,4.573,5.1751,5.1751,0,0,0,.742.145c.249.01.495.029.82.023h32.877a5.7342,5.7342,0,0,0,1.588-.141,4.551,4.551,0,0,0,3.435-4.468l-.004-3.654-.073-58.447a1,1,0,0,1,2-.003Z" style="fill:#3f3350;fill-rule:evenodd"></path></g><path d="M136.37981,97.79811l19.459-.38a1.0002,1.0002,0,1,1,.04,2h-.04l-19.459-.381a.61962.61962,0,0,1,0-1.239" style="fill:#3f3350;fill-rule:evenodd"></path><path d="M138.3515,78.1076h16.287a2.707,2.707,0,0,0,2.707-2.707v-7.209a2.707,2.707,0,0,0-2.707-2.707h-23.193a2.707,2.707,0,0,0-2.707,2.707v7.209a2.707,2.707,0,0,0,2.707,2.707h4.623a5.08168,5.08168,0,0,1-.853,2.658S137.94051,80.13261,138.3515,78.1076Z" style="fill:none;stroke:#3f3350;stroke-linecap:round;stroke-linejoin:round;stroke-width:2px"></path><path d="M154.0629,58.594h-14.033a2.25658,2.25658,0,0,1-2.332-2.172V50.639a2.25658,2.25658,0,0,1,2.332-2.172h19.983a2.2575,2.2575,0,0,1,2.333,2.172v5.783a2.25749,2.25749,0,0,1-2.333,2.172h-3.983a3.88193,3.88193,0,0,0,.735,2.132s-2.348-.507-2.702-2.132" style="fill:#ff7043;fill-rule:evenodd"></path><path d="M152.7323,58.06861h-16.287a2.70705,2.70705,0,0,1-2.707-2.707v-7.209a2.7079,2.7079,0,0,1,2.707-2.708h23.193a2.7079,2.7079,0,0,1,2.707,2.708v7.209a2.70706,2.70706,0,0,1-2.707,2.707h-4.623a5.07594,5.07594,0,0,0,.853,2.657S153.1433,60.0936,152.7323,58.06861Z" style="fill:none;stroke:#3f3350;stroke-linecap:round;stroke-linejoin:round;stroke-width:2px"></path></svg> 