<?xml version="1.0" encoding="UTF-8"?> <svg xmlns="http://www.w3.org/2000/svg" xmlns:xlink="http://www.w3.org/1999/xlink" viewBox="0 0 169.4281 121.64145"><defs><mask id="a" x="39.8727" y="3.6685" width="89.536" height="114.315" maskUnits="userSpaceOnUse"><polygon points="39.873 117.984 129.409 117.984 129.409 3.669 39.873 3.669 39.873 117.984" style="fill:#fff;fill-rule:evenodd"></polygon></mask></defs><polygon points="47.693 110.168 129.085 110.168 129.085 3.669 47.693 3.669 47.693 110.168" style="fill:#ff7043;fill-rule:evenodd"></polygon><path d="M127.4173,50.00841c.345-.907,1.026-1.25,1.521-.765a2.574,2.574,0,0,1,.274,2.521c-.344.907-1.025,1.249-1.521.765a2.57939,2.57939,0,0,1-.274-2.521" style="fill:#d84315;fill-rule:evenodd"></path><path d="M117.43,15.0679a1.41823,1.41823,0,0,1-.617-1.92,1.56652,1.56652,0,0,1,2.1-.02c.75.525,1.026,1.384.617,1.92a1.56672,1.56672,0,0,1-2.1.02" style="fill:#d84315;fill-rule:evenodd"></path><path d="M120.2713,58.9097c-.429-.038-.852-1.691-.945-3.692-.094-2,.178-3.591.608-3.553.428.039.852,1.692.945,3.692.093,2.001-.179,3.592-.608,3.553" style="fill:#d84315;fill-rule:evenodd"></path><path d="M119.5296,9.8648c-.325.033-.644-.443-.713-1.063-.07-.622.136-1.152.461-1.185.324-.033.644.443.713,1.064.07.621-.137,1.151-.461,1.184" style="fill:#d84315;fill-rule:evenodd"></path><path d="M126.9173,15.5396c-.108.76-.613,1.243-1.126,1.081a1.50132,1.50132,0,0,1-.734-1.668c.109-.759.613-1.243,1.126-1.081a1.5027,1.5027,0,0,1,.734,1.668" style="fill:#d84315;fill-rule:evenodd"></path><path d="M124.305,27.606c-.054.379-.514.556-1.028.394-.514-.163-.886-.602-.832-.981.054-.38.515-.557,1.028-.394.514.162.887.601.832.981" style="fill:#d84315;fill-rule:evenodd"></path><path d="M125.7542,41.89311c.456.183.687,1.009.516,1.847-.171.837-.68,1.369-1.136,1.186-.456-.181-.687-1.008-.516-1.846.172-.837.68-1.369,1.136-1.187" style="fill:#d84315;fill-rule:evenodd"></path><path d="M119.2278,40.5357a1.45416,1.45416,0,0,1-.928-1.534.953.953,0,0,1,1.388-.586,1.45269,1.45269,0,0,1,.927,1.534.95283.95283,0,0,1-1.387.586" style="fill:#d84315;fill-rule:evenodd"></path><path d="M119.0872,25.1168c-.003.97-.521,1.526-1.156,1.242a2.59152,2.59152,0,0,1-1.142-2.269c.004-.971.521-1.528,1.156-1.244a2.59621,2.59621,0,0,1,1.142,2.271" style="fill:#d84315;fill-rule:evenodd"></path><g style="mask:url(#a)"><polygon points="40.877 116.984 122.268 116.984 122.268 10.485 40.877 10.485 40.877 116.984" style="fill:#fffef9;fill-rule:evenodd"></polygon></g><g style="mask:url(#a)"><path d="M87.4661,30.231q-1.4745,2.868-3.168,5.718-1.6935,2.84852-3.606,5.598,2.988,1.1565,5.778,2.47.0795-3.50548.318-7.032.24-3.528.678-6.754m-3.148-3.506a8.524,8.524,0,0,0-1.873-.379,14.04361,14.04361,0,0,0-1.952-.059,29.07739,29.07739,0,0,0-4.742.458,15.07185,15.07185,0,0,0-4.064,1.295,7.12948,7.12948,0,0,0-2.709,2.231,4.36492,4.36492,0,0,0-.678,3.268,2.88569,2.88569,0,0,0,.239.837,2.95339,2.95339,0,0,0,.319.517c.106.133.205.253.299.359a.91626.91626,0,0,1,.219.398c.286,1.221-3.122,2.258-3.387,2.311a1.62217,1.62217,0,0,1-.797-.04,2.00331,2.00331,0,0,1-.757-.438,2.08073,2.08073,0,0,1-.558-.877,5.71659,5.71659,0,0,1-.338-.837,5.90738,5.90738,0,0,1-.219-.996,8.73813,8.73813,0,0,1,.996-5.479,10.80146,10.80146,0,0,1,4.144-3.971,22.53924,22.53924,0,0,1,6.853-2.411,46.72519,46.72519,0,0,1,9.085-.81c.504,0,1.056.021,1.653.061q.897.06,1.833.159c.624.065,1.228.159,1.813.278a9.89724,9.89724,0,0,1,1.594.457,9.72111,9.72111,0,0,1,1.793.856,1.58919,1.58919,0,0,1,.697.916,3.00511,3.00511,0,0,1,0,1.292q-.1395.7575-.298,1.989-.3195,1.911-.618,4.517-.2985,2.6055-.518,5.352-.2205,2.745-.319,5.391-.099,2.646.02,4.595a1.85886,1.85886,0,0,0,.398,1.393,1.33385,1.33385,0,0,0,.917.357,3.05861,3.05861,0,0,0,1.693-.716c2.119-1.466,2.698-4.501,4.304-3.806.316.137.511.299.538.618a4.36424,4.36424,0,0,1-.737,2.311,11.99533,11.99533,0,0,1-2.013,2.509,12.175,12.175,0,0,1-2.769,2.013,6.168,6.168,0,0,1-3.088.777,3.9556,3.9556,0,0,1-3.327-1.355,5.98628,5.98628,0,0,1-1.215-3.267q-2.0325-.9165-4.284-1.952a23.91855,23.91855,0,0,0-4.403-1.554l-2.59,3.307q-.9165,1.116-1.793,2.192a25.75248,25.75248,0,0,1-1.733,1.932,15.10808,15.10808,0,0,1-1.634,1.434,4.14419,4.14419,0,0,1-1.414.737,1.5428,1.5428,0,0,1-1.016-.099,2.846,2.846,0,0,1-.837-.618,4.55518,4.55518,0,0,1-.678-.936,5.24789,5.24789,0,0,1-.458-1.096,3.35248,3.35248,0,0,1-.159-1.394,3.59527,3.59527,0,0,1,.777-1.475,13.22943,13.22943,0,0,1,1.435-1.414q.855-.7365,1.912-1.634a27.18639,27.18639,0,0,0,2.212-2.132,4.99834,4.99834,0,0,0-.678-.039,7.28939,7.28939,0,0,1-.777-.041,4.69374,4.69374,0,0,1-.697-.119.62069.62069,0,0,1-.438-.319,2.35816,2.35816,0,0,1-.379-1.832,2.82835,2.82835,0,0,1,.896-1.435,4.45782,4.45782,0,0,1,1.614-.896,4.88387,4.88387,0,0,1,1.734-.259,10.16826,10.16826,0,0,1,2.47.437q2.271-3.186,4.403-6.275,2.13-3.0885,4.084-6.594" style="fill:#ff7043;fill-rule:evenodd"></path></g><g style="mask:url(#a)"><line x1="47.0765" y1="65.5064" x2="115.78449" y2="65.5064" style="fill:none;stroke:#3f3350;stroke-linecap:round;stroke-linejoin:round;stroke-width:1.75px"></line></g><g style="mask:url(#a)"><line x1="47.0765" y1="79.0035" x2="111.5715" y2="79.0035" style="fill:none;stroke:#3f3350;stroke-linecap:round;stroke-linejoin:round;stroke-width:1.75px"></line></g><g style="mask:url(#a)"><path d="M87.8704,71.50051l8.567-.121a.87509.87509,0,1,1,.025,1.75h-.025l-8.567-.12a.75457.75457,0,0,1,0-1.509" style="fill:#3f3350;fill-rule:evenodd"></path></g><g style="mask:url(#a)"><line x1="47.0765" y1="72.2545" x2="84.6215" y2="72.2545" style="fill:none;stroke:#3f3350;stroke-linecap:round;stroke-linejoin:round;stroke-width:1.75px"></line></g><g style="mask:url(#a)"><line x1="47.0765" y1="85.7515" x2="115.78449" y2="85.7515" style="fill:none;stroke:#3f3350;stroke-linecap:round;stroke-linejoin:round;stroke-width:1.75px"></line></g><g style="mask:url(#a)"><line x1="47.0765" y1="108.7164" x2="111.5715" y2="108.7164" style="fill:none;stroke:#3f3350;stroke-linecap:round;stroke-linejoin:round;stroke-width:1.75px"></line></g><g style="mask:url(#a)"><line x1="47.0765" y1="92.50051" x2="96.4375" y2="92.50051" style="fill:none;stroke:#3f3350;stroke-linecap:round;stroke-linejoin:round;stroke-width:1.75px"></line></g><g style="mask:url(#a)"><line x1="48.1414" y1="100.51521" x2="53.4614" y2="105.83521" style="fill:none;stroke:#3f3350;stroke-linecap:round;stroke-linejoin:round;stroke-width:2px"></line></g><g style="mask:url(#a)"><path d="M53.9012,100.95461l-5.053,5.588a1.00144,1.00144,0,0,1-1.485-1.344.94036.94036,0,0,1,.071-.07l5.588-5.053a.62233.62233,0,0,1,.879.879" style="fill:#3f3350;fill-rule:evenodd"></path></g><g style="mask:url(#a)"><polyline points="54.995 116.984 40.876 116.984 40.876 10.485" style="fill:none;stroke:#3f3350;stroke-linecap:round;stroke-linejoin:round;stroke-width:2px"></polyline></g><g style="mask:url(#a)"><polyline points="122.267 10.485 122.267 116.984 63.285 116.984" style="fill:none;stroke:#3f3350;stroke-linecap:round;stroke-linejoin:round;stroke-width:2px"></polyline></g><g style="mask:url(#a)"><path d="M40.8768,9.4849l75.747.298a.702.702,0,0,1,0,1.404l-75.747.298a1,1,0,1,1-.008-2Z" style="fill:#3f3350;fill-rule:evenodd"></path></g></svg> 