<svg xmlns="http://www.w3.org/2000/svg" viewBox="0 0 80.68191 72.23842"><path d="M.69285,17.49573A16.8856,16.8856,0,0,0,17.739,34.21645,16.88561,16.88561,0,0,0,34.78511,17.49573,16.8856,16.8856,0,0,0,17.739.775,16.88559,16.88559,0,0,0,.69285,17.49573" style="fill:#ffb300;fill-rule:evenodd"/><path d="M.8,17.52071A16.88561,16.88561,0,0,0,17.84613,34.24143,16.8856,16.8856,0,0,0,34.89226,17.52071,16.88559,16.88559,0,0,0,17.84613.8,16.8856,16.8856,0,0,0,.8,17.52071Z" style="fill:none;stroke:#3f3350;stroke-linecap:round;stroke-linejoin:round;stroke-width:1.600000023841858px"/></svg>