<svg xmlns="http://www.w3.org/2000/svg" viewBox="0 0 90.28505 25.59708"><path d="M13.96091,4.65426c-.6311.03457-1.16689-.26553-1.19653-.67011-.02883-.4038.45891-.75968,1.09-.79425.63189-.03456,1.16769.26554,1.19652.67012.02963.4038-.45811.76046-1.09.79424" style="fill:#d84315;fill-rule:evenodd"/><path d="M4.44178,1.465A.68173.68173,0,0,1,3.81709.76428a.6543.6543,0,0,1,.51817-.7636A.68287.68287,0,0,1,4.96.70144a.65374.65374,0,0,1-.51818.7636" style="fill:#d84315;fill-rule:evenodd"/><path d="M46.58386,10.55121c.68716.35588.893.91994.4589,1.2601a2.09832,2.09832,0,0,1-2.03025-.02906c-.68716-.35588-.89218-.91994-.4589-1.2601a2.09839,2.09839,0,0,1,2.03025.02906" style="fill:#d84315;fill-rule:evenodd"/><path d="M70.067,14.74388a.67572.67572,0,0,1,.61348.70547.66234.66234,0,0,1-.531.76046.67514.67514,0,0,1-.61348-.70547.66269.66269,0,0,1,.531-.76046" style="fill:#d84315;fill-rule:evenodd"/><path d="M75.33611,6.12687a1.1497,1.1497,0,0,1,1.58656-.29617,1.21293,1.21293,0,0,1-.18981,1.63876,1.14889,1.14889,0,0,1-1.58656.29617,1.21376,1.21376,0,0,1,.18981-1.63876" style="fill:#d84315;fill-rule:evenodd"/><path d="M40.20958,4.123c.07288-.33074,1.428-.502,3.02736-.3818s2.83675.48471,2.76387.81545c-.07208.33074-1.428.502-3.02736.38259-1.59938-.1202-2.83675-.4855-2.76387-.81624" style="fill:#d84315;fill-rule:evenodd"/><path d="M79.26623,8.26425c.00561-.2561.41566-.45879.91622-.45408.49976.00629.901.2184.89539.47372-.0056.25689-.41566.45958-.91621.45408-.49976-.0055-.901-.21761-.8954-.47372" style="fill:#d84315;fill-rule:evenodd"/><path d="M59.6828,13.9487c-.42126-.11234-.55662-.64734-.30193-1.19569a1.20671,1.20671,0,0,1,1.22616-.78874c.42207.11156.55742.64734.30194,1.1949a1.20748,1.20748,0,0,1-1.22617.78953" style="fill:#d84315;fill-rule:evenodd"/><path d="M74.02994,13.47844c-.59186-.15791-.92743-.59706-.74883-.982a1.21622,1.21622,0,0,1,1.39835-.41166c.59266.15712.92823.59706.74883.982a1.21666,1.21666,0,0,1-1.39835.41166" style="fill:#d84315;fill-rule:evenodd"/><path d="M64.69613,10.28042c-.29632-.07856-.39083-.45487-.21223-.839a.84838.84838,0,0,1,.86175-.55464c.29634.07856.39084.45486.21144.83981a.84671.84671,0,0,1-.861.55385" style="fill:#d84315;fill-rule:evenodd"/><path d="M82.692,13.2272c.42047.1147.54781.65126.28351,1.19647S81.07256,17.68548,80.65129,17.57c-.42046-.1147.5366-3.01749.80089-3.56348A1.22223,1.22223,0,0,1,82.692,13.2272" style="fill:#d84315;fill-rule:evenodd"/><path d="M53.19744,10.03531c-.189.33859-.869.43836-1.51848.22468-.64872-.21447-1.02114-.66226-.83213-1.00007.18982-.33781.869-.43836,1.51849-.22389.64872.21368,1.02113.66147.83212.99928" style="fill:#d84315;fill-rule:evenodd"/><path d="M54.91735,5.07731a1.17179,1.17179,0,0,1,1.31026-.57506.74236.74236,0,0,1,.33,1.13755,1.17439,1.17439,0,0,1-1.31105.57584.74249.74249,0,0,1-.32917-1.13833" style="fill:#d84315;fill-rule:evenodd"/><path d="M67.18722,6.45179c-.77126-.09663-1.1629-.55306-.87537-1.02049a2.099,2.099,0,0,1,1.91733-.67248c.77045.09585,1.16209.55307.87457,1.02128a2.09984,2.09984,0,0,1-1.91653.67169" style="fill:#d84315;fill-rule:evenodd"/><path d="M28.15635,5.4782c.43569-.04085.75124.414.70479,1.015a1.19667,1.19667,0,0,1-.873,1.16034c-.43569.04006-.75124-.414-.70558-1.01421a1.19764,1.19764,0,0,1,.87376-1.16112" style="fill:#d84315;fill-rule:evenodd"/><path d="M20.69655,1.22952c.30594-.02829.52779.29067.495.71254a.84126.84126,0,0,1-.61268.81545c-.30594.02828-.52859-.29067-.49575-.71254a.841.841,0,0,1,.61348-.81545" style="fill:#d84315;fill-rule:evenodd"/><path d="M29.24821,2.38835c.05846-.3818.66153-.70939,1.34629-.733.68476-.02278,1.19253.2671,1.13406.64891-.05926.381-.66153.70939-1.34629.733-.68477.02278-1.19252-.26789-1.13406-.64891" style="fill:#d84315;fill-rule:evenodd"/><path d="M38.01731,8.90216a1.16317,1.16317,0,0,1-1.02755.98985.74681.74681,0,0,1-.71119-.95136,1.16476,1.16476,0,0,1,1.02755-.98985.74653.74653,0,0,1,.71119.95136" style="fill:#d84315;fill-rule:evenodd"/><path d="M89.426,16.17666c.94825-2.741,2.719,4.4575-9.33757,2.28845C62.80042,15.35413,52.4193,9.90757.299,5.61584L.13,7.39993c52.67771,8.391,81.67231,30.816,89.296,8.77673" style="fill:#d84315;fill-rule:evenodd"/><path d="M.28476,5.91051c7.64609.44858,15.27937,1.092,22.871,2.04414,7.59243.92308,15.14322,2.16354,22.60751,3.778,3.73534.795,7.44907,1.6859,11.15,2.63412,3.70331.94664,7.38981,1.96557,11.122,2.89415a62.8848,62.8848,0,0,0,11.45753,1.95536,29.886,29.886,0,0,0,5.88333-.16027,8.25994,8.25994,0,0,0,2.95928-.97414,4.351,4.351,0,0,0,1.92775-2.51471l.0048-.0165a.47958.47958,0,0,0-.34278-.58919.49256.49256,0,0,0-.58145.27888c-.684,1.61834-2.353,2.2099-4.16782,2.37173a39.91862,39.91862,0,0,1-5.599.03928,61.42274,61.42274,0,0,1-11.17641-1.83438c-3.70572-.894-7.40582-1.88858-11.12916-2.81323-3.72173-.92544-7.46269-1.79667-11.22527-2.56892-7.53-1.52642-15.1344-2.675-22.76768-3.503C15.64422,6.09592,7.97811,5.62534.31279,5.32131a.295.295,0,1,0-.028.5892" style="fill:#3f3350;fill-rule:evenodd"/></svg>