<?xml version="1.0" encoding="UTF-8"?>
<svg width="67px" height="59px" viewBox="0 0 67 59" version="1.1" xmlns="http://www.w3.org/2000/svg" xmlns:xlink="http://www.w3.org/1999/xlink">
    <title>Group 24</title>
    <g id="Design" stroke="none" stroke-width="1" fill="none" fill-rule="evenodd">
        <g id="Home" transform="translate(-601.000000, -3682.000000)" fill="#FF7043">
            <g id="How-it-works" transform="translate(0.000000, 2619.000000)">
                <g id="Group-37" transform="translate(560.500000, 1063.546816)">
                    <g id="Group-24" transform="translate(73.892300, 29.162908) scale(-1, 1) rotate(-285.000000) translate(-73.892300, -29.162908) translate(51.340880, 0.649130)">
                        <path d="M36.5828434,50.2553132 C37.2825617,44.6021799 37.4118575,38.8641799 36.4243927,33.3035132 C35.4546744,27.7529799 33.2756603,22.4215799 29.8366462,17.9527799 C26.4179139,13.4599132 21.7645336,9.98164655 16.723266,7.32544655 C11.6579139,4.67051322 6.16411104,2.81991322 0.563829349,1.44431322 L0.55749132,1.44304655 C0.164533574,1.34677988 -0.0750438909,0.949046551 0.0212941373,0.557646551 C0.11636456,0.168779885 0.505519489,-0.0693534485 0.893406813,0.0180465515 C6.6065054,1.30117988 12.2562237,3.07071322 17.5522801,5.71424655 C22.8204491,8.35651322 27.7919984,11.9019132 31.5352378,16.6139132 C35.2974913,21.2993132 37.7490406,26.9777799 38.8911533,32.8361132 C40.0548153,38.7096466 40.0319984,44.7199799 39.4210124,50.6023799 C39.3398857,51.3889799 38.6376322,51.9589799 37.8517167,51.8766466 C37.0658012,51.7955799 36.4953786,51.0925799 36.5765054,50.3085132 C36.577773,50.3009132 36.577773,50.2933132 36.5790406,50.2869799 L36.5828434,50.2553132 Z" id="Fill-1"></path>
                        <path d="M37.1333168,45.898852 C37.9853889,46.5261766 38.8722274,47.1878437 39.7938324,47.8821363 C40.7148481,48.5764289 41.5604383,49.224359 42.3306031,49.8253543 C43.1001786,50.4263495 43.5951582,50.8207169 43.815542,51.0073116 C43.8980387,51.5419112 43.6505488,52.0227074 43.0730726,52.4497002 C42.4955963,52.8772654 41.7666799,53.2378625 40.8869125,53.5314916 C40.3094362,53.8520224 39.7113358,54.2326527 39.0926112,54.6733826 C38.4738867,55.11354 37.8551621,55.5548423 37.2364376,55.9949997 C36.617713,56.4363019 35.9989884,56.8638671 35.3802639,57.2776953 C34.7615393,57.6920958 34.1634389,58.0326598 33.5859627,58.2993872 C33.3655789,58.2461562 33.1734796,58.1459903 33.0084864,57.9983172 C32.8434932,57.8523612 32.705606,57.6720626 32.5960034,57.4579938 C32.5406128,57.3515318 32.4993645,57.2107272 32.4722585,57.0372972 C32.4445632,56.8638671 32.4310102,56.7098979 32.4310102,56.5765342 C32.5683081,55.989276 32.9259898,55.4083139 33.5034661,54.833648 C34.0809423,54.2595544 34.7544682,53.6516907 35.524633,53.0106291 C35.937116,52.6368673 36.3908473,52.3094679 36.885827,52.0290035 C37.3808066,51.7479667 37.834538,51.5018448 38.247021,51.287776 C37.7520414,50.8871125 37.2570617,50.4664159 36.7620821,50.025686 C36.2671024,49.5849562 35.8133711,49.1379302 35.400888,48.6834633 C34.988405,48.2295688 34.6236521,47.7957075 34.307808,47.381307 C33.9913746,46.9674788 33.7780619,46.5994408 33.6684593,46.2794824 C33.640764,45.7986862 33.7438847,45.357384 33.9778216,44.9572928 C34.2111691,44.5566293 34.5205314,44.3557252 34.9059084,44.3557252 C35.0709016,44.3557252 35.2217525,44.4232656 35.3596397,44.5566293 C35.6896262,44.8239291 36.2806554,45.2715275 37.1333168,45.898852 Z" id="Fill-1" transform="translate(38.131010, 51.327556) rotate(-270.000000) translate(-38.131010, -51.327556) "></path>
                    </g>
                </g>
            </g>
        </g>
    </g>
</svg>