<svg xmlns="http://www.w3.org/2000/svg" viewBox="0 0 1530 302"><path d="M196.06789,0q7.01591,0,15.3301.54966,8.309.55139,16.98845,1.46691,8.67252.9121,16.80149,2.55937a92.35352,92.35352,0,0,1,14.7727,4.20836q11.45087,4.39557,16.62494,7.87048,5.162,3.47833,6.46024,8.41671a27.585,27.585,0,0,1,0,11.89332q-1.29827,6.95667-2.76966,18.29346-2.96008,17.572-5.72628,41.53732-2.76275,23.97731-4.79847,49.22571-2.03566,25.25013-2.95315,49.583-.92953,24.34319.1835,42.26561,0,9.51775,3.69058,12.80714a12.36577,12.36577,0,0,0,8.49594,3.29454q8.11689,0,15.69709-6.59594A99.079,99.079,0,0,0,310.192,229.783c2.11532-2.099,4.16488-4.47289,6.20752-6.87422a275.56267,275.56267,0,0,0,14.288-25.37381q8.67252-17.59265,10.15775-40.31432a42.7646,42.7646,0,0,1-7.38465-7.88078,22.57476,22.57476,0,0,1-4.80191-10.07944,64.81482,64.81482,0,0,1,.73743-19.78785,49.13,49.13,0,0,1,5.53934-15.023,29.65874,29.65874,0,0,1,8.86639-9.71529,21.61509,21.61509,0,0,1,10.70822-3.84764,55.93215,55.93215,0,0,1,9.97083,1.10276,104.66107,104.66107,0,0,1,11.81955,2.93039,50.33,50.33,0,0,1,12.003,5.31455q5.72281,3.48864,6.46371,7.5132c.24237,1.71083-.367,3.66556-1.84527,5.86421q-2.21746,3.29283-5.35932,7.14219-3.14181,3.85451-6.09326,8.24837a27.56521,27.56521,0,0,0-4.061,9.16219,22.3685,22.3685,0,0,0,5.72628,3.298,44.60582,44.60582,0,0,0,7.5716,2.38072,59.93825,59.93825,0,0,0,8.309,1.2814q4.24278.371,7.57156.36759a30.02551,30.02551,0,0,0,11.63263-2.38072c3.81174-1.58371,6.83414-2.38416,9.04642-2.38416a23.50863,23.50863,0,0,1,8.12549,1.65242,29.39452,29.39452,0,0,1,7.942,4.39729,35.7355,35.7355,0,0,1,6.09671,6.0463,13.05666,13.05666,0,0,1,2.94971,6.22836q1.47483,9.53835-2.21573,21.99338-3.69232,12.455-8.49249,24.73482-4.80363,12.27981-8.67944,23.08583-3.87928,10.82147-2.76969,16.67882,0,5.8642,7.01764,5.86077,6.27333,0,16.98847-7.14561,7.9974-5.3386,19.09338-18.1423c.05194-.663.05194-1.36042.11078-2.01314q.74264-8.25009,1.47485-15.21191A239.34717,239.34717,0,0,1,479.893,178.661a175.03643,175.03643,0,0,1,8.49595-27.301,86.59921,86.59921,0,0,1,11.07867-19.97681q6.09672-7.87907,12.37347-8.24494a83.73791,83.73791,0,0,1,9.04645.54967,53.9654,53.9654,0,0,1,9.78729,2.01314,36.09352,36.09352,0,0,1,10.34125,4.21521q4.43492,2.75176,5.17237,6.78147a7.72329,7.72329,0,0,1-.92438,4.76489c-.86554,1.71426-1.84528,3.66212-2.95319,5.86421q-1.667,3.298-3.51056,7.5132a36.204,36.204,0,0,0-2.58618,9.70842,105.53221,105.53221,0,0,1,28.07062-24.00308q15.51188-8.97667,27.70013-8.97667,14.03184,0,21.97382,6.96353,7.94028,6.967,7.942,18.32094a143.254,143.254,0,0,1,24.747-18.32094q12.183-6.9618,23.63562-6.96353,11.077,0,18.27978,4.76488a25.604,25.604,0,0,1,10.15778,12.82432q4.061,10.63082.92089,23.27477a191.31774,191.31774,0,0,1-8.496,25.83415q-5.34887,13.197-9.78033,25.83757-4.435,12.64053-2.95667,22.5396a7.3673,7.3673,0,0,0,2.39923,4.21522c1.10791.85886,3.012,1.2814,5.72632,1.2814q7.75856,0,18.46326-10.62909A167.33034,167.33034,0,0,0,718.90137,225.506a83.86661,83.86661,0,0,1,4.93-17.895,135.7195,135.7195,0,0,1,54.84631-64.86361q17.906-10.81117,34.53083-10.81118a30.02347,30.02347,0,0,1,7.56811.91382,67.175,67.175,0,0,1,6.46375,2.01657h0l3.3236-9.89736c.49158-1.46692,1.84876-2.683,4.06446-3.66213a15.60145,15.60145,0,0,1,6.27679-1.46691,44.98862,44.98862,0,0,1,10.71167,1.46691,54.88273,54.88273,0,0,1,11.08216,4.02971,41.135,41.135,0,0,1,9.22992,6.23181,19.09794,19.09794,0,0,1,5.5393,8.05942q-.36868,4.77177-4.61151,24.1886-4.25318,19.43226-13.85181,58.2711a186.97789,186.97789,0,0,0-4.43145,22.35409q.35833,6.24038,8.12555,6.2318,8.11679,0,16.80493-7.69528a184.02643,184.02643,0,0,0,15.46856-15.78562c-.63354-12.23343.1662-23.39845,2.62079-33.3233q5.35932-21.62235,17.35889-35.91357a77.06959,77.06959,0,0,1,28.25409-21.44028A82.62834,82.62834,0,0,1,976.81622,129.37a19.44246,19.44246,0,0,1,9.97077,2.38073,9.60623,9.60623,0,0,1,4.80194,7.14561q1.4696,7.69872-4.80194,9.89394a54.53594,54.53594,0,0,0-19.57459,10.447,63.67754,63.67754,0,0,0-15.51013,18.874,86.63726,86.63726,0,0,0-9.04993,26.01965,91.04572,91.04572,0,0,0-.18347,31.15213q1.4697,6.23523,7.38465,11.725,5.9046,5.49834,12.18652,5.49661,9.97083,0,18.28326-10.62565,8.309-10.62568,13.85181-28.40383a202.51014,202.51014,0,0,0,7.75159-40.49638,248.58569,248.58569,0,0,0,0-46.91027,128.3926,128.3926,0,0,0-5.72284-26.56931q-3.87927-11.17189-7.942-19.97337-4.061-8.79117-7.38458-16.12229a40.78572,40.78572,0,0,1-3.69409-15.0264q-1.10614-6.596,1.84875-10.81118a20.06494,20.06494,0,0,1,7.9386-6.59938,39.24178,39.24178,0,0,1,11.07867-3.29454q6.09669-.91725,11.269-1.28484,7.01075,0,13.84491,6.04972a57.96021,57.96021,0,0,1,12.37347,16.48988,137.97742,137.97742,0,0,1,9.79077,24.37067,169.64944,169.64944,0,0,1,6.08985,29.68521q1.8435,17.58749,2.03222,37.56257a283.035,283.035,0,0,1-2.39929,39.57915,191.6961,191.6961,0,0,1-8.86633,37.74807,121.0724,121.0724,0,0,1-16.985,32.619,89.24821,89.24821,0,0,1-26.9627,24.00308q-16.25968,9.53838-38.77881,11.36084a60.51032,60.51032,0,0,1-10.52472.54965,101.48341,101.48341,0,0,1-10.5282-.91382,52.77634,52.77634,0,0,1-27.51318-13.55948,45.57013,45.57013,0,0,1-10.93677-16.37651c-1.58563,1.625-3.21973,3.23271-4.94037,4.83016a124.23453,124.23453,0,0,1-24.56,17.77472q-13.29959,7.32252-24.00958,7.33111-14.40051,0-23.44867-5.50006-9.05163-5.49316-12.00305-20.523-8.86469,13.934-21.41992,20.523-12.56214,6.596-23.2721,7.33115-18.09293,0-31.20727-9.71186c-6.12091-4.52786-10.542-11.00012-13.46058-19.19009-1.101,1.08557-2.18109,2.17459-3.3374,3.24643a116.56491,116.56491,0,0,1-24.0061,17.22507q-12.93092,6.95667-24.747,6.96353-16.25445,0-27.32623-6.23181a25.795,25.795,0,0,1-13.29786-19.05609q-1.48-9.52808,2.21229-21.80445,3.69231-12.27981,8.129-24.18858,4.43491-11.90364,7.75507-21.62236,3.32364-9.70326,1.10791-14.10915a3.94993,3.94993,0,0,0-4.615-1.2814q-2.77314.91725-5.72626,2.01314-10.7134,3.67415-17.72937,14.84433a115.12176,115.12176,0,0,0-11.63257,25.1024,200.59776,200.59776,0,0,0-7.20459,28.768q-2.58618,14.84606-4.05755,25.83758-.7479,6.967-4.43152,9.34427-3.70268,2.38587-11.08209,2.38416a62.00188,62.00188,0,0,1-19.94159-3.11591q-9.24381-3.10212-12.19-13.37741a89.923,89.923,0,0,1,3.327-26.3838q3.682-13.55778,7.75165-25.83757,4.061-12.27466,7.38806-22.3541,3.32364-10.07943,2.5827-15.94365a17.22148,17.22148,0,0,0-5.16888-.91725,24.87391,24.87391,0,0,0-6.64722.54967q-9.60726,3.30313-16.251,13.37741a102.94086,102.94086,0,0,0-11.07867,22.72168,184.055,184.055,0,0,0-7.01764,26.01965q-2.58618,13.38256-4.43152,22.90377-1.106,5.14274-2.2157,10.99667-1.10613,5.86422-5.90979,7.69528a3.36028,3.36028,0,0,1-1.84527.91382,14.40593,14.40593,0,0,0-2.21573.5531c-.98669,0-2.652.055-4.98541.18207a31.69455,31.69455,0,0,1-7.942-.73517,29.37734,29.37734,0,0,1-9.0499-3.66214,23.338,23.338,0,0,1-7.93853-8.24493,38.17852,38.17852,0,0,1-4.35877-13.4152q-2.60179,2.43741-5.42511,4.80268a118.45686,118.45686,0,0,1-25.11395,16.12228q-13.48654,6.41043-24.93045,6.4173-32.509,0-39.14923-26.02307-1.48-9.15189,2.3992-20.15544,3.87927-10.99155,8.86294-21.80443,4.99059-10.806,8.6829-20.89063,3.68193-10.07427,1.8453-17.40712a7.65417,7.65417,0,0,0-4.80191-6.41044,34.49113,34.49113,0,0,0-9.60382-2.20209q-5.541-.55137-11.07867-.54965a29.0588,29.0588,0,0,1-8.86292-1.09934,163.97994,163.97994,0,0,1-8.67944,24.92034,245.73577,245.73577,0,0,1-12.37351,24.73825,147.57672,147.57672,0,0,1-8.33322,12.9102,59.47957,59.47957,0,0,1-4.0368,8.15906A110.82284,110.82284,0,0,1,314.2565,262.402a113.35812,113.35812,0,0,1-25.66788,18.50647q-14.224,7.50806-28.628,7.1456-21.04771,0-30.83677-12.46015-9.789-12.455-11.26215-30.04937-18.84066-8.43045-39.70319-17.96022a223.90467,223.90467,0,0,0-40.811-14.29123h0L113.3414,243.71008q-8.50114,10.265-16.618,20.15546a234.57737,234.57737,0,0,1-16.071,17.77472,139.19742,139.19742,0,0,1-15.13968,13.19531q-7.20287,5.30256-13.11091,6.77805a14.466,14.466,0,0,1-9.41687-.91382,26.47158,26.47158,0,0,1-7.75853-5.68213,42.11316,42.11316,0,0,1-6.27676-8.61255,47.53531,47.53531,0,0,1-4.248-10.076A30.6654,30.6654,0,0,1,23.22683,263.498a33.09223,33.09223,0,0,1,7.19767-13.5595,121.75731,121.75731,0,0,1,13.29786-13.00639q7.93509-6.77632,17.72933-15.02642a251.067,251.067,0,0,0,20.499-19.60577,46.407,46.407,0,0,0-6.28022-.36758,68.50136,68.50136,0,0,1-7.2046-.36759,46.70324,46.70324,0,0,1-6.46024-1.09588,5.7959,5.7959,0,0,1-4.06449-2.93384q-5.53587-9.16219-3.50709-16.85745a26.0351,26.0351,0,0,1,8.309-13.19535,41.348,41.348,0,0,1,14.9562-8.24493,45.94417,45.94417,0,0,1,16.06753-2.38417,94.81929,94.81929,0,0,1,22.89822,4.03316q21.04773-29.32107,40.811-57.718Q177.2307,74.76957,195.33046,42.513a79.49412,79.49412,0,0,0-17.35889-3.48005,132.9263,132.9263,0,0,0-18.09631-.5531,273.14123,273.14123,0,0,0-43.95114,4.21866q-21.42165,3.8442-37.66747,11.90707-16.25968,8.06457-25.114,20.523Q44.278,87.59389,46.86247,105.17794a26.1563,26.1563,0,0,0,2.21574,7.69871,26.529,26.529,0,0,0,2.95661,4.76489q1.46967,1.83964,2.76621,3.29453a10.78785,10.78785,0,0,1,2.0357,3.669,9.95771,9.95771,0,0,1-1.85221,7.8808,22.77216,22.77216,0,0,1-6.46025,5.86076,28.56534,28.56534,0,0,1-8.67944,3.48349,38.73047,38.73047,0,0,1-8.49249,1.09934,11.26554,11.26554,0,0,1-5.91324,2.92694,15.06172,15.06172,0,0,1-7.38463-.36415,18.57772,18.57772,0,0,1-7.01764-4.02971,19.112,19.112,0,0,1-5.17235-8.06287,52.32846,52.32846,0,0,1-3.13665-7.6987,55.75043,55.75043,0,0,1-2.03224-9.15876Q-2.628,87.958,9.929,66.14846,22.48075,44.3509,48.34078,29.61651,74.187,14.889,111.86655,7.44449,149.53749.00859,196.06789,0Zm1029.3065,8.79838a41.55658,41.55658,0,0,1,5.35242.36415,49.3486,49.3486,0,0,1,24.0061,10.07944q8.67243,6.41559,10.1543,14.10915a13.19872,13.19872,0,0,1-1.10791,8.05943,46.36042,46.36042,0,0,1-4.79847,8.0663,147.35218,147.35218,0,0,0-11.44909,20.33751q-6.28876,13.0167-12.7439,29.68522-6.46032,16.68054-12.37,35.18185-5.915,18.515-10.89527,36.28459-4.98542,17.77817-8.1289,33.34735a166.3112,166.3112,0,0,0-3.50708,26.56931,73.24688,73.24688,0,0,0-.37049,7.33113,19.99784,19.99784,0,0,0,1.11133,6.778,9.96255,9.96255,0,0,0,3.69055,4.947c1.72071,1.22987,4.18567,1.8345,7.38819,1.8345q6.27831,0,13.10742-5.68214,6.834-5.6787,16.07092-17.77471h0l1.84534-12.82432q1.10615-11.72844,3.69409-28.03623,2.57574-16.29923,6.46021-34.268,3.88439-17.94821,9.42028-36.28117a252.08673,252.08673,0,0,1,12.92749-34.07908,152.5047,152.5047,0,0,1,16.43445-27.67208q9.04652-11.90878,20.12854-17.40713a44.23871,44.23871,0,0,1,11.99964,1.8345,48.70315,48.70315,0,0,1,12.37341,5.49319,43.59583,43.59583,0,0,1,10.15784,8.616,23.3053,23.3053,0,0,1,5.35583,11.53948q.73737,4.04519-1.66186,9.71529a26.00153,26.00153,0,0,1-6.46363,9.34426q-8.86469,9.53322-17.35888,28.40382a428.42907,428.42907,0,0,0-15.69373,40.493,413.87868,413.87868,0,0,0-11.823,42.88054,272.1301,272.1301,0,0,0-5.72278,35.54944c-.24926,2.1952-.43274,4.21522-.55395,6.04628a17.33083,17.33083,0,0,0,.187,4.57938,13.42716,13.42716,0,0,0,3.1366,7.33113q2.39922,2.57139,7.57153,2.56623a27.15524,27.15524,0,0,0,14.21887-4.40074q7.20282-4.40073,16.80493-15.02639c.65088-.64243,1.34327-1.40851,2.06336-2.26049a84.15816,84.15816,0,0,1,3.84289-28.88821,118.59844,118.59844,0,0,1,17.35889-34.81426,100.17621,100.17621,0,0,1,26.77576-25.6555q15.325-9.89393,31.57776-9.89049a32.59849,32.59849,0,0,1,17.72924,5.12905,44.98234,44.98234,0,0,1,11.81617-1.83451q15.51177,0,24.193,8.43045a46.04341,46.04341,0,0,1,12.18652,20.33753,71.62817,71.62817,0,0,1,2.58618,25.2879,68.2538,68.2538,0,0,1-5.35583,23.27135,14.41954,14.41954,0,0,0,9.97424,4.03314,17.02249,17.02249,0,0,0,12.924-5.49663q5.16724-5.49832,11.45264-12.82774,3.68188-4.40073,5.53931-4.40074a12.31047,12.31047,0,0,1,6.83068,3.1159,11.43226,11.43226,0,0,1,3.14014,5.68213,29.64744,29.64744,0,0,1-2.40271,13.00984,40.41156,40.41156,0,0,1-8.12207,12.46016,44.43687,44.43687,0,0,1-12.7439,9.34427,34.458,34.458,0,0,1-15.51367,3.66556,45.24582,45.24582,0,0,1-9.78723-1.10277,31.67045,31.67045,0,0,1-9.78381-4.02971,149.79586,149.79586,0,0,1-12.74744,18.14231,97.38881,97.38881,0,0,1-17.35547,16.6754,95.26007,95.26007,0,0,1-21.60339,12.09256,65.64124,65.64124,0,0,1-24.74353,4.76489,54.99821,54.99821,0,0,1-20.68591-3.85108,61.89612,61.89612,0,0,1-17.17542-10.25808,56.758,56.758,0,0,1-12.55347-15.0264c-.19043-.3298-.33935-.67334-.51928-1.00314a99.43753,99.43753,0,0,1-10.376,9.24807,107.09324,107.09324,0,0,1-26.03479,14.84433,73.20623,73.20623,0,0,1-27.14966,5.67871,39.86575,39.86575,0,0,1-22.34082-6.41043,32.67527,32.67527,0,0,1-13.48132-17.77472,95.73789,95.73789,0,0,1-27.14624,18.874q-15.33014,7.1422-29.36194,7.14218a42.58791,42.58791,0,0,1-11.44568-1.64554,35.71423,35.71423,0,0,1-10.89856-5.13248,32.5596,32.5596,0,0,1-8.676-9.1622,33.047,33.047,0,0,1-4.80188-13.74154c-.02771-1.17493-.04505-2.38419-.05542-3.614a105.55927,105.55927,0,0,1-9.1814,8.37549,134.16808,134.16808,0,0,1-25.29749,16.12573q-13.48662,6.59592-24.56347,6.59937-16.61811,0-23.44873-6.59937-6.82892-6.59595-9.04993-20.88717a137.87089,137.87089,0,0,1-1.29126-18.50647,224.1813,224.1813,0,0,1,1.10779-24.92032,246.25043,246.25043,0,0,1,4.248-27.30449,134.39218,134.39218,0,0,1,7.93847-25.47,71.58492,71.58492,0,0,1,12.00305-19.42369,27.33532,27.33532,0,0,1,16.618-9.34427,45.62,45.62,0,0,1,16.62146.73173q7.01586,1.83966,9.60034,5.49663a19.93719,19.93719,0,0,1,3.327,6.967,60.3207,60.3207,0,0,1-.55383,12.6388,74.30169,74.30169,0,0,1-2.95666,11.72842q-2.03577,6.04458-4.61841,13.00983-2.58618,6.967-5.53931,16.8609-2.58618,8.43045-5.53943,19.60579a118.55994,118.55994,0,0,0-3.694,22.90374q.74268,5.8642,7.02112,5.86422,7.75323,0,18.27637-9.71529c6.39441-5.88826,13.04858-12.69034,19.94848-20.3066h0v-.03091q1.28779-23.08584,4.24793-48.37375,2.94965-25.29135,7.9386-51.12549a379.75683,379.75683,0,0,1,12.37341-48.00616,191.84121,191.84121,0,0,1,17.359-38.66533q9.97595-16.48988,22.89819-23.08926A20.19181,20.19181,0,0,1,1225.37439,8.79838Zm197.21411,149.522A45.40162,45.40162,0,0,0,1407.075,169.3136a77.82491,77.82491,0,0,0-12.55347,17.41057,92.89764,92.89764,0,0,0-7.942,20.34094,49.38928,49.38928,0,0,0-1.29138,20.15544,60.04093,60.04093,0,0,0,2.21569,9.34427,38.42732,38.42732,0,0,0,3.6941,8.2415,19.2043,19.2043,0,0,0,5.72277,6.05316,13.789,13.789,0,0,0,7.942,2.37729,24.83131,24.83131,0,0,0,14.21875-5.31111,45.61443,45.61443,0,0,0,11.07874-12.46016,65.28447,65.28447,0,0,0,7.20117-16.8609,69.13,69.13,0,0,0,2.5896-18.50646,36.16008,36.16008,0,0,1-5.54285-6.22836,75.24087,75.24087,0,0,1-5.53931-8.798,66.64647,66.64647,0,0,1-4.43151-10.076,55.37147,55.37147,0,0,1-2.58619-10.447,8.18626,8.18626,0,0,1,0-3.48005A25.43673,25.43673,0,0,1,1422.5885,158.32034Zm-597.19342-.36448q-1.85394-2.56624-8.496-1.83107-9.97083,2.19522-18.65027,11.3574a88.8113,88.8113,0,0,0-14.7727,21.25476,119.09887,119.09887,0,0,0-9.23334,24.55619q-3.14191,12.46532-2.03229,21.25476,1.11136,7.338,4.43146,10.076a13.47314,13.47314,0,0,0,8.86645,2.75176q7.75333-.36072,12.37348-3.11591a21.132,21.132,0,0,0,7.38458-7.32768,41.93682,41.93682,0,0,0,4.43494-10.62911q1.65664-6.04972,3.50708-12.64567,2.94974-14.28951,6.09332-28.03279Q822.43319,171.88122,825.39508,157.95586ZM224.50891,74.761q-13.67352,26.38894-29.36194,52.5924-15.704,26.20346-33.423,51.48964,27.695,10.63081,53.55152,22.72168.73743-32.248,2.95315-64.68155Q220.44616,104.44449,224.50891,74.761Z" style="fill:#ff7043;fill-rule:evenodd"/><path d="M1127.537,72.8856c-4.09217,10.56727-15.97058,17.07046-29.89514,17.88465,5.72973-6.5032,16.78772-13.81714,29.89514-17.88465M1104.60071,114.337c21.71069,0,38.90686-16.25284,38.90686-24.381,0-10.16189-4.09216-15.85433-8.19129-18.69539a54.17336,54.17336,0,0,1,19.66114.81418c.81714-2.84794-2.86658-25.19859-32.36011-25.19859-24.15491,0-41.77344,19.915-41.77344,34.94823a20.451,20.451,0,0,0,1.229,6.90857c-.82044,5.69245,1.229,25.604,22.52783,25.604" style="fill:#ff7043;fill-rule:evenodd"/></svg>