<svg xmlns="http://www.w3.org/2000/svg" viewBox="0 0 15 19"><path d="M3.85345.27376q.65131.54634,2.33379,1.829Q7.869,3.38493,9.68793,4.80518q1.81777,1.41909,3.33786,2.64788,1.51888,1.2284,1.95385,1.61057a2.05083,2.05083,0,0,1-.97692,1.96543,10.15379,10.15379,0,0,1-2.87653,1.47408,24.92,24.92,0,0,0-2.36093,1.556Q7.54411,14.95877,6.32294,15.86q-1.22118.902-2.44234,1.74783A17.17746,17.17746,0,0,1,1.51967,19a1.70849,1.70849,0,0,1-.75983-.41025A2.47156,2.47156,0,0,1,.2171,17.8535a1.94182,1.94182,0,0,1-.16282-.57326A4.17526,4.17526,0,0,1,0,16.65239a5.08736,5.08736,0,0,1,1.41113-2.3749q1.13975-1.17341,2.65943-2.48409a10.01637,10.01637,0,0,1,1.791-1.33759q.97693-.57442,1.79105-1.01Q6.67572,8.62686,5.69878,7.726A24.104,24.104,0,0,1,3.90773,5.89709q-.81411-.92774-1.43826-1.77435a5.61448,5.61448,0,0,1-.84125-1.50138A3.22568,3.22568,0,0,1,2.03528.81971,1.37723,1.37723,0,0,1,3.25644,0a.83051.83051,0,0,1,.597.27376" style="fill-rule:evenodd;fill:#fff"/></svg>