<svg xmlns="http://www.w3.org/2000/svg" viewBox="0 0 28.10059 45.35605"><path d="M20.195,41.3828C39.18047,14.24026,13.0533,1.331,12.54021,1c0,0-21.7641,10.75771-5.51529,39.72079" style="fill:#fff"/><path d="M18.76943,45.35605C35.28356,18.79086,13.96559,4.9715,13.51928,4.64752c0,0-18.54587,11.96585-4.41214,40.31285" style="fill:#ff7043"/><path d="M12.88784,41.38283c-.93872-.06641,11.60681-17.347,1.6759-35.10791L12.21846,1.436C28.42684,11.80051,29.716,27.183,20.195,42.73383Z" style="fill:#d84315"/><path d="M20.195,42.73381C39.18047,14.68323,13.0533,1.34207,12.54021,1c0,0-21.7641,11.11761-5.51529,41.04965" style="fill:none;stroke:#3f3350;stroke-linecap:round;stroke-linejoin:round;stroke-width:2px"/><path d="M12.01177,40.90056a46.43465,46.43465,0,0,0,3.61914-9.25647,44.54037,44.54037,0,0,0,1.56918-9.86563,33.58911,33.58911,0,0,0-1.00732-9.91895l-.67636-2.413-.9513-2.31934c-.16305-.38486-.30713-.77948-.48575-1.15713l-.61383-1.09494-1.228-2.19477-.02426-.04336a.40462.40462,0,0,1,.70019-.40555l1.32666,2.21419.66354,1.10952c.19529.38318.356.784.53574,1.17557l1.05051,2.36658.77276,2.4722a34.84742,34.84742,0,0,1,1.34269,10.24365,46.08925,46.08925,0,0,1-1.32642,10.25961A48.0367,48.0367,0,0,1,13.76384,41.865a1.00012,1.00012,0,0,1-1.79242-.88782l.01123-.02194Z" style="fill:#3f3350"/><path d="M9.50917,41.24025a28.91788,28.91788,0,0,0,.28852-5.48764,36.6833,36.6833,0,0,0-.68637-5.52393A47.82133,47.82133,0,0,0,7.67824,24.806a44.81126,44.81126,0,0,0-2.06546-5.2138l-.00955-.02a.5535.5535,0,0,1,.98913-.49655A45.84262,45.84262,0,0,1,8.93364,24.3651a49.25139,49.25139,0,0,1,1.69516,5.53A38.35129,38.35129,0,0,1,11.571,35.64a30.78935,30.78935,0,0,1-.08224,5.88535,1.00034,1.00034,0,0,1-1.99045-.20209l.00388-.03287Z" style="fill:#3f3350"/></svg>