<?xml version="1.0" encoding="utf-8"?>
<!-- Generator: Adobe Illustrator 25.3.1, SVG Export Plug-In . SVG Version: 6.00 Build 0)  -->
<svg version="1.1" id="Layer_1" xmlns="http://www.w3.org/2000/svg" xmlns:xlink="http://www.w3.org/1999/xlink" x="0px" y="0px"
	 viewBox="0 0 162 119" style="enable-background:new 0 0 162 119;" xml:space="preserve">
<style type="text/css">
	.st0{fill-rule:evenodd;clip-rule:evenodd;fill:#FFFFFF;}
	.st1{fill-rule:evenodd;clip-rule:evenodd;fill:#FF7043;}
	.st2{fill-rule:evenodd;clip-rule:evenodd;fill:#3F3350;}
	.st3{fill:none;stroke:#3F3350;stroke-width:1.6;stroke-linecap:round;stroke-linejoin:round;}
	.st4{fill-rule:evenodd;clip-rule:evenodd;fill:#D84315;}
</style>
<g id="Symbols">
	<g id="Footer" transform="translate(-51.000000, -663.000000)">
		
			<g id="Group-79" transform="translate(131.500000, 723.000000) rotate(-6.000000) translate(-131.500000, -723.000000) translate(56.000000, 672.000000)">
			<path id="Fill-5" class="st0" d="M7.4,37.5c17.7-10.2,32.8-9,47.7-6.5c14.9,2.5,53.3,15.2,93.5,18.2c3.9,0.3,1.2,9.3-0.2,12.1
				c-4.6,9.1-30.4,15-30.4,15s-57,6-85.5,19.5c-3.5,1.7-6.6,3.5-9.2,5.4l-5.9-5"/>
			<path id="Fill-7" class="st1" d="M6.1,37.5c16.9-10.9,32.6-5.8,47.9-3c14.8,2.7,59.4,16.4,94.7,16.2c3.9,0,1.9,3.8,1.1,7.7
				c-1.9,9.4-33,18.8-33,18.8S34.2,86.6,21.8,102C-0.7,93.7-5.5,68.7,6.1,37.5"/>
			<path id="Fill-9" class="st2" d="M113,64.1c0.7,0.6,1.4,1.3,2.1,1.8c0.7,0.6,1.5,1.1,2.3,1.6c1.6,1,3.3,1.8,5,2.4
				c0.4,0.1,0.9,0.3,1.3,0.4l1.3,0.3c0.4,0.1,0.9,0.1,1.4,0.2l0.7,0.1l0.7,0c0.5,0,0.9,0,1.4,0l1.4-0.2c0.5,0,0.9-0.1,1.4-0.3
				c0.4-0.1,0.9-0.2,1.4-0.3l0.1,0c0.4-0.1,0.9,0.2,1,0.6c0.1,0.4-0.1,0.8-0.5,1c-1.9,0.7-3.9,1.2-6,1.2c-2,0-4.1-0.3-6-1
				c-1.9-0.7-3.7-1.6-5.4-2.8c-1.6-1.2-3.1-2.5-4.4-4.1c-0.2-0.3-0.2-0.7,0.1-0.9C112.4,63.8,112.7,63.8,113,64.1L113,64.1z"/>
			<path id="Fill-11" class="st2" d="M108.1,63.3c0.6,0.3,1.5,0.6,2.2,0.7c0.8,0.1,1.4,0,2-0.3c0.5-0.3,1-0.8,1.3-1.5
				c0.2-0.3,0.3-0.7,0.5-1.1c0.1-0.4,0.3-0.8,0.4-1.1l0-0.1c0.1-0.3,0.4-0.4,0.7-0.3c0.2,0.1,0.3,0.3,0.3,0.5c0,0.5-0.1,0.9-0.1,1.4
				c-0.1,0.4-0.2,0.9-0.4,1.3c-0.4,0.9-1.1,1.8-2,2.2c-1,0.5-2.1,0.4-3,0.1c-0.5-0.2-0.9-0.4-1.2-0.7c-0.4-0.3-0.7-0.5-1-1
				c-0.1-0.1,0-0.2,0.1-0.3C107.9,63.2,108,63.2,108.1,63.3L108.1,63.3z"/>
			<path id="Stroke-13" class="st3" d="M7.4,37.5c8.3-4.8,16-7.1,23.4-7.9c8.4-0.9,16.4,0,24.3,1.3c14.9,2.5,53.3,15.2,93.5,18.2
				c3.9,0.3,1.3,8.8-0.2,12.1c-3.3,7.3-30.4,15-30.4,15s-57,6-85.5,19.5c-3.5,1.7-6.6,3.5-9.2,5.4"/>
			<path id="Fill-15" class="st2" d="M146.1,53.9c0.3,1.2-0.2,2.4-1,2.6c-0.8,0.2-1.7-0.6-2-1.8c-0.3-1.2,0.2-2.4,1-2.6
				C145,51.9,145.9,52.7,146.1,53.9"/>
			<path id="Fill-17" class="st2" d="M142.7,56.6c0.3,1.2-0.2,2.4-1,2.6c-0.8,0.2-1.7-0.6-2-1.8c-0.3-1.2,0.2-2.4,1-2.6
				C141.5,54.5,142.4,55.3,142.7,56.6"/>
			<path id="Fill-19" class="st4" d="M104.3,50.5c0.6,0.2,1.2,0,1.3-0.3c0.1-0.4-0.2-0.9-0.8-1.1c-0.6-0.2-1.2,0-1.3,0.3
				C103.3,49.8,103.7,50.3,104.3,50.5"/>
			<path id="Fill-21" class="st4" d="M114.3,49.9c0.3,0.1,0.7-0.1,0.8-0.5c0.1-0.4,0-0.8-0.3-0.9c-0.3-0.1-0.7,0.1-0.8,0.5
				C113.9,49.4,114,49.8,114.3,49.9"/>
			<path id="Fill-23" class="st4" d="M71.3,47.6c-0.8,0.2-1.1,0.7-0.8,1.1c0.3,0.4,1.2,0.7,2,0.5c0.8-0.2,1.1-0.7,0.8-1.1
				C73,47.7,72.1,47.4,71.3,47.6"/>
			<path id="Fill-25" class="st4" d="M47.6,45.5c-0.3-0.1-0.6,0.1-0.8,0.5c-0.1,0.4,0,0.8,0.3,0.9s0.6-0.1,0.8-0.5
				C48.1,46,47.9,45.6,47.6,45.5"/>
			<path id="Fill-27" class="st4" d="M44.9,35.6c-0.3-0.7-1-1-1.4-0.7c-0.5,0.3-0.6,1-0.3,1.7c0.3,0.7,1,1,1.4,0.7
				S45.2,36.3,44.9,35.6"/>
			<path id="Fill-29" class="st4" d="M79.2,43c0-0.3-1.2-0.9-2.8-1.2c-1.6-0.3-2.9-0.3-2.9,0.1c0,0.3,1.2,0.9,2.8,1.2
				C77.9,43.3,79.2,43.3,79.2,43"/>
			<path id="Fill-31" class="st4" d="M40.5,36.7c0.1-0.3-0.3-0.6-0.8-0.7c-0.5-0.1-0.9,0-1,0.2c-0.1,0.3,0.3,0.6,0.8,0.7
				C40,37,40.5,36.9,40.5,36.7"/>
			<path id="Fill-33" class="st4" d="M57.8,47.5c0.4,0,0.7-0.5,0.6-1.1c-0.1-0.6-0.5-1.1-1-1.1c-0.4,0-0.7,0.5-0.6,1.1
				C57,47,57.4,47.4,57.8,47.5"/>
			<path id="Fill-35" class="st4" d="M44.2,43.2c0.6,0,1.1-0.3,1-0.8c-0.1-0.4-0.6-0.8-1.2-0.8c-0.6,0-1.1,0.3-1,0.8
				C43,42.8,43.5,43.2,44.2,43.2"/>
			<path id="Fill-37" class="st4" d="M54,42.5c0.3,0,0.5-0.3,0.4-0.8c-0.1-0.4-0.4-0.8-0.7-0.8c-0.3,0-0.5,0.3-0.4,0.8
				C53.4,42.2,53.7,42.5,54,42.5"/>
			<path id="Fill-39" class="st4" d="M35.9,40.6c-0.4,0-0.7,0.5-0.6,1.1c0.1,0.6,0.9,3.7,1.4,3.7c0.4,0,0.3-3.1,0.2-3.7
				C36.8,41.1,36.3,40.6,35.9,40.6"/>
			<path id="Fill-41" class="st4" d="M65.1,45.3c0.1,0.4,0.7,0.7,1.4,0.6c0.7,0,1.2-0.4,1.1-0.8c-0.1-0.4-0.7-0.7-1.4-0.6
				C65.5,44.6,65,44.9,65.1,45.3"/>
			<path id="Fill-43" class="st4" d="M64.8,40c-0.1-0.5-0.6-0.9-1.1-0.9c-0.5,0-0.8,0.5-0.6,1c0.1,0.5,0.6,0.9,1.1,0.9
				C64.7,41,64.9,40.5,64.8,40"/>
			<path id="Fill-45" class="st4" d="M52.6,38.1c0.8,0.1,1.3-0.2,1.1-0.8c-0.2-0.5-0.9-1.1-1.7-1.2c-0.8-0.1-1.3,0.2-1.1,0.8
				C51.1,37.4,51.9,38,52.6,38.1"/>
			<path id="Fill-47" class="st4" d="M90.4,47.5c-0.4-0.2-0.8,0.2-1,0.8c-0.1,0.6,0.1,1.2,0.5,1.4c0.4,0.2,0.8-0.2,1-0.8
				C91.1,48.3,90.8,47.7,90.4,47.5"/>
			<path id="Fill-49" class="st4" d="M98.8,45.3c-0.3-0.1-0.6,0.1-0.7,0.6c-0.1,0.4,0.1,0.9,0.4,1c0.3,0.1,0.6-0.1,0.7-0.6
				C99.2,45.8,99,45.4,98.8,45.3"/>
			<path id="Fill-51" class="st4" d="M90.2,44.2c0-0.4-0.4-0.9-1.1-1.1c-0.7-0.2-1.2-0.1-1.3,0.3c0,0.4,0.4,0.9,1.1,1.1
				C89.6,44.7,90.2,44.6,90.2,44.2"/>
			<path id="Fill-53" class="st4" d="M80,48.2c-0.1,0.6,0.3,1.1,0.7,1.2c0.5,0.1,0.9-0.2,0.9-0.7c0.1-0.5-0.3-1.1-0.7-1.2
				C80.5,47.4,80.1,47.7,80,48.2"/>
			<path id="Fill-55" class="st4" d="M28.6,41.7c-0.2-2.9-3.8,3.7,8.4,4.7c17.5,1.5,28.9-1.1,80.2,8.6l-0.3,1.8
				C63.9,51.1,30,65.4,28.6,41.7"/>
			<path id="Fill-57" class="st2" d="M117.1,55.4c-7.5-1.6-15-2.9-22.5-4c-7.6-1.1-15.1-1.9-22.8-2.3c-3.8-0.2-7.6-0.3-11.4-0.4
				c-3.8,0-7.6,0-11.5-0.1c-3.8-0.1-7.7-0.3-11.6-1.1c-1.9-0.4-3.8-0.9-5.6-1.7c-0.9-0.4-1.9-1-2.6-1.8c-0.8-0.8-1.2-2-1.2-3.1v0
				c0-0.3,0.3-0.6,0.6-0.6c0.3,0,0.5,0.2,0.6,0.5c0.3,1.7,1.6,2.6,3.3,3.3c1.7,0.6,3.5,1.1,5.3,1.5c3.6,0.8,7.4,1.1,11.2,1.2
				c3.8,0.1,7.6,0.1,11.5,0.2c3.8,0.1,7.7,0.2,11.5,0.5c7.7,0.5,15.3,1.4,22.9,2.6c7.6,1.2,15.1,2.8,22.5,4.6c0.2,0,0.3,0.2,0.3,0.4
				C117.5,55.3,117.3,55.4,117.1,55.4"/>
			<path id="Fill-59" class="st0" d="M55,69.6c4.4,0.2,8.1-3.1,8.3-7.5c0.2-4.3-3.2-8-7.6-8.3c-4.4-0.2-8.1,3.1-8.3,7.5
				C47.2,65.7,50.6,69.4,55,69.6"/>
			<path id="Fill-61" class="st2" d="M55,69.3c3-0.1,5.7-2.1,6.8-4.6c1.1-2.6,0.5-5.7-1.3-7.6c-0.5-0.5-1-0.9-1.6-1.3
				c-0.6-0.3-1.2-0.6-1.9-0.8c-1.3-0.3-2.7-0.3-4,0.1c-2.6,0.8-4.7,3.3-5,6.2l0,0c0,0.3-0.3,0.5-0.6,0.5c-0.3,0-0.5-0.3-0.5-0.5
				c0-0.8,0.1-1.7,0.3-2.5c0.3-0.8,0.6-1.6,1.1-2.3c1-1.4,2.4-2.5,4-3.1c0.8-0.3,1.7-0.5,2.5-0.5c0.9,0,1.7,0,2.6,0.2
				c0.8,0.2,1.7,0.5,2.4,1c0.7,0.5,1.4,1,2,1.6c0.6,0.7,1.1,1.4,1.5,2.2c0.4,0.8,0.6,1.6,0.7,2.5c0.1,0.9,0.1,1.7,0,2.6
				c-0.2,0.9-0.4,1.7-0.8,2.5c-0.4,0.8-0.9,1.5-1.5,2.1c-0.6,0.6-1.3,1.1-2,1.5c-1.5,0.8-3.2,1.1-4.8,0.8c-0.1,0-0.2-0.1-0.2-0.3
				C54.8,69.4,54.9,69.3,55,69.3"/>
			<path id="Fill-65" class="st2" d="M139.9,62.6c-0.2,0-0.4,0-0.4-0.1c-0.1,0-0.2-0.1-0.3-0.1c-0.2-0.1-0.4-0.2-0.6-0.3
				c-0.4-0.2-0.7-0.4-1-0.7c-0.7-0.5-1.3-1.1-1.7-1.8c-0.5-0.7-0.8-1.6-0.8-2.6c0-1,0.4-1.8,0.8-2.6c0.3-0.5,0.9-0.7,1.3-0.4
				c0.5,0.3,0.7,0.9,0.4,1.3c0,0,0,0.1-0.1,0.1l-0.1,0.1c-0.4,0.5-0.7,1.1-0.8,1.6c-0.1,0.6,0,1.2,0.3,1.8c0.3,0.6,0.7,1.2,1.2,1.7
				c0.3,0.2,0.5,0.5,0.8,0.7c0.1,0.1,0.3,0.2,0.4,0.3c0.1,0.1,0.3,0.2,0.3,0.2c0.2,0,0.4,0.1,0.4,0.3
				C140.3,62.4,140.1,62.6,139.9,62.6"/>
		</g>
	</g>
</g>
</svg>
