<?xml version="1.0" encoding="utf-8"?>
<!-- Generator: Adobe Illustrator 25.3.1, SVG Export Plug-In . SVG Version: 6.00 Build 0)  -->
<svg version="1.1" xmlns="http://www.w3.org/2000/svg" xmlns:xlink="http://www.w3.org/1999/xlink" x="0px" y="0px"
	 viewBox="0 0 25 43" style="enable-background:new 0 0 25 43;" xml:space="preserve">
<style type="text/css">
	.st0{fill-rule:evenodd;clip-rule:evenodd;fill:#FF7043;}
	.st1{fill:none;stroke:#3F3350;stroke-width:1.9852;stroke-linecap:round;stroke-linejoin:round;}
	.st2{fill-rule:evenodd;clip-rule:evenodd;fill:#3F3350;}
	.st3{fill-rule:evenodd;clip-rule:evenodd;fill:#D84315;}
	.st4{display:none;}
	.st5{display:inline;fill:none;stroke:#3F3350;stroke-width:1.9922;stroke-linecap:round;stroke-linejoin:round;}
</style>
<g id="Layer_1">
	<path class="st0" d="M23.1,22c0,6.1-3.6,11.1-8.1,11.1s-8.1-5-8.1-11.1s4.7-10.3,9.2-10.3S23.1,15.9,23.1,22"/>
	<path class="st1" d="M11.9,1.1V0.8L9,10.4c-6,2-9.4,8.5-7.4,14.7S10,34.6,16,32.6c6-2,9.4-8.5,7.4-14.7c-1.2-3.6-4-6.5-7.6-7.6"/>
	<path class="st2" d="M13.7,6.7L11,1.5c-0.3-0.5-0.1-1.1,0.4-1.4c0.5-0.3,1.1-0.1,1.3,0.4l0,0c0,0,0,0.1,0.1,0.1l1.9,5.6
		c0.1,0.3-0.1,0.6-0.4,0.7C14.1,7.1,13.8,7,13.7,6.7"/>
	<path class="st3" d="M14.2,26.4c-0.2,0.5-0.9,0.6-1.5,0.2c-0.6-0.3-0.9-1-0.8-1.7c0.2-0.5,0.9-0.6,1.5-0.2
		C14,25.1,14.3,25.8,14.2,26.4"/>
	<path class="st3" d="M15,21.5c-0.2,0.4-0.6,0.4-1.1,0.1c-0.4-0.2-0.6-0.7-0.5-1.2c0.2-0.4,0.6-0.4,1.1-0.1
		C14.9,20.6,15.1,21.1,15,21.5"/>
</g>
<g id="Layer_2" class="st4">
	<path class="st5" d="M9,10.1c-6,2-9.4,8.6-7.4,14.8S10,34.4,16,32.4c6-2,9.4-8.6,7.4-14.8c-1.2-3.7-4-6.5-7.6-7.6"/>
</g>
</svg>
