<?xml version="1.0" encoding="utf-8"?>
<!-- Generator: Adobe Illustrator 25.3.1, SVG Export Plug-In . SVG Version: 6.00 Build 0)  -->
<svg version="1.1" id="Layer_1" xmlns="http://www.w3.org/2000/svg" xmlns:xlink="http://www.w3.org/1999/xlink" x="0px" y="0px"
	 viewBox="0 0 76.5 135.3" style="enable-background:new 0 0 76.5 135.3;" xml:space="preserve">
<style type="text/css">
	.st0{fill:#00A4A7;}
	.st1{fill:#3F3350;}
	.st2{fill:#00647E;}
</style>
<path class="st0" d="M76,43.5c0.1-5.9-1.5-11.7-4.5-16.8C70.2,13.5,61.6,3.3,51.2,3.3c-2.5,0-5,0.6-7.3,1.8
	C40.4,2.7,36.3,1.3,32.1,1C19,0.1,7.8,9.6,7.1,22.3c0,0.6,0,1.2,0,1.7c-4.3,5.6-6.6,12.4-6.5,19.5c-0.1,7,2.1,13.8,6.4,19.4
	c0.3,14.4,9.3,26,20.4,26c2.9,0,5.8-0.8,8.3-2.3c7.5,6.4,19.1,5.4,27.5-3c6.2-6.1,9.2-14.7,8.2-23.3C74.5,55.3,76.1,49.4,76,43.5z"
	/>
<path class="st1" d="M51.2,4c-2.4,0-4.8,0.6-7,1.7l0,0c-0.2,0.1-0.5,0.1-0.7,0l0,0C40,3.5,36,2.2,31.9,1.9
	c-4.1-0.3-8.2,0.6-11.8,2.4c-3.7,1.8-6.7,4.6-8.9,8.1C9,15.9,7.8,19.9,7.8,24l0,0l0,0c0,0.2-0.1,0.3-0.2,0.4
	c-2.1,2.6-3.8,5.7-4.8,8.9C0.7,39.9,0.7,47,2.7,53.6c1,3.3,2.6,6.3,4.7,9c0.2,0.2,0.1,0.5-0.1,0.7c-0.2,0.2-0.5,0.1-0.7-0.1
	c-2.2-2.8-3.9-5.9-5-9.3C-0.5,47.1-0.5,39.8,1.6,33c1.1-3.4,2.7-6.6,4.9-9.4L6.4,24v0c-0.1-2.2,0.1-4.4,0.6-6.5
	c0.6-2.1,1.4-4.2,2.5-6.1c2.3-3.8,5.7-6.9,9.6-8.9c8.1-4,17.7-3.2,25.1,1.9l-0.7,0l0,0c2.4-1.2,5-1.8,7.6-1.8c0.4,0,0.7,0.3,0.7,0.7
	S51.6,4,51.2,4L51.2,4z"/>
<path class="st1" d="M43.6,89.9c3.8,0.6,7.6,0.1,11.1-1.5c3.5-1.6,6.6-3.9,9.1-6.8c2.5-2.9,4.4-6.2,5.6-9.9
	c1.2-3.6,1.7-7.5,1.4-11.3l0,0c0-0.1,0-0.3,0.1-0.4c3-5,4.6-10.7,4.6-16.5c0.1-5.8-1.4-11.6-4.4-16.6c-0.1-0.2-0.1-0.5,0.1-0.6
	c0.2-0.1,0.4-0.1,0.6,0.1c3.1,5.1,4.7,11,4.7,17.1c0.1,6-1.5,12-4.6,17.2l0.1-0.4c0.7,4,0.4,8.2-0.8,12.1c-1.2,3.9-3.2,7.5-5.9,10.6
	c-2.7,3.1-6.1,5.5-9.9,7.1c-3.8,1.6-8,1.9-12,1c-0.3-0.1-0.5-0.4-0.4-0.7C43,90,43.3,89.8,43.6,89.9L43.6,89.9z"/>
<path class="st1" d="M40.2,62.2l0.1,72.1c0,0.6-0.4,1-1,1s-1-0.4-1-1v0l0.1-72.1c0-0.5,0.4-0.9,0.9-0.9
	C39.8,61.3,40.2,61.7,40.2,62.2L40.2,62.2L40.2,62.2z"/>
<ellipse transform="matrix(0.9661 -0.2583 0.2583 0.9661 -8.4401 11.1517)" class="st2" cx="38.2" cy="37.7" rx="2" ry="2.4"/>
<ellipse transform="matrix(0.9661 -0.2583 0.2583 0.9661 -6.5822 7.0516)" class="st2" cx="23.5" cy="28.6" rx="1.4" ry="1.7"/>
<ellipse transform="matrix(0.9621 -0.2729 0.2729 0.9621 -5.8138 17.1844)" class="st2" cx="58.9" cy="29.5" rx="3.2" ry="1.5"/>
<ellipse transform="matrix(0.748 -0.6637 0.6637 0.748 -12.1054 50.3637)" class="st2" cx="60.3" cy="41.1" rx="1.6" ry="3.1"/>
<ellipse transform="matrix(0.1737 -0.9848 0.9848 0.1737 15.9041 62.3299)" class="st2" cx="45.1" cy="21.7" rx="2.1" ry="2.2"/>
</svg>
