<svg xmlns="http://www.w3.org/2000/svg" xmlns:xlink="http://www.w3.org/1999/xlink" viewBox="0 0 500 300"><defs><clipPath id="a"><path d="M445.70929,293.47385c-2.95581-4.08326-8.20941-7.66883-13.72449-9.744-5.15631-11.08252-14.17248-19.51123-21.40716-19.51123h-36.4242l5.36408,15.02246C383.41406,290.15366,392.07391,299,398.8598,299h50.84967Z" style="fill:none"/></clipPath><clipPath id="b"><path d="M144.6144,299H108.53054c-8.28563,0-15.00247-7.24515-15.00247-16.1825v-29.545h33.18372c9.88735,0,17.90261,19.59178,17.90261,30.25682Z" style="fill:none"/></clipPath></defs><path d="M402.1142,299H363.31482c-6.78589,0-15.44574-8.84637-19.34229-19.75894l-5.36407-15.02249h36.42416c8.09769,0,18.43155,10.55648,23.08133,23.57855Z" style="fill:#ff7043"/><path d="M402.1142,299H363.31482c-6.78589,0-15.44574-8.84637-19.34229-19.75894l-5.36407-15.02249h36.42416c8.09769,0,18.43155,10.55648,23.08133,23.57855Z" style="fill:none;stroke:#3f3350;stroke-linecap:round;stroke-linejoin:round;stroke-width:2px"/><path d="M152.07542,293.47385a26.57681,26.57681,0,0,0-7.461-6.65271v-3.29187c0-10.665-8.01532-30.25684-17.90265-30.25684H93.52807v28.57068h-.95813l.97559,1.3479c.18579,8.76306,6.81628,15.809,14.985,15.809h47.545Z" style="fill:#ff7043"/><path d="M445.70929,293.47385c-2.95581-4.08326-8.20941-7.66883-13.72449-9.744-5.15631-11.08252-14.17248-19.51123-21.40716-19.51123h-36.4242l5.36408,15.02246C383.41406,290.15366,392.07391,299,398.8598,299h50.84967Z" style="fill:#ff7043"/><g style="clip-path:url(#a)"><path d="M446.13129,265.746c-2.86515,23.32926-19.03647,20.56793-44.29959,22.19971-23.68369,1.52978-45.9412-15.86694-43.34238-39.09306,1.88684-16.86315,25.0051-24.47321,49.91925-18.04465S448.19073,248.977,446.13129,265.746Z" style="fill:#d84315"/></g><path d="M445.70929,293.47385c-2.95581-4.08326-8.20941-7.66883-13.72449-9.744-5.15631-11.08252-14.17248-19.51123-21.40716-19.51123h-36.4242l5.36408,15.02246C383.41406,290.15366,392.07391,299,398.8598,299h50.84967Z" style="fill:none;stroke:#3f3350;stroke-linecap:round;stroke-linejoin:round;stroke-width:2px"/><g style="clip-path:url(#b)"><path d="M158.66719,273.87222c-7.68619,8.52622-45.62637,7.46549-62.93619-2.76767-16.22761-9.59338-14.358-35.31537-5.215-48.441,6.63816-9.52977,24.43139-3.92657,38.93571,11.10762S166.35336,265.346,158.66719,273.87222Z" style="fill:#d84315"/></g><path d="M210.54008,299H171.74072c-6.7859,0-15.44574-8.84637-19.34228-19.75894l-5.36408-15.02249h36.42417c8.09768,0,18.43155,10.55648,23.08134,23.57855Z" style="fill:#ff7043"/><path d="M210.54008,299H171.74072c-6.7859,0-15.44574-8.84637-19.34228-19.75894l-5.36408-15.02249h36.42417c8.09768,0,18.43155,10.55648,23.08134,23.57855Z" style="fill:none;stroke:#3f3350;stroke-linecap:round;stroke-linejoin:round;stroke-width:2px"/><path d="M152.07542,293.47385a26.57681,26.57681,0,0,0-7.461-6.65271v-3.29187c0-10.665-8.01532-30.25684-17.90265-30.25684H93.52807v28.57068l.01746,1.3479c.18579,8.76306,6.81628,15.809,14.985,15.809h47.545Z" style="fill:none;stroke:#3f3350;stroke-linecap:round;stroke-linejoin:round;stroke-width:2px"/><path d="M144.61444,287.82117l-11.60144-.47968a.52077.52077,0,0,1,0-1.04065l11.60144-.47964a1.00085,1.00085,0,0,1,.08269,2C144.67,287.82227,144.64107,287.82217,144.61444,287.82117Z" style="fill:#3f3350"/><path d="M496.82141,151.593C483.3884,60.916,397.16708-5.42546,227.77841,2.35286,18.47279,11.9642,69.51868,246.46606,69.51868,246.46606s53.954,36.29734,93.632,35.51673c62.89092-1.23728,102.14607,4.05423,212.14674-7.52564,60.70716-6.39071,127.038-51.97,121.75641-119.948Z" style="fill:#fff"/><path d="M496.63141,155.438C490.16028,72.03018,384.78049,6.36545,229.41112,15.07031c-209.75938,11.75215-159.674,232.423-159.674,232.423s53.91761,33.38775,93.70362,33.31985c62.28518-.10635,102.77682,6.32272,214.27905-7.22958,60.75924-7.38486,124.25336-51.18407,119.2482-115.69687Z" style="fill:#ff7043"/><path d="M312.33221,279.86069c1.29545-113.52989,12.4383-209.48316,45.89347-266.89447" style="fill:none;stroke:#3f3350;stroke-linecap:round;stroke-linejoin:round;stroke-width:2px"/><path d="M344.6402,277.42508c1.29547-113.52991,9.28378-197.98692,42.73895-255.39827" style="fill:none;stroke:#3f3350;stroke-linecap:round;stroke-linejoin:round;stroke-width:2px"/><path d="M328.6322,8.40121C279.788,105.01,279.3183,210.68234,282.13062,281.35239" style="fill:none;stroke:#3f3350;stroke-linecap:round;stroke-linejoin:round;stroke-width:2px"/><path d="M248.61981,281.42337C251.93756,167.755,262.47626,61.93563,296.93509,3.67745" style="fill:none;stroke:#3f3350;stroke-linecap:round;stroke-linejoin:round;stroke-width:2px"/><path d="M261.05984,1.67205c-49.96112,99.9324-39.16406,211.12363-36.55645,280.43986" style="fill:none;stroke:#3f3350;stroke-linecap:round;stroke-linejoin:round;stroke-width:2px"/><path d="M204.11349,281.896C181.32861,178.04913,208.25888,64.66256,228.263,2.31429" style="fill:none;stroke:#3f3350;stroke-linecap:round;stroke-linejoin:round;stroke-width:2px"/><path d="M176.11761,280.86591C153.33275,177.019,175.41136,68.59444,195.41547,6.24615" style="fill:none;stroke:#3f3350;stroke-linecap:round;stroke-linejoin:round;stroke-width:2px"/><path d="M352.24414,276.46915s23.56647-2.39212,31.41406-3.72232c63.96622-10.84256,85.478-114.38842-.233-140.58182C375.48859,190.90179,360.87732,270.26474,352.24414,276.46915Z" style="fill:#3f3350"/><path d="M383.4252,132.165c.5502,43.17681-3.755,84.295-9.76065,133.51537-1.48468,12.16775,9.73279,18.00568,21.87082,17.0535,64.4903-5.059,102.145-22.20139,101.43265-124.84722l-.52744-3.71315Z" style="fill:#ff7043"/><path d="M130.90105,31.38418C36.84156,96.31769,69.52354,246.46565,69.52354,246.46565s54.09179,36.28636,93.87706,35.49724c62.88276-1.24731,102.20588,4.00061,211.79517-7.47528,3.41693,6.12262,11.64105,8.92865,20.3396,8.24628,60.22418-4.72437,98.14362-23.48328,102.31732-109.53681C498.00021,151.499,498.94492-9.45354,228.263,2.31427c-23.83021,1.036-44.29549,4.98383-61.85275,11.16894" style="fill:none;stroke:#3f3350;stroke-linecap:round;stroke-linejoin:round;stroke-width:2px"/></svg>