<?xml version="1.0" encoding="utf-8"?>
<!-- Generator: Adobe Illustrator 25.3.1, SVG Export Plug-In . SVG Version: 6.00 Build 0)  -->
<svg version="1.1" id="Layer_1" xmlns="http://www.w3.org/2000/svg" xmlns:xlink="http://www.w3.org/1999/xlink" x="0px" y="0px"
	 viewBox="0 0 2600 226" style="enable-background:new 0 0 2600 226;" xml:space="preserve">
<style type="text/css">
	.st0{fill:#FFECB3;}
	.st1{fill-rule:evenodd;clip-rule:evenodd;fill:#FFF8E1;}
</style>
<g>
	<path class="st0" d="M893.3,66.8c3.6-1.1,7.3-1.7,11.1-2c3.7-0.3,7.4-0.3,11.1-0.2c3.7,0.1,7.4,0.3,11.1,0.6
		c3.7,0.3,7.4,0.8,11.1,1.6c0.7,0.2,1.2,0.9,1.1,1.6c-0.1,0.5-0.5,0.9-1.1,1.1c-3.7,0.7-7.4,1.3-11.1,1.6c-3.7,0.3-7.4,0.5-11.1,0.6
		c-3.7,0.1-7.4,0.1-11.1-0.2c-3.8-0.3-7.5-0.9-11.1-2c-0.7-0.2-1.2-1-0.9-1.8C892.5,67.3,892.8,67,893.3,66.8z"/>
	<path class="st1" d="M840.7,59.3c6.2,8.9,10,19.3,10.8,30.2c17-0.7,33.9-1.8,50.8-2.8l5.4-0.3c20.1-1.3,41.3,5.9,61.9,13.1
		c8.6,3,7.4,6.3,5.2,8.2l-0.2,0.2l-0.1,0.1l-0.2,0.2c-0.7,0.5-1.4,0.9-2.2,1.3c-13.2,4.5-25.9,14.2-40.3,10.5
		c-18.1-4.6-35.7-2.6-52.8,0.2l-2.2,0.4c-1.1,0.2-2.2,0.4-3.3,0.6l-2.3,0.4L869,122c-3,0.5-6,1-9,1.5c-21.8,3.4-43.4,3.2-65.2,2.8
		l-4.4-0.1c-3.6-0.1-7.3-0.1-10.9-0.2c-3.2,0-6.4-0.1-9.6-0.1l-7.2-0.1h-2.4l0,0l-4.8-0.1c-9.3-0.1-18.5-0.2-27.7-0.1
		c-1.5,5.3-3.4,6-16.3,5.6c-2-1.8-4.3-3.5-6.6-4.9c-11.7,0.6-23.4,1.7-35,3.5c-3.3,0.6-6.6,1.5-9.8,2.7l-0.8,0.3l-0.8,0.3
		c-8.4,2.8-16.2,4.8-25.8-4.7c-6.4-6.1-11.5-13.3-15.2-21.2c-61.1-8.8-121.4-5.2-181.9-1.4c-18.2,1.1-37.3-4.5-56-10.9l-2.3-0.8
		c-1.2-0.4-2.3-0.8-3.5-1.2c-9-3.1-7.3-6.5-4.9-8.4l0.2-0.2c0.7-0.5,1.4-0.9,2.2-1.2c13.2-4.5,25.9-13.9,40.3-10.3
		c20,5,39.2,2.1,58-1l2.3-0.4c3.8-0.6,7.6-1.3,11.4-1.9c22.4-3.5,44.6-3.1,67-2.7l4.5,0.1c3,0,6,0.1,9,0.1
		c17.1,0.2,34.4,0.6,51.5,0.5v-0.1c1.5-6.2,3-7,16.5-6.5c2.5,2.3,5.2,4.2,8.2,5.9c11.2-0.6,22.4-1.6,33.4-3.3
		c3.2-0.6,6.4-1.4,9.5-2.5l0.8-0.3l0,0l0.8-0.3c8.3-2.7,15.9-4.8,25.4,3.9c9.7-1.4,19.2-1.5,28.8-1.4h3c3,0,6,0.1,9,0.1
		c22.5,0,45.3,1,67.3-4.2c1.7-0.5,3.4-1.1,5-1.9l0.5-0.3c0.4-0.2,0.9-0.4,1.3-0.6l0.5-0.3C830.4,52.8,835.1,51.2,840.7,59.3z
		 M790.2,87.2v0.5c0,0.4,0,0.9,0,1.3v0.9c0,0.1,0,0.3,0,0.4c1.6,0,3.1,0.1,4.7,0.1c-0.4-3-0.8-5.6-2-6.6
		C790.6,82.2,790.3,84.2,790.2,87.2z"/>
	<path class="st1" d="M677.2,191.5c-7.9-4.9-12.4-10.2-13.5-16.2c-21.3,0.4-42.5,0.9-63.8,1.5l-6.8,0.2c-25.2,0.7-51.8-3.1-77.6-7
		c-10.8-1.6-9.3-3.4-6.5-4.4l0.3-0.1h0.1l0.3-0.1c0.9-0.3,1.9-0.5,2.8-0.7c16.5-2.4,32.4-7.6,50.6-5.7c22.8,2.4,44.7,1.4,66.2-0.1
		l2.7-0.2c1.4-0.1,2.7-0.2,4.1-0.3l2.8-0.2l2.8-0.2c3.8-0.3,7.5-0.5,11.2-0.8c27.3-1.9,54.4-1.7,81.7-1.5h5.5
		c4.6,0,9.1,0.1,13.7,0.1c4,0,8,0,12,0.1l9,0.1h3l0,0h6c11.6,0.1,23.2,0.1,34.8,0.1c1.9-2.9,4.3-3.2,20.4-3c2.7,1,5.5,1.9,8.3,2.6
		c14.8-0.3,29.4-0.9,43.9-1.9c4.3-0.3,8.4-0.9,12.3-1.4l1-0.1l1-0.1c10.5-1.5,20.3-2.6,32.4,2.5c8.5,3.6,14.9,7.4,19.1,11.4
		c76.6,4.7,152.3,2.8,228.2,0.8c22.8-0.6,46.8,2.4,70.3,5.8l2.9,0.4c1.5,0.2,2.9,0.4,4.4,0.6c11.3,1.7,9.1,3.5,6.1,4.5l-0.3,0.1
		c-0.9,0.3-1.9,0.5-2.8,0.7c-16.5,2.4-32.4,7.5-50.6,5.5c-25.1-2.7-49.2-1.1-72.7,0.6l-2.9,0.2c-4.8,0.3-9.5,0.7-14.3,1
		c-28.1,1.9-55.9,1.7-84,1.5h-5.6c-3.7,0-7.5,0-11.2-0.1c-21.5-0.1-43.1-0.3-64.6-0.2l0,0c-1.9,3.3-3.8,3.7-20.7,3.5
		c-3.3-1.3-6.8-2.3-10.3-3.2c-14.1,0.3-28.1,0.9-41.9,1.8c-4.2,0.3-8.1,0.8-11.9,1.4l-1,0.1l0,0l-1,0.1c-10.4,1.5-20,2.6-31.8-2.1
		c-12.1,0.8-24.1,0.8-36.1,0.8h-3.7c-3.7,0-7.5,0-11.3,0c-28.2,0-56.8-0.5-84.4,2.3c-2.1,0.2-4.2,0.6-6.3,1l-0.7,0.1
		c-0.6,0.1-1.1,0.2-1.7,0.3l-0.7,0.1C690.1,195,684.1,195.8,677.2,191.5z M720.5,176.6v-0.3c0-0.2,0-0.5,0-0.7v-0.5
		c0-0.1,0-0.2,0-0.2c-2,0-4.1,0-6.1-0.1c0.5,1.6,1,3,2.6,3.5C720,179.2,720.4,178.2,720.5,176.6L720.5,176.6z"/>
	<path class="st1" d="M82.7,208.3c-4-2-6.3-4.2-7.1-6.7c-8,0.2-16,0.5-24.1,0.8l-6.5,0.2c-1.1,0-2.2,0.1-3.3,0.1
		c-12.1,0.5-25-0.9-37.5-2.4c-5.8-0.7-4.4-1.5-2.9-1.9h0.2c0.4-0.1,0.7-0.2,1.1-0.2c1.5-0.2,3-0.5,4.5-0.8l1.5-0.3
		c5.8-1.1,11.6-2.2,18.1-1.7c15.1,1.2,29.3-0.4,43.1-1.4c16.1-1.2,32.2-1.1,48.4-1.3c22.1-0.2,44.6-0.2,66-1.8
		c8-0.6,13.8-2.9,22.4,0c10.9,3.7,14.9,8,11.7,13.5c-0.8,1.4-1.7,1.6-9.8,1.6c-3.2-1-6.4-1.6-9.7-1.9c-1.9,0.3-3.8,0.4-5.7,0.2
		c-9.2-1-18,0.3-26.5,1.2c-9.9,1-19.8,1-29.7,1.1c-1.3,0-2.6,0-3.9,0.1h-3.9c-11,0.1-22.1,0.3-32.7,1.4
		C91.5,208.9,87.8,210.9,82.7,208.3z M158.5,199.3l1.5-0.1c0.9,0,1.9-0.1,2.8-0.1c-0.5-0.7-1.2-1.2-2.1-1.3c-2.3-0.4-2.4,0.2-2.3,1
		v0.1C158.5,199.1,158.5,199.2,158.5,199.3z M112.6,201h-2.2c-0.2,0-0.4,0-0.6,0c0.3,0.7,0.6,1.2,1.3,1.5
		C112.8,202.9,112.5,202,112.6,201L112.6,201z"/>
	<path class="st1" d="M281,206.2c-5.6,0.5-11.2-0.1-16.8-0.5c-7.7-0.6-15.4-1.4-22.9-0.7c-2.8,0.2-4.9,2.1-7.8-0.8
		c-3.6-3.7-4.9-7.7-3.6-12.5c0.3-1.2,0.6-1.4,3.5-1.1c0.9,0.9,2.1,1.6,3.3,2.1c0.6-0.2,1.4-0.2,2,0c3.1,1.3,6.2,0.4,9.2-0.1
		c3.5-0.6,6.9-0.2,10.3,0.1c0.4,0,0.9,0.1,1.3,0.1l1.3,0.1c3.8,0.4,7.6,0.3,11.4-0.1c1.7-0.3,3.1-2,4.7,0.5c1.3,1.8,2,4,2.2,6.2
		L281,206.2z M250.5,192.3l-0.5,0.1c-0.3,0.1-0.7,0.1-1,0.2c0,0.7,0.3,1.5,0.7,2.1c0.8,0.7,0.8-0.3,0.8-1.6v-0.2
		C250.5,192.6,250.5,192.5,250.5,192.3L250.5,192.3z M266.4,189.7h0.8h0.2c0-0.8-0.1-1.6-0.5-2.3
		C266.3,186.7,266.4,188.2,266.4,189.7L266.4,189.7z"/>
	<path class="st1" d="M155.8,114.9c-3.1-3-5.1-7-5.8-11.3c-6.6,0.4-13.2,0.9-19.7,1.4l-5.3,0.4c-0.9,0.1-1.8,0.1-2.7,0.2
		c-9.9,0.8-20.5-1.6-30.8-4c-4.7-1.1-3.6-2.5-2.4-3.3l0.1-0.1c0.3-0.2,0.6-0.3,0.9-0.4c1.2-0.4,2.5-0.8,3.7-1.3L95,96
		c4.7-1.8,9.5-3.7,14.8-2.8c12.4,2,24-0.6,35.3-2.4c13.2-2,26.4-1.9,39.7-2.2c18.1-0.4,36.5-0.4,54.1-3.1c6.6-1,11.3-5,18.4,0
		c8.9,6.3,12.2,13.5,9.6,22.9c-0.7,2.4-1.4,2.7-8.1,2.7c-2.4-1.6-5.1-2.7-8-3.3c-1.5,0.6-3.1,0.7-4.7,0.4c-7.5-1.8-14.7,0.5-21.7,2
		c-8.1,1.7-16.2,1.6-24.3,1.9c-1.1,0-2.1,0.1-3.2,0.1l-3.2,0.1c-9,0.2-18.1,0.6-26.8,2.4C163,115.8,160,119.3,155.8,114.9z
		 M218,99.6l1.2-0.1c0.8-0.1,1.6-0.1,2.3-0.2c-0.2-1-0.8-1.8-1.7-2.2c-1.9-0.7-2,0.3-1.9,1.7v0.3C218,99.3,218,99.5,218,99.6z
		 M180.3,102.4h-1.8c-0.2,0-0.3,0-0.5,0c0.2,1.1,0.5,2.1,1.1,2.5C180.6,105.7,180.3,104.1,180.3,102.4L180.3,102.4z"/>
	<path class="st0" d="M336.6,157c-14.7,1.2-29.5,1.6-44.2,2c-14.7,0.3-29.5,0.3-44.2,0.2c-14.7-0.1-29.5-0.3-44.2-0.6
		c-14.7-0.4-29.5-0.8-44.2-1.6c-0.7,0-1.3-0.7-1.3-1.4s0.6-1.2,1.3-1.3c14.7-0.8,29.5-1.2,44.2-1.6c14.7-0.3,29.5-0.5,44.2-0.6
		c14.7-0.1,29.5-0.1,44.2,0.2c14.7,0.3,29.5,0.8,44.2,2c0.7,0.1,1.3,0.7,1.2,1.4C337.8,156.4,337.2,157,336.6,157L336.6,157z"/>
	<path class="st0" d="M1044,176.4c9.5-0.4,19-0.5,28.6-0.6c9.5-0.1,19-0.1,28.6-0.1c9.5,0,19,0,28.6,0.2c9.5,0.1,19,0.3,28.6,0.5
		c0.7,0,1.3,0.6,1.3,1.4c0,0.7-0.6,1.3-1.3,1.3c-9.5,0.2-19,0.4-28.6,0.5c-9.5,0.1-19,0.2-28.6,0.2c-9.5,0-19,0.1-28.6-0.1
		c-9.5-0.1-19-0.3-28.6-0.6c-0.7,0-1.3-0.7-1.3-1.4C1042.7,177,1043.3,176.4,1044,176.4L1044,176.4z"/>
	<path class="st0" d="M225.2,3.3c3.6-1.1,7.3-1.7,11.1-2C240,1,243.7,1,247.4,1.1c3.7,0.1,7.4,0.3,11.1,0.6
		c3.7,0.3,7.4,0.8,11.1,1.6c0.7,0.2,1.2,0.9,1.1,1.6c-0.1,0.5-0.5,0.9-1.1,1.1c-3.7,0.7-7.4,1.3-11.1,1.6c-3.7,0.3-7.4,0.5-11.1,0.6
		c-3.7,0.1-7.4,0.1-11.1-0.2c-3.8-0.3-7.5-0.9-11.1-2c-0.7-0.2-1.2-1-0.9-1.8C224.4,3.8,224.7,3.4,225.2,3.3z"/>
</g>
<g>
	<path class="st0" d="M2193.3,66.8c3.6-1.1,7.3-1.7,11.1-2c3.7-0.3,7.4-0.3,11.1-0.2c3.7,0.1,7.4,0.3,11.1,0.6
		c3.7,0.3,7.4,0.8,11.1,1.6c0.7,0.2,1.2,0.9,1.1,1.6c-0.1,0.5-0.5,0.9-1.1,1.1c-3.7,0.7-7.4,1.3-11.1,1.6c-3.7,0.3-7.4,0.5-11.1,0.6
		c-3.7,0.1-7.4,0.1-11.1-0.2c-3.8-0.3-7.5-0.9-11.1-2c-0.7-0.2-1.2-1-0.9-1.8C2192.5,67.3,2192.8,67,2193.3,66.8z"/>
	<path class="st1" d="M2140.7,59.3c6.2,8.9,10,19.3,10.8,30.2c17-0.7,33.9-1.8,50.8-2.8l5.4-0.3c20.1-1.3,41.3,5.9,61.9,13.1
		c8.6,3,7.4,6.3,5.2,8.2l-0.2,0.2l-0.1,0.1l-0.2,0.2c-0.7,0.5-1.4,0.9-2.2,1.3c-13.2,4.5-25.9,14.2-40.3,10.5
		c-18.1-4.6-35.7-2.6-52.8,0.2l-2.2,0.4c-1.1,0.2-2.2,0.4-3.3,0.6l-2.3,0.4l-2.2,0.4c-3,0.5-6,1-9,1.5c-21.8,3.4-43.4,3.2-65.2,2.8
		l-4.4-0.1c-3.6-0.1-7.3-0.1-10.9-0.2c-3.2,0-6.4-0.1-9.6-0.1l-7.2-0.1h-2.4l0,0l-4.8-0.1c-9.3-0.1-18.5-0.2-27.7-0.1
		c-1.5,5.3-3.4,6-16.3,5.6c-2-1.8-4.3-3.5-6.6-4.9c-11.7,0.6-23.4,1.7-35,3.5c-3.3,0.6-6.6,1.5-9.8,2.7l-0.8,0.3l-0.8,0.3
		c-8.4,2.8-16.2,4.8-25.8-4.7c-6.4-6.1-11.5-13.3-15.2-21.2c-61.1-8.8-121.4-5.2-181.9-1.4c-18.2,1.1-37.3-4.5-56-10.9l-2.3-0.8
		c-1.2-0.4-2.3-0.8-3.5-1.2c-9-3.1-7.3-6.5-4.9-8.4l0.2-0.2c0.7-0.5,1.4-0.9,2.2-1.2c13.2-4.5,25.9-13.9,40.3-10.3
		c20,5,39.2,2.1,58-1l2.3-0.4c3.8-0.6,7.6-1.3,11.4-1.9c22.4-3.5,44.6-3.1,67-2.7l4.5,0.1c3,0,6,0.1,9,0.1
		c17.1,0.2,34.4,0.6,51.5,0.5v-0.1c1.5-6.2,3-7,16.5-6.5c2.5,2.3,5.2,4.2,8.2,5.9c11.2-0.6,22.4-1.6,33.4-3.3
		c3.2-0.6,6.4-1.4,9.5-2.5l0.8-0.3l0,0l0.8-0.3c8.3-2.7,15.9-4.8,25.4,3.9c9.7-1.4,19.2-1.5,28.8-1.4h3c3,0,6,0.1,9,0.1
		c22.5,0,45.3,1,67.3-4.2c1.7-0.5,3.4-1.1,5-1.9l0.5-0.3c0.4-0.2,0.9-0.4,1.3-0.6l0.5-0.3C2130.4,52.8,2135.1,51.2,2140.7,59.3z
		 M2090.2,87.2v0.5c0,0.4,0,0.9,0,1.3v0.9c0,0.1,0,0.3,0,0.4c1.6,0,3.1,0.1,4.7,0.1c-0.4-3-0.8-5.6-2-6.6
		C2090.6,82.2,2090.3,84.2,2090.2,87.2z"/>
	<path class="st1" d="M1977.2,191.5c-7.9-4.9-12.4-10.2-13.5-16.2c-21.3,0.4-42.5,0.9-63.8,1.5l-6.8,0.2c-25.2,0.7-51.8-3.1-77.6-7
		c-10.8-1.6-9.3-3.4-6.5-4.4l0.3-0.1h0.1l0.3-0.1c0.9-0.3,1.9-0.5,2.8-0.7c16.5-2.4,32.4-7.6,50.6-5.7c22.8,2.4,44.7,1.4,66.2-0.1
		l2.7-0.2c1.4-0.1,2.7-0.2,4.1-0.3l2.8-0.2l2.8-0.2c3.8-0.3,7.5-0.5,11.2-0.8c27.3-1.9,54.4-1.7,81.7-1.5h5.5
		c4.6,0,9.1,0.1,13.7,0.1c4,0,8,0,12,0.1l9,0.1h3l0,0h6c11.6,0.1,23.2,0.1,34.8,0.1c1.9-2.9,4.3-3.2,20.4-3c2.7,1,5.5,1.9,8.3,2.6
		c14.8-0.3,29.4-0.9,43.9-1.9c4.3-0.3,8.4-0.9,12.3-1.4l1-0.1l1-0.1c10.5-1.5,20.3-2.6,32.4,2.5c8.5,3.6,14.9,7.4,19.1,11.4
		c76.6,4.7,152.3,2.8,228.2,0.8c22.8-0.6,46.8,2.4,70.3,5.8l2.9,0.4c1.5,0.2,2.9,0.4,4.4,0.6c11.3,1.7,9.1,3.5,6.1,4.5l-0.3,0.1
		c-0.9,0.3-1.9,0.5-2.8,0.7c-16.5,2.4-32.4,7.5-50.6,5.5c-25.1-2.7-49.2-1.1-72.7,0.6l-2.9,0.2c-4.8,0.3-9.5,0.7-14.3,1
		c-28.1,1.9-55.9,1.7-84,1.5h-5.6c-3.7,0-7.5,0-11.2-0.1c-21.5-0.1-43.1-0.3-64.6-0.2l0,0c-1.9,3.3-3.8,3.7-20.7,3.5
		c-3.3-1.3-6.8-2.3-10.3-3.2c-14.1,0.3-28.1,0.9-41.9,1.8c-4.2,0.3-8.1,0.8-11.9,1.4l-1,0.1l0,0l-1,0.1c-10.4,1.5-20,2.6-31.8-2.1
		c-12.1,0.8-24.1,0.8-36.1,0.8h-3.7c-3.7,0-7.5,0-11.3,0c-28.2,0-56.8-0.5-84.4,2.3c-2.1,0.2-4.2,0.6-6.3,1l-0.7,0.1
		c-0.6,0.1-1.1,0.2-1.7,0.3l-0.7,0.1C1990.1,195,1984.1,195.8,1977.2,191.5z M2020.5,176.6v-0.3c0-0.2,0-0.5,0-0.7v-0.5
		c0-0.1,0-0.2,0-0.2c-2,0-4.1,0-6.1-0.1c0.5,1.6,1,3,2.6,3.5C2020,179.2,2020.4,178.2,2020.5,176.6L2020.5,176.6z"/>
	<path class="st1" d="M1382.7,208.3c-4-2-6.3-4.2-7.1-6.7c-8,0.2-16,0.5-24.1,0.8l-6.5,0.2c-1.1,0-2.2,0.1-3.3,0.1
		c-12.1,0.5-25-0.9-37.5-2.4c-5.8-0.7-4.4-1.5-2.9-1.9h0.2c0.4-0.1,0.7-0.2,1.1-0.2c1.5-0.2,3-0.5,4.5-0.8l1.5-0.3
		c5.8-1.1,11.6-2.2,18.1-1.7c15.1,1.2,29.3-0.4,43.1-1.4c16.1-1.2,32.2-1.1,48.4-1.3c22.1-0.2,44.6-0.2,66-1.8
		c8-0.6,13.8-2.9,22.4,0c10.9,3.7,14.9,8,11.7,13.5c-0.8,1.4-1.7,1.6-9.8,1.6c-3.2-1-6.4-1.6-9.7-1.9c-1.9,0.3-3.8,0.4-5.7,0.2
		c-9.2-1-18,0.3-26.5,1.2c-9.9,1-19.8,1-29.7,1.1c-1.3,0-2.6,0-3.9,0.1h-3.9c-11,0.1-22.1,0.3-32.7,1.4
		C1391.5,208.9,1387.8,210.9,1382.7,208.3z M1458.5,199.3l1.5-0.1c0.9,0,1.9-0.1,2.8-0.1c-0.5-0.7-1.2-1.2-2.1-1.3
		c-2.3-0.4-2.4,0.2-2.3,1v0.1C1458.5,199.1,1458.5,199.2,1458.5,199.3z M1412.6,201h-2.2c-0.2,0-0.4,0-0.6,0
		c0.3,0.7,0.6,1.2,1.3,1.5C1412.8,202.9,1412.5,202,1412.6,201L1412.6,201z"/>
	<path class="st1" d="M1581,206.2c-5.6,0.5-11.2-0.1-16.8-0.5c-7.7-0.6-15.4-1.4-22.9-0.7c-2.8,0.2-4.9,2.1-7.8-0.8
		c-3.6-3.7-4.9-7.7-3.6-12.5c0.3-1.2,0.6-1.4,3.5-1.1c0.9,0.9,2.1,1.6,3.3,2.1c0.6-0.2,1.4-0.2,2,0c3.1,1.3,6.2,0.4,9.2-0.1
		c3.5-0.6,6.9-0.2,10.3,0.1c0.4,0,0.9,0.1,1.3,0.1l1.3,0.1c3.8,0.4,7.6,0.3,11.4-0.1c1.7-0.3,3.1-2,4.7,0.5c1.3,1.8,2,4,2.2,6.2
		L1581,206.2z M1550.5,192.3l-0.5,0.1c-0.3,0.1-0.7,0.1-1,0.2c0,0.7,0.3,1.5,0.7,2.1c0.8,0.7,0.8-0.3,0.8-1.6v-0.2
		C1550.5,192.6,1550.5,192.5,1550.5,192.3L1550.5,192.3z M1566.4,189.7h0.8h0.2c0-0.8-0.1-1.6-0.5-2.3
		C1566.3,186.7,1566.4,188.2,1566.4,189.7L1566.4,189.7z"/>
	<path class="st1" d="M1455.8,114.9c-3.1-3-5.1-7-5.8-11.3c-6.6,0.4-13.2,0.9-19.7,1.4l-5.3,0.4c-0.9,0.1-1.8,0.1-2.7,0.2
		c-9.9,0.8-20.5-1.6-30.8-4c-4.7-1.1-3.6-2.5-2.4-3.3l0.1-0.1c0.3-0.2,0.6-0.3,0.9-0.4c1.2-0.4,2.5-0.8,3.7-1.3l1.2-0.5
		c4.7-1.8,9.5-3.7,14.8-2.8c12.4,2,24-0.6,35.3-2.4c13.2-2,26.4-1.9,39.7-2.2c18.1-0.4,36.5-0.4,54.1-3.1c6.6-1,11.3-5,18.4,0
		c8.9,6.3,12.2,13.5,9.6,22.9c-0.7,2.4-1.4,2.7-8.1,2.7c-2.4-1.6-5.1-2.7-8-3.3c-1.5,0.6-3.1,0.7-4.7,0.4c-7.5-1.8-14.7,0.5-21.7,2
		c-8.1,1.7-16.2,1.6-24.3,1.9c-1.1,0-2.1,0.1-3.2,0.1l-3.2,0.1c-9,0.2-18.1,0.6-26.8,2.4C1463,115.8,1460,119.3,1455.8,114.9z
		 M1518,99.6l1.2-0.1c0.8-0.1,1.6-0.1,2.3-0.2c-0.2-1-0.8-1.8-1.7-2.2c-1.9-0.7-2,0.3-1.9,1.7v0.3C1518,99.3,1518,99.5,1518,99.6z
		 M1480.3,102.4h-1.8c-0.2,0-0.3,0-0.5,0c0.2,1.1,0.5,2.1,1.1,2.5C1480.6,105.7,1480.3,104.1,1480.3,102.4L1480.3,102.4z"/>
	<path class="st0" d="M1636.6,157c-14.7,1.2-29.5,1.6-44.2,2c-14.7,0.3-29.5,0.3-44.2,0.2s-29.5-0.3-44.2-0.6
		c-14.7-0.4-29.5-0.8-44.2-1.6c-0.7,0-1.3-0.7-1.3-1.4s0.6-1.2,1.3-1.3c14.7-0.8,29.5-1.2,44.2-1.6c14.7-0.3,29.5-0.5,44.2-0.6
		s29.5-0.1,44.2,0.2s29.5,0.8,44.2,2c0.7,0.1,1.3,0.7,1.2,1.4C1637.8,156.4,1637.2,157,1636.6,157L1636.6,157z"/>
	<path class="st0" d="M2344,176.4c9.5-0.4,19-0.5,28.6-0.6c9.5-0.1,19-0.1,28.6-0.1c9.5,0,19,0,28.6,0.2c9.5,0.1,19,0.3,28.6,0.5
		c0.7,0,1.3,0.6,1.3,1.4c0,0.7-0.6,1.3-1.3,1.3c-9.5,0.2-19,0.4-28.6,0.5c-9.5,0.1-19,0.2-28.6,0.2c-9.5,0-19,0.1-28.6-0.1
		c-9.5-0.1-19-0.3-28.6-0.6c-0.7,0-1.3-0.7-1.3-1.4C2342.7,177,2343.3,176.4,2344,176.4L2344,176.4z"/>
	<path class="st0" d="M1525.2,3.3c3.6-1.1,7.3-1.7,11.1-2c3.7-0.3,7.4-0.3,11.1-0.2s7.4,0.3,11.1,0.6s7.4,0.8,11.1,1.6
		c0.7,0.2,1.2,0.9,1.1,1.6c-0.1,0.5-0.5,0.9-1.1,1.1c-3.7,0.7-7.4,1.3-11.1,1.6c-3.7,0.3-7.4,0.5-11.1,0.6
		c-3.7,0.1-7.4,0.1-11.1-0.2c-3.8-0.3-7.5-0.9-11.1-2c-0.7-0.2-1.2-1-0.9-1.8C1524.4,3.8,1524.7,3.4,1525.2,3.3z"/>
</g>
</svg>
