<svg xmlns="http://www.w3.org/2000/svg" viewBox="0 0 83.87193 60.46816"><path d="M61.65212,3.064a1.91835,1.91835,0,0,0-.48556-.52833,9.42143,9.42143,0,0,0-.85193-.64963c-.30764-.19838-.623-.38579-.89739-.538a2.172,2.172,0,0,0-.62775-.239c-.46151.44079-.64123.38969-1.4131-.14419a.94782.94782,0,0,0-.81011-.43344,3.66875,3.66875,0,0,0-1.451.37085,9.5411,9.5411,0,0,1-1.6997.502,1.6885,1.6885,0,0,1-1.0381-.29387A1.17479,1.17479,0,0,0,51.25983.6857c-.11221.01519-.51773.66511-.9319.73439-.16875.0322-.32092.2005-.50414.4659a3.19706,3.19706,0,0,0-.42171.92817c-.12675.03357-.41445.7136-.97928.26192a1.25432,1.25432,0,0,1-.75086-.1075,1.92229,1.92229,0,0,0-.77419-.03665,7.8409,7.8409,0,0,1-2.13361-.537c-.05654.017-.11991.03379-.17632.047l-.09158.0272a1.37528,1.37528,0,0,0-.1491.07425c-.2055.08744-.42506.18576-.645.28789-.43934.18911-.90714.39615-1.34637.589a4.99845,4.99845,0,0,0-2.0501,1.38738c-.28465.16028-.55477.30969-.80377.44858a.78976.78976,0,0,0-.09976.0607c-.05106.06624-.09514.12876-.14632.1987-.0949.12876-.19677.25361-.28459.37509-.1898.25-.36494.47785-.53276.69852-.6571.86772-1.13869,1.50382-1.37955,1.82a14.65853,14.65853,0,0,0-2.56882,2.516c-.6385.72512-1.38607,1.5862-2.22171,2.57626-.42173.50988-.858,1.03826-1.31588,1.58467-.11651.1394-.2329.28251-.3493.42573l-.18162.2164a.18427.18427,0,0,0-.03676.05524l-.00369.1129-.00739.22591c-.013.60619-.02608,1.22371-.03271,1.85279-.09546,5.0572-.17174,11.02323-.23341,17.60387-.006.82506-.01228,1.66132-.01884,2.49757l-.00326.31651-.00517.15808c.00548.04911-.00407.12422.00949.13588l.17195.29574c.10544.19189.21772.39152.32987.59485q.67329,1.19758,1.366,2.43735c.938,1.651,1.90187,3.35543,2.89271,5.09477.17454.21671.3492.42959.53069.65034a6.28521,6.28521,0,0,0,.49789.57767c.28391.28819.57467.584.86518.87991.58872.58064,1.17706,1.17259,1.77225,1.7649l.44663.4403.22326.22211c.08141.07427.11584.09043.17028.13744l.63367.48425c.42274.31146.83864.6227,1.25466.93024a8.22975,8.22975,0,0,0,1.08794.69112c.32912.19168.65824.37573.97393.55194l.2333.12434.21351.09375c.1448.05748.28262.11844.41326.17546.27578.11082.53118.2095.7795.30057a4.73092,4.73092,0,0,0,1.09156.371c.22854.06023.47052.13592.71224.21925a5.09552,5.09552,0,0,1,.69661.27149c.85126.45352,1.68619.76343,1.63943.27212-.03942-.50622.29093-.35221.44756.19544a2.90566,2.90566,0,0,0,1.252,1.65373c.59973.46046,1.27245.603,1.246.1349.04981-.45426.56868-.30172.80322.21088.151.50988.60184.82226,1.471,1.156a9.84719,9.84719,0,0,0,1.69664.45109c.17337.03574.36066.07206.54806.11208.19437.03656.4101.06247.62559.09589.43831.05192.90336.13873,1.42555.1897.46176-.02249.97835-.01694,1.50873.00041.53063.00231,1.09008-.01711,1.62107-.0186a11.66859,11.66859,0,0,0,1.49778-.09793,7.80528,7.80528,0,0,0,1.1304-.174c.28219-.085.66877-.16288,1.11151-.24625.225-.0417.46374-.08282.71673-.12729.23933-.06009.49293-.1234.75326-.18267.52126-.13738,1.07048-.27015,1.58663-.46058a14.65648,14.65648,0,0,0,1.45958-.63431c2.48293-1.38444,2.72334-2.33,2.643-2.86382a1.96857,1.96857,0,0,1,.408-1.58429c.34536-.3052.6627-1.25577.98718-1.56534a4.3506,4.3506,0,0,1,1.83554-1.23246,2.13817,2.13817,0,0,0,.8925-.38147,1.6354,1.6354,0,0,0,.28809-.26566c-.31465-.41724-.03765-.76991.73747-.97824a6.28309,6.28309,0,0,0,1.73366-1.96663c.4936-.78643.72225-1.58165.57666-1.8313.015-.0334.05462-.17532.14164-.489.08725-.31364.26319-.78262.4475-1.50756.0957-.36242.20716-.78077.33476-1.2665a16.25693,16.25693,0,0,0,.41788-1.6706c.12556-.64022.29509-1.33927.44706-2.13688.10314-.80672.2577-1.691.37358-2.67058a9.0045,9.0045,0,0,1,.33763-1.564c.233-.71953.5532-1.75664,1.06622-3.556.1112-.83665.17038-1.58454.20693-2.26908.0224-.685.00071-1.30749-.02893-1.89621-.01823-.29454-.0438-.5818-.06961-.86142-.0396-.2839-.07958-.55647-.11956-.82917-.08678-.55287-.18065-1.0986-.29478-1.66753-.84876-1.599-1.0344-2.32853-.721-2.72524-.09516-.29692.29036-.55188.23253-.7045-.05088-.14857.2767-.56.17494-.86464a3.499,3.499,0,0,1-.03777-.76622,2.69824,2.69824,0,0,0-.13188-.87849,6.17762,6.17762,0,0,1-.28135-1.22625c-.09633-.47037-.67961.06824-.8629-.307-.05168-.34086-.11788-.67086-.19827-.98616a6.43755,6.43755,0,0,0-.34115-.88533,5.99673,5.99673,0,0,0-.88224-1.43434Z" style="fill:#fffef9;fill-rule:evenodd"/><path d="M23.18041,58.09373a1.02158,1.02158,0,0,0,.4468.24031,4.72318,4.72318,0,0,0,.723.176,6.76444,6.76444,0,0,0,.71755.06615,1.21882,1.21882,0,0,0,.47211-.07293c.197-.59127.32485-.63276.96228-.51129a.49815.49815,0,0,0,.63817.0086,3.4482,3.4482,0,0,0,.86594-.97481,9.28466,9.28466,0,0,1,.9971-1.2054.98423.98423,0,0,1,.75366-.21013.67681.67681,0,0,0,.83845-.13415c.06841-.06489.177-.80835.43227-1.0623a1.25407,1.25407,0,0,0,.21937-.63,4.59764,4.59764,0,0,0,.05057-.99549c.075-.08292.09567-.80493.576-.66724a.81218.81218,0,0,1,.52295-.24511,1.36556,1.36556,0,0,0,.51934-.31842,4.56878,4.56878,0,0,1,1.53689-.49559c.0314-.03857.06585-.08013.10031-.12169l.05325-.06229c.02855-.04484.05415-.08968.08261-.13154.111-.1732.22831-.35227.352-.54032.24387-.36713.50043-.75508.74114-1.11623a6.34494,6.34494,0,0,0,1.00927-2.13193q.22567-.40881.4221-.75455a.45806.45806,0,0,0,.0452-.09307c.01765-.07872.03539-.16042.053-.23913.03224-.15752.06427-.30887.09631-.46031.06083-.29383.12136-.57849.17813-.84182.22111-1.05086.3816-1.81705.46352-2.20164A20.20347,20.20347,0,0,0,39.12257,39.024c.24674-.91588.52315-2.00142.83161-3.23852q.22959-.9438.47985-1.96623l.12566-.52648.066-.26921c.00375-.02432.01045-.04544.0143-.06965l-.02692-.09852-.0508-.19674c-.14215-.53225-.28392-1.07655-.42853-1.62712-1.174-4.43219-2.57563-9.64337-4.14329-15.39057-.1963-.71682-.3925-1.43983-.59431-2.17519l-.07536-.27384-.03763-.13847c-.01376-.04-.02357-.11047-.03852-.111l-.18088-.17975c-.11939-.12289-.24194-.24578-.36439-.36867-.4897-.49474-.98835-.99286-1.4927-1.50025q-1.53137-1.51825-3.14416-3.12147c-.16811-.10613-.33612-.21834-.50728-.32457a3.58177,3.58177,0,0,0-.46981-.27766c-.25784-.12422-.52177-.24875-.78276-.37317-.52807-.24287-1.06215-.486-1.59907-.73527L26.303,5.88083l-.20177-.092a.99517.99517,0,0,0-.14324-.04128l-.53461-.13338c-.3527-.08164-.70531-.16329-1.055-.24483a4.31418,4.31418,0,0,0-.87869-.11112c-.26753-.01483-.5261-.02937-.77571-.03753l-.18665-.003-.16315.016c-.10577.0118-.21154.0235-.31427.0354-.20555.0238-.40235.054-.58409.08762a2.50226,2.50226,0,0,0-.80964.1718c-.16729.04938-.34333.09239-.51907.12634a2.30338,2.30338,0,0,1-.52357.08042c-.67113-.01277-1.298.09479-1.14578.50529.1488.42255-.10457.43561-.34429.03143a1.65807,1.65807,0,0,0-1.22729-.86953c-.5046-.13239-.9803.04724-.85157.43872.07668.4172-.3002.52376-.578.17927-.22261-.37321-.6-.43731-1.24767-.33662a5.52084,5.52084,0,0,0-1.22887.37452c-.122.04787-.253.09545-.38734.149-.13717.05346-.28125.131-.43408.19924-.3.14877-.62973.28739-.98519.477-.29655.22807-.63531.45486-.98882.67807-.35106.23557-.71216.50421-1.06637.74576a9.59668,9.59668,0,0,0-.9554.76154,7.2715,7.2715,0,0,0-.70209.66c-.16626.20191-.4.4443-.67387.7159-.13407.13893-.28034.28355-.43566.431-.14686.16285-.297.33178-.453.50041-.30674.35291-.63777.71708-.93084,1.113-.29.39913-.56854.8108-.80444,1.2117-1.29852,2.32064-1.22352,3.25-1.04167,3.67376a2.462,2.462,0,0,1,.12071,1.559c-.15839.42478-.12994,1.39532-.26707,1.81162a5.58433,5.58433,0,0,1-.90823,1.89747,2.23948,2.23948,0,0,0-.49047.72788,1.99445,1.99445,0,0,0-.12628.3618c.30591.22044.21059.65027-.24655,1.18416A8.4627,8.4627,0,0,0,.554,27.40161a3.37374,3.37374,0,0,0,.066,1.85c-.00425.03946.00622.18013.02322.48856.0229.31182.019.7996.07713,1.50891.02436.36054.053.77318.0854,1.256.03248.47979.05066,1.02922.13307,1.6387.07345.60918.13221,1.30027.22794,2.0565.126.74814.24339,1.58137.40351,2.48611a10.17223,10.17223,0,0,1,.1646,1.50558c.01811.73544.06226,1.77672.16614,3.573.13134.77265.26883,1.45105.4144,2.06259.152.60258.32129,1.13262.4858,1.62889.08216.24973.16462.49019.25042.72169.09811.22272.19031.44226.28537.66489.18756.43609.38712.86947.60144,1.31561.94574,1.00663,1.24394,1.55615,1.13168,2.04337.13767.21185-.04983.60216.022.71123.06863.109-.04413.61142.09924.83263a4.39447,4.39447,0,0,1,.21069.64719,2.54184,2.54184,0,0,0,.29923.70194,5.62272,5.62272,0,0,1,.48126.93968c.17775.36555.43051-.36711.64235-.12232a7.951,7.951,0,0,0,.37546.76537,4.84448,4.84448,0,0,0,.44055.6182,3.67524,3.67524,0,0,0,.93.84454Z" style="fill:#fffef9;fill-rule:evenodd"/><path d="M40.282,59.49341a2.36283,2.36283,0,0,0,.6581.18618c.30177.04957.69129.108,1.05963.14137.35956.0331.73275.05448,1.049.06482a3.27642,3.27642,0,0,0,.68755-.04155c.27319-.41793.4587-.44238,1.3922-.34174a1.37639,1.37639,0,0,0,.93164.02139,4.23489,4.23489,0,0,0,1.24042-.676,10.597,10.597,0,0,1,1.43033-.83449,2.521,2.521,0,0,1,1.095-.13184,1.68086,1.68086,0,0,0,1.21645-.07921c.09821-.04247.23865-.57156.60929-.74534a.66655.66655,0,0,0,.30053-.44456,1.62925,1.62925,0,0,0,.0496-.71188c.11178-.05728.11985-.57235.82427-.461a1.7975,1.7975,0,0,1,.75735-.16124,2.673,2.673,0,0,0,.75038-.21632,11.53892,11.53892,0,0,1,2.23143-.3143c.04482-.029.09425-.05786.14353-.08677l.08052-.043c.03621-.02933.07683-.06162.11744-.0938.15353-.12.3248-.2455.49612-.37713.34694-.25395.71216-.52555,1.05464-.77965a3.99846,3.99846,0,0,0,1.42128-1.4994c.21278-.18513.41213-.36462.59782-.5263a.24051.24051,0,0,0,.0637-.065c.024-.06016.04775-.11423.07163-.1714.0432-.11138.08631-.21978.12922-.3221l.23954-.599c.297-.74647.51723-1.2911.62286-1.56521a9.9491,9.9491,0,0,0,1.48468-2.36023c.3379-.65069.71921-1.41874,1.135-2.29558.21243-.44734.4255-.91.6525-1.3935.06113-.123.118-.24617.17487-.37237l.08531-.1893c.00506-.01808.01878-.0329.01938-.05123l-.03748-.06824-.08312-.146c-.21624-.38217-.44094-.7737-.66545-1.1713-1.81738-3.19707-3.99477-6.95476-6.42347-11.09566-.29965-.519-.60812-1.04136-.9207-1.57l-.11654-.202L56.8501,27.607c-.01654-.031-.037-.07741-.059-.07812l-.26813-.13683c-.17752-.08819-.35924-.1795-.541-.27082-.727-.36217-1.46692-.734-2.21551-1.10918Q51.494,24.8904,49.10062,23.70683c-.24809-.08132-.49617-.16264-.74856-.2441-.24364-.08107-.52628-.17877-.69237-.21163-.37966-.0917-.76789-.18977-1.15176-.2846q-1.16513-.2806-2.34784-.56468l-.59363-.13829-.29231-.0706c-.10488-.02168-.13994-.02283-.21437-.03444l-.7838-.108c-.51674-.06566-1.03353-.13432-1.54586-.20294-.556-.07922-.87735-.07137-1.2855-.097q-.58622-.02829-1.13323-.04613L38.039,21.6985l-.23345.00763c-.15837.004-.31253.01112-.46238.01839-.29936.00856-.58133.02677-.85023.0454a6.71758,6.71758,0,0,0-1.17773.10481q-.36451.04762-.75457.076a5.96762,5.96762,0,0,1-.76238.04219c-.97992-.023-1.89251.04174-1.66006.33289.22734.30634-.14228.3125-.50195.0141a3.20991,3.20991,0,0,0-1.81285-.64771c-.73972-.10956-1.42962.00811-1.23218.292.122.3028-.42545.36728-.83935.11278a2.70609,2.70609,0,0,0-1.82966-.27016,15.56316,15.56316,0,0,0-1.78022.23749c-.18125.03068-.37152.06415-.5661.09739-.19913.03617-.40752.0873-.62879.13193-.43422.0986-.91221.18969-1.42661.31618-.42734.15677-.91619.31153-1.42683.4595-.50668.16335-1.02728.34759-1.534.50785-.51971.15685-.966.35569-1.3804.52206a10.18164,10.18164,0,0,0-1.00892.4548c-.23758.13865-.57287.30451-.96179.49615-.19657.0941-.40646.191-.62987.29646-.20593.11225-.42517.227-.649.3447-.439.24486-.91351.49763-1.33152.77369-.4138.27919-.80581.56517-1.14478.84372-1.83451,1.62931-1.70657,2.292-1.43089,2.603a.98167.98167,0,0,1,.21852,1.11709c-.22076.29767-.15988.99182-.34985,1.28441a3.53685,3.53685,0,0,1-1.27947,1.3334,2.01836,2.01836,0,0,0-.69844.51074,1.00473,1.00473,0,0,0-.17545.25348c.452.16727.32339.47094-.331.8429A3.7833,3.7833,0,0,0,6.50493,37.011c-.17077.647-.08812,1.21677.14139,1.32491-.0009.0275.01781.12864.04569.34917.04116.224.04734.57173.14926,1.08431.04893.25462.09642.54889.15989.89555a7.80551,7.80551,0,0,0,.23,1.17232c.122.44.2246.93129.38718,1.47626.20224.53721.38942,1.13485.64518,1.7866a3.92776,3.92776,0,0,1,.27692,1.0824c.04447.52287.13442,1.26972.32984,2.5568a14.36553,14.36553,0,0,0,.65528,1.482,11.67306,11.67306,0,0,0,.7487,1.177c.12614.181.25244.35283.3877.51882.14427.1633.28394.32645.42841.48367.2887.31742.58627.632.91008.95359,1.405.74429,1.85376,1.14314,1.70176,1.48884.20593.15613-.058.428.04918.51075.10309.07657-.0493.43442.16529.59393a2.24763,2.24763,0,0,1,.32324.471,1.89669,1.89669,0,0,0,.45407.50873,4.56269,4.56269,0,0,1,.7254.67938c.26841.26489.61961-.25112.93477-.07007a6.40479,6.40479,0,0,0,.56677.55521,5.32928,5.32928,0,0,0,.6581.45446,6.09241,6.09241,0,0,0,1.37816.62442Z" style="fill:#fffef9;fill-rule:evenodd"/><path d="M.012,27.277A70.10534,70.10534,0,0,1,3.3434,15.41184,23.31022,23.31022,0,0,1,6.39868,9.91426a14.12419,14.12419,0,0,1,4.898-4.17328l1.52253-.63246L14.41942,4.727a9.65562,9.65562,0,0,1,1.61686-.17224c.549-.04366,1.07948-.06991,1.5748-.06954,2.02963-.02505,4.06816-.09759,6.19115.054a10.32873,10.32873,0,0,1,3.25848.70447,17.54228,17.54228,0,0,1,2.80882,1.59489c1.70614,1.13,3.38823,2.2061,5.12989,3.22887l-1.23263.16879c1.93978-1.9998,3.6633-4.33484,6.02772-6.271a9.73543,9.73543,0,0,1,4.198-2.09279,9.22327,9.22327,0,0,1,4.70148.361l-.45516-.02314a1.6549,1.6549,0,0,0,.84723-.49c.31161-.28392.62039-.67913,1.09255-1.08132A2.74523,2.74523,0,0,1,51.07339.116a2.81048,2.81048,0,0,1,.56244-.11552A5.00151,5.00151,0,0,1,52.188.029a4.40158,4.40158,0,0,1,1.64713.76484.74036.74036,0,0,1-.77716,1.26l-.06178-.03656a3.03232,3.03232,0,0,0-1.04232-.45044c-.27923-.02259-.42162.052-.71022.30291-.27491.251-.56956.6514-.965,1.06168a3.38454,3.38454,0,0,1-1.67129,1.0114.8612.8612,0,0,1-.42793-.01474l-.02762-.00839a7.39192,7.39192,0,0,0-3.7626-.211A8.32794,8.32794,0,0,0,41.023,5.49059c-2.07519,1.70175-3.79086,4.00909-5.811,6.1281a.99831.99831,0,0,1-1.23294.16882c-1.76131-1.05693-3.49992-2.19441-5.17849-3.33042a15.90923,15.90923,0,0,0-2.47625-1.45164,8.46043,8.46043,0,0,0-2.68214-.59377c-1.94035-.15965-3.98158-.11457-6.023-.10751-.52362-.00557-1.01.01692-1.47676.05133a8.63248,8.63248,0,0,0-1.41631.13049L13.348,6.78288l-1.30828.51619c-3.42325,1.6303-5.78747,5.05884-7.33026,8.69616A68.93444,68.93444,0,0,0,1.096,27.52622.55617.55617,0,0,1,.012,27.277Z" style="fill:#3f3350"/><ellipse cx="51.36909" cy="11.3205" rx="3.13519" ry="1.5522" transform="translate(8.80952 42.23361) rotate(-48.42071)" style="fill:#ffd740"/></svg>