<svg xmlns="http://www.w3.org/2000/svg" viewBox="0 0 109.3042 108.90726"><path d="M108.77842,51.72694a33.4976,33.4976,0,0,0-6.49726-20.00431c-1.78533-15.751-14.12916-27.9488-29.10179-27.9488a27.1897,27.1897,0,0,0-10.47115,2.1001A39.86425,39.86425,0,0,0,45.73686,1.02657C26.99437-.108,10.95452,11.25983,9.91078,26.41743c-.04788.695-.05252,1.384-.03672,2.06979A33.13407,33.13407,0,0,0,.61376,51.72694,33.144,33.144,0,0,0,9.79381,74.8835c.39759,17.23336,13.36418,31.07329,29.31352,31.07329a27.2449,27.2449,0,0,0,11.93005-2.75767c10.71436,7.69239,27.40037,6.47933,39.44669-3.52282,9.15675-7.60294,13.26054-18.3162,11.6975-27.80738A33.48809,33.48809,0,0,0,108.77842,51.72694Z" style="fill:#00a4a7"/><path d="M10.493,74.86738a35.99491,35.99491,0,0,0,2.46875,11.21131,32.33651,32.33651,0,0,0,6.007,9.68293,29.31787,29.31787,0,0,0,9.06592,6.842,27.97057,27.97057,0,0,0,11.07269,2.77962.57412.57412,0,0,1,0,1.14715,26.43061,26.43061,0,0,1-11.82946-2.28789A29.65572,29.65572,0,0,1,17.493,97.09861a32.369,32.369,0,0,1-6.27917-10.34367,33.29092,33.29092,0,0,1-2.1192-11.8553.69963.69963,0,0,1,1.39782-.0408Z" style="fill:#3f3350"/><path d="M73.17936,4.49324A26.52571,26.52571,0,0,0,62.98448,6.53648l-.00061.00024a.71844.71844,0,0,1-.61182-.02865l-.01306-.007A41.01408,41.01408,0,0,0,29.91972,4.20967a32.00174,32.00174,0,0,0-13.61481,9.15225A23.11858,23.11858,0,0,0,10.59166,28.468l.00006.00259.00006.01288a.71464.71464,0,0,1-.205.50611A31.53435,31.53435,0,0,0,3.606,39.41591a33.81067,33.81067,0,0,0-.13623,24.55362,31.71891,31.71891,0,0,0,6.69144,10.55685.51235.51235,0,0,1-.73475.71423A32.79531,32.79531,0,0,1,2.41981,64.38029,35.04111,35.04111,0,0,1,2.36635,38.926,32.91769,32.91769,0,0,1,9.36119,27.985l-.20477.51861L9.15635,28.501a23.13452,23.13452,0,0,1,1.31513-8.69959,25.732,25.732,0,0,1,4.38641-7.65048,33.28323,33.28323,0,0,1,14.38843-9.813A41.19942,41.19942,0,0,1,46.4937.15407,39.64246,39.64246,0,0,1,63.05729,5.24666L62.43278,5.211l.00067-.00027A27.96664,27.96664,0,0,1,73.17936,3.05439a.71944.71944,0,0,1,.00141,1.43888Z" style="fill:#3f3350"/><path d="M62.245,107.15355a34.0702,34.0702,0,0,0,14.95349-1.311A37.23924,37.23924,0,0,0,90.28477,98.543,33.69584,33.69584,0,0,0,99.2484,86.62564a27.46035,27.46035,0,0,0,2.30236-14.65276l-.0036-.02817a.63033.63033,0,0,1,.12317-.45965,33.5254,33.5254,0,0,0,.27771-39.51517.41488.41488,0,0,1,.66626-.49454,34.57942,34.57942,0,0,1,.07861,40.77726l.11951-.48749a27.18524,27.18524,0,0,1-1.82214,15.61282,34.09609,34.09609,0,0,1-9.42719,12.6563A37.37106,37.37106,0,0,1,77.704,107.521a33.528,33.528,0,0,1-15.66235.81517.60012.60012,0,0,1,.20343-1.18264Z" style="fill:#3f3350"/><ellipse cx="91.46661" cy="73.6757" rx="3.64176" ry="1.99516" transform="translate(-15.48049 122.22019) rotate(-63.26503)" style="fill:#00647e"/><ellipse cx="73.53494" cy="89.92117" rx="2.22453" ry="1.07884" transform="translate(-42.57061 93.48559) rotate(-52.48311)" style="fill:#00647e"/></svg>