<svg xmlns="http://www.w3.org/2000/svg" xmlns:xlink="http://www.w3.org/1999/xlink" viewBox="0 0 275.59894 215.22708"><defs><clipPath id="a" transform="translate(17.12715 54.80445)"><path d="M253.122,65.26454C149.11145,93.58017,40.71087,33.14225,6.30233.897,3.04254-2.15788-1.61512,3.24823.55723,7.25514,21.79861,46.43486,90.157,126.99032,244.62544,122.65653a4.33554,4.33554,0,0,0,3.84356-2.77572l9.63844-48.3326C259.52635,68.05756,256.57761,64.32379,253.122,65.26454Z" style="fill:none"/></clipPath></defs><path d="M253.122,65.26454C149.11145,93.58017,40.71087,33.14225,6.30233.897,3.04254-2.15788-1.61512,3.24823.55723,7.25514,21.79861,46.43486,90.157,126.99032,244.62544,122.65653a4.33554,4.33554,0,0,0,3.84356-2.77572l9.63844-48.3326C259.52635,68.05756,256.57761,64.32379,253.122,65.26454Z" transform="translate(17.12715 54.80445)" style="fill:#ff7043"/><g style="clip-path:url(#a)"><path d="M91.53022-10.35521C82.352-.14413,66.48986,3.56508,59.467,13.38559c-7.97987,11.1588-6.11784,27.35258-11.75263,38.06931-6.3302,12.03929-20.54433,19.83369-24.5389,31.40371-4.36911,12.65487,2.16208,27.67228-.23977,39.88323-2.54092,12.918-14.17095,24.11828-15.50507,36.68079" transform="translate(17.12715 54.80445)" style="fill:none;stroke:#3f3350;stroke-linecap:round;stroke-linejoin:round;stroke-width:2px"/><path d="M-16.12715,130.03477C-9.03025,118.16789,5.8779,111.4272,10.952,100.38435c5.77209-12.56179.94172-28.20295,4.5092-39.84877,4.018-13.11653,16.57228-23.48558,18.38634-35.656,1.99119-13.35871-7.17194-27.01072-7.04271-39.51842.13715-13.27486,9.51472-26.49835,8.51844-39.16562" transform="translate(17.12715 54.80445)" style="fill:none;stroke:#3f3350;stroke-linecap:round;stroke-linejoin:round;stroke-width:2px"/></g><path d="M7.69248,19.09035A205.19649,205.19649,0,0,0,45.46509,61.34523" transform="translate(17.12715 54.80445)" style="fill:none;stroke:#3f3350;stroke-linecap:round;stroke-linejoin:round;stroke-width:2px"/></svg>