<svg xmlns="http://www.w3.org/2000/svg" viewBox="0 0 55.53282 47.42797"><path d="M23.32425,46.97433a1.91561,1.91561,0,0,1-.61334.22016c-.27543.05815-.64044.12978-.97885.16886-.33864.03564-.68453.05751-.979.06358a2.314,2.314,0,0,1-.63949-.05279c-.25629-.52157-.43061-.55456-1.30053-.44184a.97459.97459,0,0,1-.866.01775,3.8682,3.8682,0,0,1-1.16137-.85349,10.32972,10.32972,0,0,0-1.33418-1.048A1.85243,1.85243,0,0,0,14.43,44.87133a1.22883,1.22883,0,0,1-1.13356-.10678c-.09187-.05314-.22782-.71216-.57472-.9325a.89991.89991,0,0,1-.28507-.55575,2.59054,2.59054,0,0,1-.053-.8793c-.1031-.07733-.117-.71222-.77483-.58531a1.3862,1.3862,0,0,0-.70355-.20868,2.12193,2.12193,0,0,1-.70221-.27186,8.3205,8.3205,0,0,0-2.07613-.41648,1.26124,1.26124,0,0,0-.13517-.10442L7.91711,40.753c-.036-.041-.07172-.07493-.11127-.11565-.147-.14972-.30468-.30954-.466-.47269-.326-.32285-.66974-.659-.99222-.97842A4.82687,4.82687,0,0,1,5.0141,37.30981c-.20181-.23552-.38934-.45751-.56237-.659a.47525.47525,0,0,1-.06165-.08582c-.023-.066-.04276-.139-.06577-.2084-.04253-.13546-.08517-.271-.12407-.403-.08143-.26415-.159-.51431-.22886-.7437-.28352-.93146-.49287-1.60909-.59755-1.94963A13.55973,13.55973,0,0,1,1.9706,30.31567Q1.489,29.09943.88918,27.45527c-.19842-.555-.408-1.13438-.62181-1.73816-.05341-.14923-.107-.30533-.16419-.46144l-.084-.23593c-.00408-.021-.01507-.03808-.01916-.05908l.03847-.09252.07424-.17085q.29889-.71532.60763-1.452C2.38,19.29842,4.36689,14.65646,6.58116,9.5437q.41568-.96126.84133-1.94041l.10637-.24572L7.58023,7.233c.01958-.03577.035-.09585.0592-.09665l.24775-.16263.49867-.33214c.67531-.44331,1.3573-.89384,2.053-1.35182,1.3983-.91274,2.84077-1.85494,4.31357-2.81914.2326-.09543.46509-.19431.69418-.293a6.00033,6.00033,0,0,1,.64333-.25272c.35322-.11682.71017-.22689,1.07042-.34039.72059-.22711,1.44809-.451,2.179-.67846l.54925-.16537L20.1631.65453a1.35681,1.35681,0,0,1,.19978-.03811l.72369-.12894C21.56948.412,22.04866.33318,22.52116.258A8.30054,8.30054,0,0,1,23.72032.14511c.35971-.02232.71286-.03731,1.0523-.045l.25279-.00827.22211.01031.42735.02816c.27806.02248.54208.042.79251.0688a5.06484,5.06484,0,0,1,1.09654.13968c.22326.04184.4635.07612.70011.10351a3.83641,3.83641,0,0,0,.71266.06085c.911-.01923,1.75966.06886,1.54619.43036-.206.37883.13754.3886.46868.02325A2.52124,2.52124,0,0,1,32.67125.16825c.68587-.1207,1.32857.02682,1.14942.3802-.11254.37221.39977.45717.78134.14643.30793-.333.81883-.39886,1.70207-.31546a9.957,9.957,0,0,1,1.6602.31079c.16764.0401.34242.08352.524.12328.18531.05008.38139.11037.58449.17387.40632.12713.85375.24234,1.33064.40929.40148.194.85857.38971,1.33287.58475.47464.202.96063.43539,1.43539.64455a12.67205,12.67205,0,0,1,1.28668.65641,8.86113,8.86113,0,0,1,.94437.57633c.22422.17865.53611.38613.90091.62344.18421.12027.38247.24719.58786.38088.1952.13747.40106.28527.61054.43628.40854.30259.85219.62148,1.2449.97016A14.34742,14.34742,0,0,1,49.8214,7.326C51.545,9.3651,51.43,10.19019,51.179,10.57393a1.48942,1.48942,0,0,0-.19064,1.37863c.20991.37578.15475,1.234.33656,1.60007a4.29015,4.29015,0,0,0,1.202,1.67017,2.10356,2.10356,0,0,1,.65864.63825,1.49016,1.49016,0,0,1,.16288.31763c-.41615.20315-.29651.57833.31857,1.04959a5.433,5.433,0,0,1,.85849,2.18677c.165.80537.09086,1.50984-.12315,1.64312.00466.035-.00866.15826-.03437.43291-.036.275-.03925.70677-.13289,1.34162-.03816.31719-.08162.68358-.13344,1.1135a12.163,12.163,0,0,1-.209,1.45294c-.10716.54057-.19458,1.1542-.33895,1.82583-.18276.66589-.35259,1.4085-.58638,2.20934a6.87028,6.87028,0,0,0-.2474,1.33847c-.03417.6539-.11139,1.576-.27759,3.17154-.189.68709-.39114,1.29047-.59526,1.83409a14.99171,14.99171,0,0,1-.684,1.451c-.11748.2214-.23178.43581-.35335.64334-.13549.201-.2643.39473-.393.59549-.268.38786-.54312.77594-.83869,1.1717-1.30135.90946-1.71162,1.40024-1.57282,1.83093-.18782.19225.06251.53146-.03814.633-.094.09434.0522.53892-.14582.73838a2.72423,2.72423,0,0,0-.29662.57489,2.09277,2.09277,0,0,1-.41622.62783,4.80368,4.80368,0,0,0-.67278.83976c-.24575.32755-.579-.32146-.86977-.09784a7.89553,7.89553,0,0,1-.51835.68386,5.58331,5.58331,0,0,1-.60573.55675,5.134,5.134,0,0,1-1.27853.76142Z" style="fill:#fffef9;fill-rule:evenodd"/><path d="M5.37382,13.63908A24.93678,24.93678,0,0,0,1.9672,24.58525a18.6456,18.6456,0,0,0,2.7146,11.056.57337.57337,0,0,1-.96179.62424A20.01444,20.01444,0,0,1,.39506,24.52361,26.71625,26.71625,0,0,1,3.62577,12.66725a1.00016,1.00016,0,0,1,1.76575.93991Z" style="fill:#3f3350"/><path d="M53.57145,19.71443a49.21127,49.21127,0,0,0-2.94983-7.79657A24.44184,24.44184,0,0,0,45.933,5.17812,14.67,14.67,0,0,0,38.857,1.26051,20.34008,20.34008,0,0,0,30.58781,1.243l-.006.0011a.31608.31608,0,0,1-.12622-.6193A21.13929,21.13929,0,0,1,39.06083.308a15.82518,15.82518,0,0,1,7.769,3.90692A25.90275,25.90275,0,0,1,52.094,11.15556a51.002,51.002,0,0,1,3.38562,7.96,1.00022,1.00022,0,1,1-1.89465.64193Z" style="fill:#3f3350"/><ellipse cx="16.10623" cy="25.69318" rx="2.00485" ry="2.42716" transform="translate(-6.09022 5.0324) rotate(-14.96989)" style="fill:#ffd740"/><ellipse cx="36.7619" cy="17.49147" rx="3.16903" ry="1.53551" transform="translate(-3.37782 10.69501) rotate(-15.83513)" style="fill:#ffd740"/><ellipse cx="38.16248" cy="29.12202" rx="1.5522" ry="3.13519" transform="translate(-9.7115 32.66439) rotate(-41.57929)" style="fill:#ffd740"/><ellipse cx="22.98063" cy="9.6856" rx="2.13352" ry="2.24968" transform="translate(9.45146 30.6351) rotate(-79.99953)" style="fill:#ffd740"/></svg>