<?xml version="1.0" encoding="utf-8"?>
<!-- Generator: Adobe Illustrator 25.3.1, SVG Export Plug-In . SVG Version: 6.00 Build 0)  -->
<svg version="1.1" xmlns="http://www.w3.org/2000/svg" xmlns:xlink="http://www.w3.org/1999/xlink" x="0px" y="0px"
	 viewBox="0 0 500 300" style="enable-background:new 0 0 500 300;" xml:space="preserve">
<style type="text/css">
	.st0{display:none;}
	.st1{display:inline;fill:none;stroke:#3F3350;stroke-width:2;stroke-linecap:round;stroke-linejoin:round;}
	.st2{fill:#FFFFFF;}
	.st3{fill:#FF7043;}
	.st4{fill:#3F3350;}
	.st5{fill:none;stroke:#3F3350;stroke-width:2;stroke-linecap:round;stroke-linejoin:round;}
	.st6{fill:#D84315;}
	.st7{display:inline;}
	.st8{display:inline;fill:#3F3350;}
</style>
<g id="Layer_3" class="st0">
	<path class="st1" d="M416.7,178.3c-20.6-15.4-5.2-31.4-4.9-31.8c0,0,18.4,2.6,14.2,28"/>
</g>
<g id="Layer_1">
	<path class="st2" d="M463.4,183.7c-22.2-12.8-41.1-11.3-59.7-8.2s-66.7,18.9-117,22.7c-4.9,0.4-1.5,11.6,0.3,15.2
		c5.7,11.4,38.1,18.7,38.1,18.7s71.3,7.5,107,24.3c4,1.8,7.9,4.1,11.5,6.7l7.4-6.2"/>
	<path class="st3" d="M465,183.7c-21.2-13.6-40.8-7.2-60-3.7c-18.5,3.4-74.4,20.5-118.5,20.2c-4.9,0-2.4,4.8-1.4,9.6
		c2.4,11.8,41.3,23.4,41.3,23.4s103.4,11.7,118.8,30.9C473.5,253.8,479.5,222.7,465,183.7z"/>
	<path class="st4" d="M332.3,217.8c-1.6,1.9-3.5,3.6-5.5,5c-2.1,1.4-4.3,2.6-6.7,3.4c-2.4,0.8-4.9,1.3-7.5,1.2
		c-2.5,0-5.1-0.5-7.4-1.4c-0.4-0.1-0.7-0.6-0.5-1.1c0.1-0.4,0.6-0.6,1-0.5l0.1,0l1.7,0.4c0.6,0.2,1.1,0.3,1.7,0.3l1.7,0.2
		c0.6,0,1.2,0,1.7,0l0.9,0l0.9-0.1c0.6-0.1,1.2-0.1,1.7-0.2l1.7-0.4c0.6-0.1,1.1-0.3,1.7-0.5c2.2-0.7,4.4-1.7,6.3-3
		c1-0.6,2-1.3,2.9-2.1c0.9-0.7,1.8-1.5,2.7-2.3l0,0c0.2-0.3,0.6-0.3,0.9,0C332.5,217.2,332.5,217.6,332.3,217.8L332.3,217.8z"/>
	<path class="st4" d="M337.7,216.3c-0.3,0.5-0.8,1-1.3,1.3c-0.5,0.3-1,0.6-1.6,0.8c-1.2,0.5-2.6,0.4-3.8-0.1
		c-1.2-0.6-2.1-1.6-2.6-2.8c-0.2-0.5-0.4-1.1-0.5-1.7c-0.1-0.6-0.2-1.1-0.2-1.7c0-0.4,0.3-0.7,0.7-0.7c0.3,0,0.5,0.1,0.6,0.4l0,0.1
		c0.2,0.5,0.4,1,0.5,1.4c0.2,0.4,0.4,0.9,0.6,1.3c0.4,0.8,1,1.4,1.7,1.9c0.8,0.4,1.6,0.5,2.5,0.4c1-0.1,1.9-0.4,2.8-0.9l0.1-0.1
		c0.1-0.1,0.3,0,0.3,0.1C337.8,216.1,337.8,216.2,337.7,216.3L337.7,216.3z"/>
	<path class="st5" d="M463.4,183.7c-9-5.3-18.9-8.6-29.3-9.8c-10.5-1.2-20.5,0-30.5,1.7c-18.6,3.1-66.7,18.9-117,22.7
		c-4.9,0.4-1.7,11,0.3,15.2c4.2,9.1,38.1,18.7,38.1,18.7s71.3,7.5,107,24.3c4,1.8,7.9,4.1,11.5,6.7"/>
	
		<ellipse transform="matrix(0.1696 -0.9855 0.9855 0.1696 40.2847 457.3912)" class="st4" cx="291.6" cy="204.8" rx="2.8" ry="1.9"/>
	<ellipse transform="matrix(0.1696 -0.9855 0.9855 0.1696 40.7095 464.4007)" class="st4" cx="295.9" cy="208" rx="2.8" ry="1.9"/>
	
		<ellipse transform="matrix(0.9515 -0.3076 0.3076 0.9515 -44.656 114.7559)" class="st6" cx="341.7" cy="199.1" rx="1.4" ry="0.9"/>
	<ellipse transform="matrix(0.9352 -0.354 0.354 0.9352 -48.8779 129.3754)" class="st6" cx="329.2" cy="198.3" rx="0.7" ry="0.9"/>
	
		<ellipse transform="matrix(0.9991 -4.331686e-02 4.331686e-02 0.9991 -8.1903 16.7573)" class="st6" cx="382.6" cy="197.4" rx="1.9" ry="1.1"/>
	
		<ellipse transform="matrix(0.9452 -0.3266 0.3266 0.9452 -40.8896 145.6313)" class="st6" cx="413.3" cy="194.6" rx="0.7" ry="0.9"/>
	<ellipse transform="matrix(0.4031 -0.9151 0.9151 0.4031 82.6473 490.6877)" class="st6" cx="417.5" cy="182" rx="1.7" ry="1.2"/>
	<ellipse transform="matrix(0.9803 -0.1977 0.1977 0.9803 -30.0983 78.2855)" class="st6" cx="377" cy="189.9" rx="3.6" ry="0.8"/>
	<ellipse transform="matrix(0.9661 -0.2581 0.2581 0.9661 -32.7503 115.3375)" class="st6" cx="423" cy="182.4" rx="1.1" ry="0.6"/>
	<ellipse transform="matrix(0.3066 -0.9519 0.9519 0.3066 92.2633 516.2625)" class="st6" cx="400.5" cy="194.8" rx="1.4" ry="1"/>
	<ellipse transform="matrix(0.989 -0.1482 0.1482 0.989 -23.5304 63.9699)" class="st6" cx="417.5" cy="189.9" rx="1.4" ry="1"/>
	<ellipse transform="matrix(0.3066 -0.9519 0.9519 0.3066 101.0211 516.7732)" class="st6" cx="405.2" cy="189.1" rx="1" ry="0.7"/>
	<path class="st6" d="M427.7,187.7c0.5,0,0.9,0.6,0.7,1.4s-1.2,4.6-1.7,4.6s-0.4-3.9-0.2-4.6S427.1,187.7,427.7,187.7z"/>
	
		<ellipse transform="matrix(0.9996 -2.674006e-02 2.674006e-02 0.9996 -5.0333 10.4859)" class="st6" cx="389.6" cy="193.4" rx="1.6" ry="0.9"/>
	<ellipse transform="matrix(0.5678 -0.8232 0.8232 0.5678 15.7911 403.9677)" class="st6" cx="392.6" cy="186.9" rx="1.3" ry="1"/>
	<ellipse transform="matrix(0.9191 -0.394 0.394 0.9191 -39.285 175.2293)" class="st6" cx="407.1" cy="183.3" rx="1.9" ry="1.1"/>
	
		<ellipse transform="matrix(0.9994 -3.582255e-02 3.582255e-02 0.9994 -6.8477 13.0116)" class="st6" cx="359.7" cy="197.6" rx="1" ry="1.4"/>
	
		<ellipse transform="matrix(0.9994 -3.582255e-02 3.582255e-02 0.9994 -6.7417 12.6336)" class="st6" cx="349.2" cy="194.5" rx="0.7" ry="1"/>
	
		<ellipse transform="matrix(0.9256 -0.3785 0.3785 0.9256 -45.6589 150.9677)" class="st6" cx="361.2" cy="191.6" rx="1.6" ry="0.9"/>
	<ellipse transform="matrix(0.2544 -0.9671 0.9671 0.2544 85.946 506.4376)" class="st6" cx="371.4" cy="197.5" rx="1.3" ry="1"/>
	<path class="st6" d="M436.8,189.1c0.2-3.7,4.8,4.6-10.5,5.9c-21.9,1.9-36.2-1.3-100.4,10.7l0.4,2.2
		C392.6,200.7,435.1,218.6,436.8,189.1z"/>
	<path class="st4" d="M325.8,205.3c9.3-2.2,18.7-4.1,28.2-5.6c9.5-1.5,19-2.6,28.6-3.2c4.8-0.3,9.6-0.5,14.4-0.6
		c4.8-0.1,9.6-0.1,14.3-0.2c4.7,0,9.4-0.5,14.1-1.5c2.3-0.5,4.5-1.1,6.7-1.9c2.1-0.8,3.9-2.1,4.2-4.3c0-0.3,0.3-0.6,0.7-0.5
		c0.3,0,0.5,0.3,0.5,0.6v0c0,1.4-0.5,2.7-1.5,3.7c-0.9,0.9-2,1.7-3.2,2.2c-2.3,0.9-4.6,1.7-7,2.1c-4.8,0.9-9.6,1.4-14.5,1.4
		c-4.8,0.1-9.6,0.1-14.4,0.1c-4.8,0.1-9.5,0.2-14.3,0.5c-9.5,0.5-19,1.5-28.5,2.9c-9.5,1.3-18.9,3.1-28.2,5.1
		c-0.2,0-0.4-0.1-0.4-0.3C325.5,205.5,325.6,205.3,325.8,205.3L325.8,205.3z"/>
	
		<ellipse transform="matrix(0.9617 -0.2739 0.2739 0.9617 -43.1758 118.6905)" class="st2" cx="403.4" cy="213.9" rx="9.9" ry="9.8"/>
	<path class="st4" d="M403.8,224c-2,0.2-4.1-0.2-5.9-1.1c-1.8-1-3.3-2.5-4.3-4.4c-0.5-0.9-0.8-2-1-3c-0.2-1-0.2-2.1,0-3.2
		c0.2-1.1,0.5-2.1,0.9-3c0.5-1,1.1-1.8,1.8-2.6c3-3.2,7.6-4.3,11.7-2.8c1,0.4,1.9,0.9,2.8,1.5c0.8,0.6,1.6,1.4,2.2,2.3
		c0.6,0.9,1,1.8,1.4,2.8c0.3,1,0.5,2,0.5,3c0,0.3-0.2,0.5-0.5,0.5c-0.3,0-0.5-0.2-0.5-0.5l0,0c-0.4-3.7-2.8-6.8-6.3-7.9
		c-1.7-0.5-3.5-0.6-5.2-0.2c-0.8,0.2-1.6,0.6-2.4,1c-0.7,0.5-1.4,1-2,1.6c-2.5,2.6-3.1,6.5-1.7,9.8c1.5,3.4,4.9,5.7,8.7,5.7
		c0.1,0,0.2,0.1,0.2,0.2C404,223.9,403.9,224,403.8,224L403.8,224z"/>
	<path class="st4" d="M297.6,214.3c0,0,0.3-0.1,0.5-0.2c0.2-0.1,0.4-0.2,0.6-0.4c0.4-0.3,0.7-0.6,1.1-0.9c0.6-0.6,1.2-1.3,1.6-2.1
		c0.4-0.7,0.5-1.6,0.4-2.4c-0.1-0.8-0.5-1.5-1-2.2l-0.1-0.1c-0.3-0.5-0.2-1.1,0.3-1.4s1.1-0.2,1.4,0.3c0,0,0,0.1,0,0.1
		c0.6,1,0.9,2,1,3.2c0,1.1-0.3,2.2-0.9,3.1c-0.6,0.9-1.3,1.6-2.1,2.3c-0.4,0.3-0.8,0.6-1.3,0.8c-0.2,0.1-0.5,0.2-0.7,0.3
		c-0.1,0.1-0.2,0.1-0.4,0.1c-0.2,0.1-0.3,0.1-0.5,0.1c-0.2,0-0.3-0.1-0.3-0.3c0-0.1,0-0.1,0.1-0.2L297.6,214.3z"/>
</g>
<g id="Layer_2" class="st0">
	<g class="st7">
		<path class="st2" d="M440.3,177.4c19-27.1-7.1-40.1-7.7-40.4c0,0-21.8,10.8-5.5,39.7"/>
		<path class="st3" d="M438.9,181.4c16.5-26.6-4.8-40.4-5.3-40.7c0,0-18.5,12-4.4,40.3"/>
		<path class="st6" d="M433,177.4c-0.9-0.1,11.6-17.3,1.7-35.1l-2.3-4.8c16.2,10.4,17.5,25.7,8,41.3L433,177.4z"/>
		<path class="st5" d="M440.3,178.7c19-28.1-7.1-41.4-7.7-41.7c0,0-21.8,11.1-5.5,41"/>
		<path class="st4" d="M432.1,176.9c1.5-2.9,2.7-6.1,3.6-9.3c0.9-3.2,1.4-6.5,1.6-9.9c0.2-3.3-0.2-6.7-1-9.9l-0.7-2.4l-1-2.3
			c-0.2-0.4-0.3-0.8-0.5-1.2l-0.6-1.1l-1.2-2.2l0,0c-0.1-0.2,0-0.4,0.2-0.6c0.2-0.1,0.4,0,0.5,0.1l1.3,2.2l0.7,1.1
			c0.2,0.4,0.4,0.8,0.5,1.2l1.1,2.4l0.8,2.5c1,3.3,1.4,6.8,1.3,10.2c-0.1,3.5-0.5,6.9-1.3,10.3c-0.8,3.4-2,6.7-3.5,9.8
			c-0.2,0.5-0.8,0.7-1.3,0.5S431.8,177.5,432.1,176.9L432.1,176.9L432.1,176.9z"/>
		<path class="st4" d="M429.6,177.2c0.3-1.8,0.4-3.7,0.3-5.5c-0.1-1.9-0.3-3.7-0.7-5.5c-0.4-1.8-0.8-3.6-1.4-5.4
			c-0.6-1.8-1.3-3.5-2.1-5.2l0,0c-0.1-0.3,0-0.6,0.3-0.7c0.3-0.1,0.6,0,0.7,0.2c0.9,1.7,1.7,3.5,2.3,5.3c0.7,1.8,1.2,3.7,1.7,5.5
			c0.5,1.9,0.8,3.8,0.9,5.7c0.2,2,0.1,3.9-0.1,5.9c-0.1,0.5-0.5,0.9-1.1,0.9C429.9,178.4,429.5,177.9,429.6,177.2L429.6,177.2
			L429.6,177.2z"/>
	</g>
	<ellipse transform="matrix(0.9617 -0.2739 0.2739 0.9617 -42.3991 116.3061)" class="st8" cx="395.2" cy="210" rx="4.7" ry="4.7"/>
</g>
</svg>
