<?xml version="1.0" encoding="utf-8"?>
<!-- Generator: Adobe Illustrator 25.3.1, SVG Export Plug-In . SVG Version: 6.00 Build 0)  -->
<svg version="1.1" id="Layer_1" xmlns="http://www.w3.org/2000/svg" xmlns:xlink="http://www.w3.org/1999/xlink" x="0px" y="0px"
	 viewBox="0 0 119.1 172" style="enable-background:new 0 0 119.1 172;" xml:space="preserve">
<style type="text/css">
	.st0{fill:#00A4A7;}
	.st1{fill:#3F3350;}
	.st2{fill:#00647E;}
</style>
<path class="st0" d="M118.6,55.2c0-7.7-2.5-15.2-7.1-21.4C109.6,17,96.1,4,79.8,4C75.9,4,72,4.7,68.3,6.2c-5.7-3.1-12-4.8-18.5-5.2
	C29.4-0.2,11.9,12,10.8,28.2c-0.1,0.7-0.1,1.5,0,2.2C-2.7,44.1-2.8,66.1,10.6,79.9c0.4,18.4,14.6,33.2,32,33.2c4.5,0,8.9-1,13-2.9
	c11.7,8.2,29.9,6.9,43-3.8c10-8.1,14.5-19.6,12.8-29.7C116.1,70.5,118.6,63,118.6,55.2z"/>
<path class="st1" d="M11.3,79.9c0.2,4.2,1.1,8.2,2.7,12.1c1.6,3.8,3.8,7.3,6.6,10.4c2.8,3,6.2,5.5,9.9,7.3c3.8,1.8,7.9,2.7,12,2.9
	c0.3,0,0.6,0.3,0.6,0.6c0,0.3-0.3,0.5-0.6,0.6c-4.4,0.2-8.7-0.7-12.8-2.4c-4-1.8-7.6-4.3-10.6-7.5c-3-3.2-5.3-7-6.9-11
	c-1.6-4.1-2.4-8.4-2.4-12.8c0-0.4,0.3-0.7,0.7-0.7C11,79.3,11.3,79.5,11.3,79.9L11.3,79.9z"/>
<path class="st1" d="M79.8,4.7c-3.8,0-7.6,0.7-11.2,2.2l0,0c-0.2,0.1-0.4,0.1-0.6,0l0,0C62.6,4.1,56.7,2.4,50.6,2
	c-6.1-0.5-12.1,0.3-17.9,2.3C27,6.2,21.8,9.6,17.8,14c-4.1,4.5-6.3,10.3-6.4,16.3v0l0,0c0,0.2-0.1,0.4-0.2,0.5
	C8,34.1,5.5,37.8,3.8,42c-3.4,8.4-3.5,17.9-0.1,26.3c1.7,4.2,4.1,8,7.3,11.3c0.2,0.2,0.2,0.5,0,0.7c-0.2,0.2-0.5,0.2-0.7,0
	C7,77,4.4,73.1,2.6,68.7c-3.5-8.7-3.5-18.5,0-27.2c1.7-4.3,4.3-8.3,7.6-11.6L10,30.4l0,0c-0.1-3.2,0.4-6.4,1.5-9.4
	c1.1-3,2.8-5.8,4.9-8.2C20.6,8,26,4.4,32.1,2.4c3-1,6.1-1.7,9.2-2.1c3.1-0.4,6.3-0.4,9.4-0.2C57,0.7,63.2,2.5,68.7,5.6l-0.6,0l0,0
	c3.7-1.5,7.7-2.3,11.7-2.3c0.4,0,0.7,0.3,0.7,0.7C80.5,4.4,80.2,4.7,79.8,4.7L79.8,4.7z"/>
<path class="st1" d="M67.8,114.5c5.4,0.7,11,0.3,16.2-1.3c5.2-1.6,10.1-4.2,14.3-7.7c4.2-3.5,7.6-7.8,9.9-12.8
	c2.3-4.9,3.2-10.4,2.6-15.8l0,0c0-0.2,0-0.3,0.1-0.5c9.5-12.5,9.6-29.7,0.3-42.3c-0.1-0.2-0.1-0.4,0.1-0.6c0.2-0.1,0.4-0.1,0.6,0.1
	c9.7,12.9,9.7,30.6,0.1,43.5l0.1-0.5c1,5.7,0.3,11.6-2.1,16.8c-2.4,5.2-5.9,9.9-10.4,13.5c-4.4,3.6-9.5,6.3-15.1,7.9
	c-5.5,1.6-11.3,1.9-16.9,0.8c-0.3-0.1-0.5-0.4-0.5-0.7C67.2,114.6,67.5,114.4,67.8,114.5L67.8,114.5z"/>
<path class="st1" d="M62,79.1l0.1,91.9c0,0.6-0.4,1-1,1s-1-0.4-1-1v0l0.1-91.9c0-0.5,0.4-0.9,0.9-0.9C61.6,78.1,62,78.6,62,79.1z"/>
<ellipse transform="matrix(0.9728 -0.2317 0.2317 0.9728 -16.3527 9.9477)" class="st2" cx="34.2" cy="74.6" rx="2.8" ry="1.7"/>
<ellipse transform="matrix(0.312 -0.9501 0.9501 0.312 -45.6291 56.4225)" class="st2" cx="16.1" cy="59.7" rx="2.1" ry="5.3"/>
</svg>
