<svg xmlns="http://www.w3.org/2000/svg" viewBox="0 0 1170 520"><path d="M967.17273,226.914c8.25432,42.97572,126.5516,1.865,127.49448,53.15916,18.59851-1.36268-3.9412,36.7554,14.65358,34.15431l4.95555-.69923q1.23879-.17623,2.47778-.35361l4.95584-.71339h0l4.956-.71919q1.239-.18032,2.47807-.36088c23.92886-3.48528-64.73561,32.9625-40.23636,63.52577l1.9082,2.38847c2.54312,3.19328,5.08171,6.4186,7.61415,9.64592,16.71051,21.29534,5.66915,42.992,3.07917,45.85127a154.54105,154.54105,0,0,0-12.21581,16.2265l-1.06025,1.55854h0l-1.06053,1.56393c-12.905,19.04393-25.89739,38.38-40.02586,25.16044-27.97852-26.18108-55.01069-12.41413-81.32252,1.26228l-1.87813.97623c-4.37956,2.2749-8.7393,4.52081-13.08026,6.55238-26.54227,12.42251-52.7998,11.002-79.18581,7.83379l-3.59894-.44175q-3.59978-.45028-7.20349-.92115l-3.60513-.46586c-4.80838-.61888-9.62358-1.22287-14.44795-1.73925q-6.249-.66894-12.50992-1.42638l-4.17437-.50123h0l-4.176-.50559h0l-6.26642-.75558c-40.391-4.82731-80.89817-8.48932-120.18137,9.68846-17.9667,8.31366-31.57359,53.67873-49.87156-10.63112-23.26973-81.78889-31.04292-170.31387-22.34051-282.45094,2.19888-28.3331,4.17468-31.70954,22.31213-28.33871,6.393,20.82194,13.49844,34.47292,21.07794,43.8741,4.20371-5.43893,8.46467-7.28808,12.828-1.73784,16.08252,20.45979,31.97828,9.44454,47.48483-3.05157L728.247,213.52q.30959-.2511.61917-.50246l1.85511-1.50743q.30882-.25082.61745-.50108l1.23373-.99752c2.05473-1.65593,4.102-3.27423,6.1416-4.78374,18.38265-13.60643,36.38352-12.00758,54.51817-10.09611l3.54993.37383c2.76255.28742,5.529.5596,8.30119.76407q2.78921.20579,5.58183.45514l2.7933.25161q2.09536.19253,4.19227.39122l2.79607.26157h0l2.797.25545c24.24287,2.1708,41.51007,15.2288,65.2946-2.19939,2.22164-1.62783,52.46651,19.8025,54.53513,16.62249l.61883-.96092h0l.61556-.97062C952.08312,198.04543,959.09259,184.848,967.17273,226.914Z" style="fill:#fff8e1;fill-rule:evenodd"/><path d="M358.93289,445.22624c-84.05278-40.08253-158.75089-14.92812-233.45907,10.92107C102.9683,463.93207,74.7071,435.98813,46.38136,404.389l-3.54065-3.9666q-2.65514-2.98582-5.30683-5.99089c-13.70474-15.51484-13.77325-33.49833-12.00348-43.631l.16064-.8734a26.943,26.943,0,0,1,2.01614-6.72936C41.479,318.3208,51.192,267.20241,72.14338,284.64983c28.96369,24.1223,51.59258,7.1805,73.36348-11.37042l2.66189-2.27686c4.43062-3.79933,8.83479-7.59858,13.25913-11.06237,26.25281-20.55446,54.861-20.89374,83.71293-21.12631l5.773-.05109c3.85-.041,7.70186-.104,11.55048-.23657,22.02859-.75831,44.35631-.26043,66.1651-2.81743-.01015-.1363-.0201-.27939-.03-.42247l31.12342-5.88112a125.187,125.187,0,0,0,40.39563-20.84645c3.91319-3.03413,7.22-8.63781,10.4-14.24743l.827-1.46185h0l.82312-1.452c8.67612-15.24121,17.02272-27.1457,35.05676,17.83773,11.358-8.46383,23.52286-9.89638,35.84672-10.48206l3.83666-.16172c3.84035-.14816,7.68953-.27655,11.52811-.57115,28.76442-2.20666,58.53671.71191,83.15942-28.9596,1.94816-2.34752,3.57655-6.33407,5.10882-10.57324l.50748-1.42051c.42044-1.18844.83545-2.38443,1.2497-3.5583l.49712-1.39616c4.80789-13.357,9.77963-22.14,22.3998,20.03123,14.35893,47.98324,25.74041,99.36718,34.499,158.04177,21.16973-5.49424,42.10943-12.65379,63.02734-20.02288l6.69329-2.36353c24.8274-8.77837,56.76259,26.74109,88.05466,62.65126,13.11076,15.04545,13.80364,32.39635,12.3192,42.9089l-.14771.98023q-.03843.23979-.07815.47408l-.15874.88864a27.7421,27.7421,0,0,1-2.00157,6.84769c-13.71709,25.32355-24.40949,45.02321-45.394,27.30587M266.27058,408.28187l.08328-2.62028c.06889-2.21813.13724-4.51789.20939-6.86441l.14917-4.69705q.03718-1.126.07655-2.25769-2.99084-.37413-5.98228-.64477c.06185,16.12264.25886,29.78313,1.748,34.88486C265.10623,434.82374,265.75205,424.17123,266.27058,408.28187Z" style="fill:#fff8e1;fill-rule:evenodd"/></svg>