<?xml version="1.0" encoding="utf-8"?>
<!-- Generator: Adobe Illustrator 25.4.1, SVG Export Plug-In . SVG Version: 6.00 Build 0)  -->
<svg version="1.1" id="Layer_1" xmlns="http://www.w3.org/2000/svg" xmlns:xlink="http://www.w3.org/1999/xlink" x="0px" y="0px"
	 viewBox="0 0 18.5 34" style="enable-background:new 0 0 18.5 34;" xml:space="preserve">
<style type="text/css">
	.st0{fill:#FF7043;}
	.st1{fill:#3F3350;}
</style>
<rect x="1.3" y="0.5" class="st0" width="15.9" height="32.4"/>
<path class="st1" d="M16.4,31.6c-0.2-2.5-0.3-5.1-0.4-7.6c-0.1-2.5-0.1-5.1-0.1-7.6c0-2.5,0-5.1,0-7.6c0-2.5,0-5.1,0.1-7.6l1.2,1.2
	L1.3,2C0.9,2,0.5,1.6,0.5,1.2c0-0.4,0.4-0.8,0.8-0.8L17.2,0c0.7,0,1.2,0.5,1.2,1.2c0,0,0,0,0,0l0,0l0,0.1c0,2.5,0.1,5.1,0.1,7.6
	c0,2.5,0,5.1,0,7.6c0,2.5,0,5.1-0.1,7.6c0,2.5-0.2,5.1-0.4,7.6c0,0.4-0.4,0.8-0.8,0.7C16.7,32.3,16.4,32,16.4,31.6L16.4,31.6z"/>
<path class="st1" d="M2.1,9.1c0.2,1.9,0.4,3.7,0.4,5.6c0,1.9,0.1,3.7,0.1,5.6c0,1.9,0,3.7-0.1,5.6c0,1.9-0.1,3.8-0.5,5.6
	c-0.1,0.4-0.5,0.7-1,0.6c-0.3-0.1-0.6-0.3-0.6-0.6C0.2,29.8,0,27.9,0.1,26C0,24.1,0,22.2,0,20.4c0-1.9,0-3.7,0.1-5.6
	c0-1.9,0.2-3.8,0.4-5.6C0.6,8.7,1,8.4,1.4,8.5C1.8,8.5,2,8.8,2.1,9.1z"/>
<path class="st1" d="M17.4,33.5c-1.4,0.2-2.7,0.4-4.1,0.4c-1.4,0-2.8,0.1-4.1,0.1c-1.4,0-2.8,0-4.1-0.1c-1.4,0-2.8-0.1-4.1-0.5
	c-0.3-0.1-0.5-0.5-0.5-1c0-0.3,0.2-0.6,0.5-0.6c1.4-0.3,2.7-0.5,4.1-0.5c1.4,0,2.8-0.1,4.1-0.1c1.4,0,2.8,0,4.1,0.1
	c1.4,0,2.8,0.2,4.1,0.4c0.3,0.1,0.5,0.5,0.5,0.9C17.9,33.2,17.7,33.4,17.4,33.5z"/>
</svg>
