<?xml version="1.0" encoding="utf-8"?>
<!-- Generator: Adobe Illustrator 25.3.1, SVG Export Plug-In . SVG Version: 6.00 Build 0)  -->
<svg version="1.1" xmlns="http://www.w3.org/2000/svg" xmlns:xlink="http://www.w3.org/1999/xlink" x="0px" y="0px"
	 viewBox="0 0 2000 150" style="enable-background:new 0 0 2000 150;" xml:space="preserve">
<style type="text/css">
	.st0{opacity:0.5435;fill-rule:evenodd;clip-rule:evenodd;fill:#FFECB3;enable-background:new    ;}
	.st1{fill-rule:evenodd;clip-rule:evenodd;fill:#FFF8E1;}
</style>
<g id="Layer_1">
	<g id="Design">
		<g id="Home" transform="translate(-823.000000, -2730.000000)">
			<g id="How-it-works" transform="translate(0.000000, 2619.000000)">
				<g id="Group-173" transform="translate(1.000000, 0.000000)">
					<g id="Group-5" transform="translate(24.000000, -91.000000)">
						<g id="Group-9" transform="translate(798.763693, 0.000000)">
							<g id="Group-14" transform="translate(-0.000000, 202.546494)">
								<path id="Fill-99" class="st0" d="M280.3,68.1c-13.3,1-26.5,1.5-39.8,1.8c-13.3,0.3-26.5,0.3-39.8,0.2
									c-13.3-0.1-26.5-0.3-39.8-0.5c-13.3-0.3-26.5-0.7-39.8-1.4c-0.7,0-1.2-0.6-1.1-1.3c0-0.6,0.5-1.1,1.1-1.1
									c13.3-0.7,26.5-1.1,39.8-1.4c13.3-0.3,26.5-0.5,39.8-0.5c13.3-0.1,26.5-0.1,39.8,0.2c13.3,0.3,26.5,0.7,39.8,1.8
									c0.7,0.1,1.2,0.6,1.1,1.3C281.4,67.6,280.9,68.1,280.3,68.1"/>
								<path id="Fill-1" class="st1" d="M505.4,114.3l0,0.4c0,0.3,0,0.6,0,0.9l0,0.6c0,0.1,0,0.2,0,0.3c1.1,0,2.2,0.1,3.4,0.1
									c-0.3-2.2-0.5-4-1.5-4.7C505.7,110.7,505.5,112.1,505.4,114.3 M541.7,94.3c4.5,6.6,7.1,13.7,7.8,21.7
									c12.2-0.5,24.4-1.3,36.6-2l3.9-0.2c14.5-0.9,29.7,4.2,44.5,9.4c6.2,2.2,5.3,4.5,3.8,5.9l-0.2,0.1l-0.1,0.1l-0.2,0.1
									c-0.6,0.5-1.3,0.8-1.6,0.9c-9.5,3.3-18.6,10.2-29,7.6c-13.1-3.3-25.7-1.9-38,0.2l-1.6,0.3c-0.8,0.1-1.6,0.3-2.3,0.4
									l-1.6,0.3l-1.6,0.3c-2.2,0.4-4.3,0.7-6.4,1.1c-15.7,2.5-31.2,2.3-46.9,2l-3.1-0.1c-2.6,0-5.2-0.1-7.8-0.1
									c-2.3,0-4.6-0.1-6.9-0.1l-5.2-0.1l-1.7,0l-3.5,0c-6.7-0.1-13.3-0.1-20-0.1c-1.1,3.8-2.5,4.3-11.7,4
									c-1.5-1.4-3.1-2.5-4.8-3.5c-8.5,0.4-16.9,1.2-25.2,2.5c-2.5,0.4-4.8,1.2-7,1.9l-0.6,0.2l-0.6,0.2c-6,2-11.6,3.5-18.6-3.4
									c-4.9-4.9-8.6-9.9-10.9-15.3c-43.9-6.3-87.4-3.7-130.9-1c-13.1,0.8-26.8-3.3-40.3-7.8l-1.7-0.6c-0.8-0.3-1.7-0.6-2.5-0.9
									c-6.5-2.2-5.2-4.7-3.5-6l0.2-0.1c0.6-0.5,1.3-0.8,1.6-0.9c9.5-3.2,18.6-10,29-7.4c14.4,3.6,28.2,1.5,41.7-0.8l1.6-0.3
									c2.7-0.5,5.5-0.9,8.2-1.4c16.1-2.5,32.1-2.2,48.2-2l3.2,0.1c2.1,0,4.3,0.1,6.5,0.1c12.3,0.1,24.7,0.4,37.1,0.3
									c0,0,0,0,0-0.1c1.1-4.5,2.2-5,11.9-4.7c1.9,1.7,3.8,3.1,5.9,4.2c8.1-0.4,16.1-1.2,24-2.4c2.4-0.4,4.7-1.1,6.8-1.8l0.6-0.2
									l0.6-0.2c5.9-2,11.5-3.5,18.2,2.8c6.9-1,13.8-1.1,20.7-1l2.2,0c2.2,0,4.3,0,6.5,0c16.2,0,32.6,0.7,48.4-3
									c1.3-0.3,2.5-0.8,3.6-1.4l0.4-0.2c0.3-0.2,0.6-0.3,1-0.5l0.4-0.2C534.3,89.6,537.7,88.4,541.7,94.3"/>
								<path id="Fill-3" class="st1" d="M306.1,19.8l0-0.2c0-0.2,0-0.3,0-0.5l0-0.3c0-0.1,0-0.1,0-0.2c-2.3,0-4.7,0-7,0
									c0.5,1.2,1.1,2.2,3,2.5C305.5,21.8,306,21,306.1,19.8 M256.2,30.6c-9.1-3.6-14.3-7.3-15.6-11.6c-24.5,0.3-49,0.7-73.5,1.1
									l-7.8,0.1c-29.1,0.5-59.7-2.3-89.5-5c-12.5-1.2-10.7-2.4-7.5-3.2l0.3-0.1c0.1,0,0.1,0,0.2,0l0.3-0.1
									c1.2-0.2,2.5-0.4,3.2-0.5c19.1-1.8,37.4-5.5,58.3-4.1c26.3,1.8,51.6,1,76.3-0.1L204,7c1.6-0.1,3.1-0.1,4.7-0.2l3.3-0.2
									l3.3-0.2c4.3-0.2,8.7-0.4,13-0.6c31.5-1.3,62.8-1.2,94.3-1.1l6.3,0c5.3,0,10.5,0,15.8,0.1c4.6,0,9.2,0,13.9,0l10.4,0l3.5,0
									l6.9,0c13.4,0,26.8,0.1,40.1,0c2.2-2.1,5-2.3,23.6-2.1c3.1,0.7,6.3,1.4,9.6,1.9c17-0.2,33.9-0.6,50.6-1.3
									c5-0.2,9.6-0.6,14.2-1l1.1-0.1l1.1-0.1c12.1-1.1,23.4-1.9,37.3,1.8c9.9,2.6,17.2,5.3,22,8.2c88.3,3.4,175.7,2,263.2,0.5
									c26.4-0.4,53.9,1.8,81.1,4.2l3.4,0.3c1.7,0.2,3.4,0.3,5.1,0.5c13.1,1.2,10.5,2.5,7.1,3.2l-0.3,0.1c-1.2,0.2-2.5,0.4-3.2,0.5
									c-19.1,1.7-37.4,5.4-58.3,4c-28.9-1.9-56.8-0.8-83.9,0.4l-3.3,0.1c-5.5,0.3-11,0.5-16.5,0.7c-32.4,1.3-64.5,1.2-96.9,1.1
									l-6.5,0c-4.3,0-8.6,0-13,0c-24.8-0.1-49.7-0.2-74.5-0.2c0,0,0,0,0,0c-2.2,2.4-4.4,2.7-23.9,2.5c-3.7-0.9-7.7-1.7-11.8-2.3
									c-16.2,0.2-32.4,0.6-48.3,1.3c-4.8,0.2-9.4,0.6-13.7,1l-1.1,0.1l-1.1,0.1c-11.9,1.1-23,1.9-36.7-1.5
									c-14,0.5-27.8,0.6-41.7,0.6l-4.3,0c-4.3,0-8.7,0-13,0c-32.6,0-65.5-0.4-97.4,1.6c-2.5,0.2-4.9,0.4-7.3,0.7l-0.8,0.1
									c-0.6,0.1-1.3,0.2-1.9,0.3l-0.8,0.1C271,33.1,264.1,33.7,256.2,30.6"/>
								<path id="Fill-15" class="st1" d="M66.6,125.2l-1.3,0c-0.1,0-0.2,0-0.4,0c0.2,0.8,0.3,1.5,0.8,1.8
									C66.7,127.6,66.6,126.4,66.6,125.2 M93.7,123.2l0.9-0.1c0.6,0,1.1-0.1,1.7-0.1c-0.3-0.8-0.6-1.4-1.2-1.6
									c-1.4-0.5-1.4,0.2-1.4,1.2l0,0.2C93.7,123,93.7,123.1,93.7,123.2 M48.9,134.2c-2.3-2.4-3.7-5.1-4.2-8.1
									c-4.7,0.3-9.5,0.6-14.2,1l-3.8,0.3c-0.6,0.1-1.3,0.1-1.9,0.2c-7.1,0.6-14.7-1.2-22.1-2.9c-3.4-0.8-2.6-1.8-1.7-2.3l0.1-0.1
									c0.3-0.1,0.5-0.2,0.6-0.3c0.9-0.3,1.8-0.6,2.7-0.9l0.9-0.3c3.4-1.3,6.8-2.7,10.7-2c8.9,1.4,17.3-0.5,25.4-1.7
									c9.5-1.4,19-1.4,28.6-1.6c13.1-0.3,26.3-0.3,38.9-2.2c4.7-0.7,8.2-3.6,13.2,0c6.4,4.6,8.8,9.7,6.9,16.5
									c-0.5,1.7-1,1.9-5.8,2c-1.8-1.2-3.7-1.9-5.7-2.3c-1.1,0.4-2.2,0.5-3.4,0.3c-5.4-1.3-10.6,0.4-15.6,1.5
									c-5.9,1.3-11.6,1.2-17.5,1.3c-0.8,0-1.5,0-2.3,0.1l-2.3,0.1c-6.5,0.2-13,0.4-19.3,1.7C54.1,134.8,51.9,137.3,48.9,134.2"/>
							</g>
						</g>
					</g>
				</g>
			</g>
		</g>
	</g>
	<g id="Design_1_">
		<g id="Home_1_" transform="translate(-823.000000, -2730.000000)">
			<g id="How-it-works_1_" transform="translate(0.000000, 2619.000000)">
				<g id="Group-173_1_" transform="translate(1.000000, 0.000000)">
					<g id="Group-5_1_" transform="translate(24.000000, -91.000000)">
						<g id="Group-9_1_" transform="translate(798.763693, 0.000000)">
							<g id="Group-14_1_" transform="translate(-0.000000, 202.546494)">
								<path id="Fill-99_1_" class="st0" d="M1279.4,68.1c-13.3,1-26.5,1.5-39.8,1.8c-13.3,0.3-26.5,0.3-39.8,0.2
									c-13.3-0.1-26.5-0.3-39.8-0.5c-13.3-0.3-26.5-0.7-39.8-1.4c-0.7,0-1.2-0.6-1.1-1.3c0-0.6,0.5-1.1,1.1-1.1
									c13.3-0.7,26.5-1.1,39.8-1.4c13.3-0.3,26.5-0.5,39.8-0.5c13.3-0.1,26.5-0.1,39.8,0.2c13.3,0.3,26.5,0.7,39.8,1.8
									c0.7,0.1,1.2,0.6,1.1,1.3C1280.4,67.6,1280,68.1,1279.4,68.1"/>
								<path id="Fill-1_1_" class="st1" d="M1504.4,114.3l0,0.4c0,0.3,0,0.6,0,0.9l0,0.6c0,0.1,0,0.2,0,0.3c1.1,0,2.2,0.1,3.4,0.1
									c-0.3-2.2-0.5-4-1.5-4.7C1504.7,110.7,1504.5,112.1,1504.4,114.3 M1540.8,94.3c4.5,6.6,7.1,13.7,7.8,21.7
									c12.2-0.5,24.4-1.3,36.6-2l3.9-0.2c14.5-0.9,29.7,4.2,44.5,9.4c6.2,2.2,5.3,4.5,3.8,5.9l-0.2,0.1l-0.1,0.1l-0.2,0.1
									c-0.6,0.5-1.3,0.8-1.6,0.9c-9.5,3.3-18.6,10.2-29,7.6c-13.1-3.3-25.7-1.9-38,0.2l-1.6,0.3c-0.8,0.1-1.6,0.3-2.3,0.4
									l-1.6,0.3l-1.6,0.3c-2.2,0.4-4.3,0.7-6.4,1.1c-15.7,2.5-31.2,2.3-46.9,2l-3.1-0.1c-2.6,0-5.2-0.1-7.8-0.1
									c-2.3,0-4.6-0.1-6.9-0.1l-5.2-0.1l-1.7,0l-3.5,0c-6.7-0.1-13.3-0.1-20-0.1c-1.1,3.8-2.5,4.3-11.7,4
									c-1.5-1.4-3.1-2.5-4.8-3.5c-8.5,0.4-16.9,1.2-25.2,2.5c-2.5,0.4-4.8,1.2-7,1.9l-0.6,0.2l-0.6,0.2c-6,2-11.6,3.5-18.6-3.4
									c-4.9-4.9-8.6-9.9-10.9-15.3c-43.9-6.3-87.4-3.7-130.9-1c-13.1,0.8-26.8-3.3-40.3-7.8l-1.7-0.6c-0.8-0.3-1.7-0.6-2.5-0.9
									c-6.5-2.2-5.2-4.7-3.5-6l0.2-0.1c0.6-0.5,1.3-0.8,1.6-0.9c9.5-3.2,18.6-10,29-7.4c14.4,3.6,28.2,1.5,41.7-0.8l1.6-0.3
									c2.7-0.5,5.5-0.9,8.2-1.4c16.1-2.5,32.1-2.2,48.2-2l3.2,0.1c2.1,0,4.3,0.1,6.5,0.1c12.3,0.1,24.7,0.4,37.1,0.3
									c0,0,0,0,0-0.1c1.1-4.5,2.2-5,11.9-4.7c1.9,1.7,3.8,3.1,5.9,4.2c8.1-0.4,16.1-1.2,24-2.4c2.4-0.4,4.7-1.1,6.8-1.8l0.6-0.2
									l0.6-0.2c5.9-2,11.5-3.5,18.2,2.8c6.9-1,13.8-1.1,20.7-1l2.2,0c2.2,0,4.3,0,6.5,0c16.2,0,32.6,0.7,48.4-3
									c1.3-0.3,2.5-0.8,3.6-1.4l0.4-0.2c0.3-0.2,0.6-0.3,1-0.5l0.4-0.2C1533.4,89.6,1536.8,88.4,1540.8,94.3"/>
								<path id="Fill-3_1_" class="st1" d="M1305.2,19.8l0-0.2c0-0.2,0-0.3,0-0.5l0-0.3c0-0.1,0-0.1,0-0.2c-2.3,0-4.7,0-7,0
									c0.5,1.2,1.1,2.2,3,2.5C1304.5,21.8,1305,21,1305.2,19.8 M1255.2,30.6c-9.1-3.6-14.3-7.3-15.6-11.6
									c-24.5,0.3-49,0.7-73.5,1.1l-7.8,0.1c-29.1,0.5-59.7-2.3-89.5-5c-12.5-1.2-10.7-2.4-7.5-3.2l0.3-0.1c0.1,0,0.1,0,0.2,0
									l0.3-0.1c1.2-0.2,2.5-0.4,3.2-0.5c19.1-1.8,37.4-5.5,58.3-4.1c26.3,1.8,51.6,1,76.3-0.1L1203,7c1.6-0.1,3.1-0.1,4.7-0.2
									l3.3-0.2l3.3-0.2c4.3-0.2,8.7-0.4,13-0.6c31.5-1.3,62.8-1.2,94.3-1.1l6.3,0c5.3,0,10.5,0,15.8,0.1c4.6,0,9.2,0,13.9,0
									l10.4,0l3.5,0l6.9,0c13.4,0,26.8,0.1,40.1,0c2.2-2.1,5-2.3,23.6-2.1c3.1,0.7,6.3,1.4,9.6,1.9c17-0.2,33.9-0.6,50.6-1.3
									c5-0.2,9.6-0.6,14.2-1l1.1-0.1l1.1-0.1c12.1-1.1,23.4-1.9,37.3,1.8c9.9,2.6,17.2,5.3,22,8.2c88.3,3.4,175.7,2,263.2,0.5
									c26.4-0.4,53.9,1.8,81.1,4.2l3.4,0.3c1.7,0.2,3.4,0.3,5.1,0.5c13.1,1.2,10.5,2.5,7.1,3.2l-0.3,0.1c-1.2,0.2-2.5,0.4-3.2,0.5
									c-19.1,1.7-37.4,5.4-58.3,4c-28.9-1.9-56.8-0.8-83.9,0.4l-3.3,0.1c-5.5,0.3-11,0.5-16.5,0.7c-32.4,1.3-64.5,1.2-96.9,1.1
									l-6.5,0c-4.3,0-8.6,0-13,0c-24.8-0.1-49.7-0.2-74.5-0.2c0,0,0,0,0,0c-2.2,2.4-4.4,2.7-23.9,2.5c-3.7-0.9-7.7-1.7-11.8-2.3
									c-16.2,0.2-32.4,0.6-48.3,1.3c-4.8,0.2-9.4,0.6-13.7,1l-1.1,0.1l-1.1,0.1c-11.9,1.1-23,1.9-36.7-1.5
									c-14,0.5-27.8,0.6-41.7,0.6l-4.3,0c-4.3,0-8.7,0-13,0c-32.6,0-65.5-0.4-97.4,1.6c-2.5,0.2-4.9,0.4-7.3,0.7l-0.8,0.1
									c-0.6,0.1-1.3,0.2-1.9,0.3l-0.8,0.1C1270,33.1,1263.2,33.7,1255.2,30.6"/>
								<path id="Fill-15_1_" class="st1" d="M1065.6,125.2l-1.3,0c-0.1,0-0.2,0-0.4,0c0.2,0.8,0.3,1.5,0.8,1.8
									C1065.8,127.6,1065.6,126.4,1065.6,125.2 M1092.7,123.2l0.9-0.1c0.6,0,1.1-0.1,1.7-0.1c-0.3-0.8-0.6-1.4-1.2-1.6
									c-1.4-0.5-1.4,0.2-1.4,1.2l0,0.2C1092.7,123,1092.7,123.1,1092.7,123.2 M1048,134.2c-2.3-2.4-3.7-5.1-4.2-8.1
									c-4.7,0.3-9.5,0.6-14.2,1l-3.8,0.3c-0.6,0.1-1.3,0.1-1.9,0.2c-7.1,0.6-14.7-1.2-22.1-2.9c-3.4-0.8-2.6-1.8-1.7-2.3l0.1-0.1
									c0.3-0.1,0.5-0.2,0.6-0.3c0.9-0.3,1.8-0.6,2.7-0.9l0.9-0.3c3.4-1.3,6.8-2.7,10.7-2c8.9,1.4,17.3-0.5,25.4-1.7
									c9.5-1.4,19-1.4,28.6-1.6c13.1-0.3,26.3-0.3,38.9-2.2c4.7-0.7,8.2-3.6,13.2,0c6.4,4.6,8.8,9.7,6.9,16.5
									c-0.5,1.7-1,1.9-5.8,2c-1.8-1.2-3.7-1.9-5.7-2.3c-1.1,0.4-2.2,0.5-3.4,0.3c-5.4-1.3-10.6,0.4-15.6,1.5
									c-5.9,1.3-11.6,1.2-17.5,1.3c-0.8,0-1.5,0-2.3,0.1l-2.3,0.1c-6.5,0.2-13,0.4-19.3,1.7C1053.2,134.8,1051,137.3,1048,134.2"
									/>
							</g>
						</g>
					</g>
				</g>
			</g>
		</g>
	</g>
</g>
<g id="Layer_2">
</g>
</svg>
