<?xml version="1.0" encoding="UTF-8"?>
<svg width="77px" height="67px" viewBox="0 0 77 67" version="1.1" xmlns="http://www.w3.org/2000/svg" xmlns:xlink="http://www.w3.org/1999/xlink">
    <title>Group 29</title>
    <g id="Design" stroke="none" stroke-width="1" fill="none" fill-rule="evenodd">
        <g id="Plans_Landlords" transform="translate(-293.000000, -173.000000)">
            <g id="Hero" transform="translate(294.000000, 153.000000)">
                <g id="Group-29" transform="translate(0.000000, 21.000000)">
                    <path d="M25.4739515,21.1094711 C23.8313093,19.4557357 23.8313093,16.7738792 25.4739515,15.1194914 C27.1159458,13.4651037 29.778762,13.4651037 31.4214041,15.1194914 C33.0633985,16.7738792 33.0633985,19.4557357 31.4214041,21.1094711 C29.778762,22.7632065 27.1165936,22.7638589 25.4739515,21.1094711 L25.4739515,21.1094711 Z M68.3750222,54.9578793 L44.5696661,30.982304 C46.907322,25.3576466 46.0497281,17.0680941 41.073222,12.0553513 C34.6943815,5.63155154 23.6700247,5.67982627 18.6002456,12.0377376 C13.7338535,18.139271 13.4048069,27.6846187 19.7829997,34.1090708 C24.7595058,39.1205088 32.9532845,41.3698499 40.0621162,38.3487656 L48.79934,47.1484646 L55.0395664,49.2020973 L57.0792668,55.4869442 L63.3194932,57.5418817 L65.3591935,63.8260762 L75,64.9996738 L75,62.1534223 L68.3750222,54.9578793 Z" id="Fill-1" fill="#FF7043"></path>
                    <path d="M44.7603577,10.410488 C42.549009,8.26422002 39.8078176,6.6326649 36.8030002,5.94964282 C36.0626454,5.73632074 35.2957336,5.66064685 34.5365946,5.54778838 C34.1557296,5.50408019 33.7703305,5.50603727 33.3875224,5.48320463 L32.8123385,5.45645782 L32.2378024,5.48320463 C30.6994448,5.49820894 29.1837576,5.83026074 27.717298,6.26277615 C21.8164818,8.06981641 17.237034,13.4263534 16.2233372,19.508316 C15.9499954,21.0250556 15.9370408,22.5744132 16.0458593,24.1061571 C16.2388827,25.630725 16.5536793,27.1442027 17.1197949,28.5748306 C17.701456,29.9891495 18.3971176,31.3734598 19.3473368,32.577066 C20.2567491,33.8061143 21.3326279,34.9170853 22.5471207,35.8408286 C24.9586178,37.7078861 27.8798781,38.9121447 30.9086614,39.2200591 C33.9316152,39.5488491 37.0348874,39.0387027 39.7909766,37.7568132 C40.0435911,37.6387358 40.333774,37.7007101 40.5203201,37.8872854 L49.2575439,46.686332 C49.5101584,46.9414052 49.5101584,47.3550021 49.2575439,47.6094229 C49.0042816,47.8644961 48.5942688,47.8644961 48.3410066,47.6094229 L39.6044305,38.809724 L40.333774,38.9408486 C37.3542181,40.305588 34.0138768,40.8313911 30.7713427,40.4588929 C27.5229791,40.1066179 24.3957409,38.7947197 21.8268455,36.7802286 C20.5333296,35.7821161 19.3920301,34.5889476 18.4275609,33.2698735 C17.4229323,31.9768938 16.6845207,30.4947294 16.0756549,28.9799469 C15.4823346,27.4508124 15.153288,25.8362187 14.9615601,24.2111872 C14.8527415,22.5789797 14.8799462,20.9330727 15.1798449,19.3217407 C16.2991216,12.8581469 21.1914228,7.22761822 27.4348879,5.35664658 C28.9868479,4.9084745 30.5873876,4.57185617 32.2086546,4.5646802 L32.8142817,4.54054283 L33.4199088,4.57120381 C33.8227966,4.59795061 34.228923,4.59925533 34.6292199,4.64753006 C35.4285182,4.77017394 36.2342937,4.85693797 37.0128646,5.084612 C40.1686029,5.82504185 43.0425789,7.55771294 45.343962,9.82336305 C45.5065421,9.98384389 45.5097808,10.2467454 45.3504393,10.410488 C45.1917456,10.5735783 44.9326537,10.5774925 44.7694259,10.4196211 L44.7603577,10.410488 Z" id="Fill-3" fill="#3F3350"></path>
                    <path d="M55.0393073,49.2024235 L57.0790077,55.4872704 L57.0790077,55.4879227 L63.3198818,57.5415555 L65.3595821,63.8270547 L74.9997409,65 L73.8351232,55.2902573 L48.5380459,29.8122944 C50.8711677,24.7251825 50.6483488,18.7430312 47.8669981,13.8281426" id="Stroke-5" stroke="#3F3350" stroke-width="1.3" stroke-linecap="round" stroke-linejoin="round"></path>
                    <path d="M51.3537262,47.476537 L55.2401035,48.582289 C55.5853433,48.6807956 55.7854918,49.0408989 55.6876846,49.3886074 C55.5911729,49.7356635 55.2323307,49.9365907 54.8883863,49.8387365 C54.8715454,49.83417 54.8540567,49.8282987 54.8378634,49.8224275 L51.0531797,48.4028897 C50.8025084,48.3082974 50.6749057,48.0284345 50.7681787,47.7759707 C50.8569177,47.5365542 51.1140663,47.4086914 51.3537262,47.476537" id="Fill-7" fill="#3F3350"></path>
                    <path d="M31.4215337,21.1094711 C29.7788915,22.7638589 27.1167231,22.7638589 25.474081,21.1094711 C23.8314389,19.4557357 23.8314389,16.7738792 25.474081,15.1194914 C27.1167231,13.4651037 29.7788915,13.4651037 31.4215337,15.1194914 C33.0641758,16.7738792 33.0641758,19.4557357 31.4215337,21.1094711 Z" id="Stroke-9" stroke="#3F3350" stroke-width="1.3" stroke-linecap="round" stroke-linejoin="round"></path>
                    <path d="M46.4660239,32.4862573 L68.111202,54.7519942 C68.2349183,54.8792046 68.2329752,55.0846983 68.1066679,55.2092993 C67.9816561,55.3325956 67.7821554,55.3319432 67.6577913,55.2092993 L45.5494866,33.4086959 C45.2942811,33.1562322 45.289747,32.74394 45.5404184,32.4862573 C45.790442,32.2285747 46.2004548,32.2246605 46.4563079,32.4758196 C46.4588989,32.478429 46.463433,32.4836479 46.4660239,32.4862573" id="Fill-11" fill="#3F3350"></path>
                    <path d="M12.1385604,29.0422474 C9.37988029,28.5836375 6.72354144,27.3187093 4.54004515,25.2383298 C-1.28369117,19.6899986 -1.53824888,10.4369087 3.97069088,4.57218235 C9.48027837,-1.29254398 18.6663787,-1.54957425 24.4901151,3.9994093 C28.8396189,8.14385939 30.0826119,14.3543371 28.1374801,19.6769514" id="Stroke-13" stroke="#3F3350" stroke-width="1.3" stroke-linecap="round" stroke-linejoin="round"></path>
                    <path d="M30.5865455,34.4573664 C30.8106599,34.5095553 30.9389104,34.7913753 30.8734897,35.0868949 C30.8074213,35.3824145 30.5722955,35.5794275 30.348181,35.5272386 C30.1240666,35.4750497 29.9951684,35.1925774 30.0612369,34.8977102 C30.1273053,34.6021906 30.3624311,34.4051775 30.5865455,34.4573664" id="Fill-15" fill="#D84315"></path>
                    <path d="M36.9809963,29.5270821 C37.4324638,29.2420003 37.956477,29.288318 38.1520913,29.6314599 C38.3470579,29.9752542 38.1397845,30.4854006 37.688317,30.7711348 C37.2368495,31.0575213 36.7121886,31.0105513 36.517222,30.6674093 C36.3216077,30.323615 36.5295288,29.8128163 36.9809963,29.5270821" id="Fill-17" fill="#D84315"></path>
                    <path d="M24.4391387,32.020602 C24.1664446,31.8555546 24.1793992,31.4439148 24.4689343,31.1014252 C24.7584694,30.7582832 25.2138233,30.6147638 25.4871651,30.7798112 C25.7598593,30.9448585 25.7469047,31.355846 25.4573696,31.698988 C25.1678345,32.0414775 24.7118329,32.1856493 24.4391387,32.020602" id="Fill-19" fill="#D84315"></path>
                    <path d="M34.5820652,34.5490884 C34.1986093,34.3175002 34.0528702,33.9345642 34.2562572,33.6931906 C34.4596443,33.4524694 34.9344301,33.4452934 35.317886,33.6768816 C35.7013418,33.9091221 35.8477287,34.2914057 35.6443416,34.5327794 C35.4409546,34.7735006 34.9655211,34.7800242 34.5820652,34.5490884" id="Fill-21" fill="#D84315"></path>
                    <path d="M28.6905116,30.3865027 C28.4987836,30.2703824 28.5084996,29.9820388 28.7112389,29.7413175 C28.914626,29.5005963 29.2346044,29.3988279 29.4263324,29.5149482 C29.6180603,29.6310685 29.6083444,29.9194121 29.405605,30.1601333 C29.2028657,30.4008546 28.8822395,30.5026229 28.6905116,30.3865027" id="Fill-23" fill="#D84315"></path>
                    <path d="M21.5689196,27.1119109 C21.3681234,27.3167522 20.8719626,27.2534732 20.4606543,26.9696961 C20.0493461,26.6865714 19.8783455,26.2899359 20.0797894,26.0857468 C20.2805855,25.8802531 20.7767464,25.9441845 21.1880546,26.2279616 C21.5993629,26.5110863 21.7697158,26.9070695 21.5689196,27.1119109" id="Fill-25" fill="#D84315"></path>
                    <path d="M31.2077181,28.1331822 C30.6875913,27.9100747 30.5055793,27.5030013 30.8015917,27.2244431 C31.0976041,26.9465373 31.758936,26.9015244 32.2797105,27.1246319 C32.7998374,27.3477394 32.9818494,27.7548127 32.685837,28.0333709 C32.3898246,28.3112767 31.7284927,28.3562897 31.2077181,28.1331822" id="Fill-27" fill="#D84315"></path>
                </g>
            </g>
        </g>
    </g>
</svg>