<svg xmlns="http://www.w3.org/2000/svg" viewBox="0 0 67.124 43.50434"><rect x="1.42181" y="0.88304" width="64.29537" height="41.6213" style="fill:#fff"/><polygon points="6.601 42.503 66.124 42.503 66.124 1.001 6.601 1.001 6.601 42.503" style="fill:#ff7043;fill-rule:evenodd"/><path d="M52.7168,40.69245a.85508.85508,0,0,1,.977.663.84008.84008,0,0,1-.383,1.108.85209.85209,0,0,1-.977-.662.84129.84129,0,0,1,.383-1.109" style="fill:#d84315;fill-rule:evenodd"/><path d="M56.1475,28.37014c.41-.818,1.221-1.217,1.811-.89a1.5715,1.5715,0,0,1,.325,2.076c-.41.818-1.221,1.216-1.811.889a1.56723,1.56723,0,0,1-.325-2.075" style="fill:#d84315;fill-rule:evenodd"/><path d="M13.1846,37.55664c-.024-.431,1.55-1.09,3.516-1.473,1.965-.382,3.579-.345,3.603.085.025.43-1.55,1.089-3.515,1.473-1.966.383-3.58.345-3.604-.085" style="fill:#d84315;fill-rule:evenodd"/><path d="M61.6006,29.69045c-.08-.315.345-.701.949-.86.604-.16,1.158-.032,1.239.284.08.316-.345.702-.95.861-.603.159-1.158.031-1.238-.285" style="fill:#d84315;fill-rule:evenodd"/><path d="M39.9473,43.15925c-.546.002-.89-.61-.768-1.367s.664-1.373,1.21-1.375.89.609.768,1.367c-.122.757-.664,1.372-1.21,1.375" style="fill:#d84315;fill-rule:evenodd"/><path d="M57.0596,37.82526c-.767.003-1.318-.425-1.233-.957a1.50549,1.50549,0,0,1,1.544-.969c.766-.003,1.319.426,1.233.958a1.50278,1.50278,0,0,1-1.544.968" style="fill:#d84315;fill-rule:evenodd"/><path d="M44.7432,36.99515c-.384.002-.625-.428-.54-.96.086-.531.467-.964.85-.965.383-.002.625.428.539.96-.085.531-.466.964-.849.965" style="fill:#d84315;fill-rule:evenodd"/><path d="M30.8174,40.50685c-.113.478-.897.826-1.751.778s-1.454-.473-1.34-.951c.113-.477.898-.826,1.751-.778.855.048,1.454.473,1.34.951" style="fill:#d84315;fill-rule:evenodd"/><path d="M31.2119,33.85154a1.45433,1.45433,0,0,1,1.383-1.141.954.954,0,0,1,.782,1.288,1.45432,1.45432,0,0,1-1.383,1.141.95364.95364,0,0,1-.782-1.288" style="fill:#d84315;fill-rule:evenodd"/><path d="M46.4473,31.47074c-.961.138-1.587-.293-1.398-.963a2.59406,2.59406,0,0,1,2.08-1.46c.961-.138,1.587.294,1.398.963a2.59408,2.59408,0,0,1-2.08,1.46" style="fill:#d84315;fill-rule:evenodd"/><polyline points="66.124 1 66.124 42.504 10.571 42.504" style="fill:none;stroke:#3f3350;stroke-linecap:round;stroke-linejoin:round;stroke-width:2px"/><line x1="66.12395" y1="1.00004" x2="1" y2="1.002" style="fill:none;stroke:#3f3350;stroke-linecap:round;stroke-linejoin:round;stroke-width:2px"/><path d="M18.0039,11.5q3.963-.132,7.926-.178l7.926-.04,7.925.054c2.643.027,5.285.089,7.926.163a.49117.49117,0,0,1,0,.982c-2.641.076-5.283.136-7.926.165l-7.925.053-7.926-.04q-3.963-.04948-7.926-.177a.49122.49122,0,0,1,0-.982" style="fill:#3f3350;fill-rule:evenodd"/><line x1="1" y1="1.002" x2="1" y2="42.50344" style="fill:none;stroke:#3f3350;stroke-linecap:round;stroke-linejoin:round;stroke-width:2px"/></svg>