<svg xmlns="http://www.w3.org/2000/svg" viewBox="0 0 53.714 53.712"><path d="M52.714,26.856c0,14.28-10.647,25.856-23.781,25.856S5.151,41.136,5.151,26.856,15.799,1,28.933,1,52.714,12.576,52.714,26.856" style="fill:#ff7043;fill-rule:evenodd"/><path d="M41.6779,18.937c-.07-.389.283-.781.791-.876a.83942.83942,0,0,1,1.045.531c.07.389-.283.781-.79.876a.84007.84007,0,0,1-1.046-.531" style="fill:#d84315;fill-rule:evenodd"/><path d="M29.6183,12.1812c-.754-.519-1.037-1.376-.632-1.915a1.5671,1.5671,0,0,1,2.1-.037c.754.519,1.037,1.377.632,1.916a1.56632,1.56632,0,0,1-2.1.036" style="fill:#d84315;fill-rule:evenodd"/><path d="M31.7394,37.2378c-.43-.035-.865-1.685-.975-3.685-.108-2,.152-3.592.581-3.557.429.036.866,1.685.974,3.685.109,2-.15,3.592-.58,3.557" style="fill:#d84315;fill-rule:evenodd"/><path d="M22.9767,24.4917c-.324.036-.646-.437-.722-1.059-.074-.62.129-1.151.453-1.187.325-.035.647.438.722,1.059.074.62-.129,1.152-.453,1.187" style="fill:#d84315;fill-rule:evenodd"/><path d="M42.0353,30.2632c-.073.541-.727.798-1.46.572-.733-.224-1.269-.845-1.195-1.386.073-.542.726-.798,1.46-.573.732.225,1.267.846,1.195,1.387" style="fill:#d84315;fill-rule:evenodd"/><path d="M39.1086,12.5796c-.103.76-.603,1.248-1.117,1.09a1.5008,1.5008,0,0,1-.747-1.662c.102-.761.603-1.248,1.118-1.09a1.501,1.501,0,0,1,.746,1.662" style="fill:#d84315;fill-rule:evenodd"/><path d="M36.591,24.6656c-.052.38-.511.56-1.025.401-.515-.158-.891-.594-.84-.974.052-.38.511-.56,1.025-.402.515.159.891.594.84.975" style="fill:#d84315;fill-rule:evenodd"/><path d="M36.2971,38.0913c.457.179.694,1.003.53,1.842-.165.839-.669,1.375-1.127,1.196-.457-.179-.694-1.003-.529-1.842.164-.839.669-1.375,1.126-1.196" style="fill:#d84315;fill-rule:evenodd"/><path d="M22.6203,42.6812a1.44984,1.44984,0,0,1-.938-1.526.95189.95189,0,0,1,1.382-.597,1.45187,1.45187,0,0,1,.939,1.526.95257.95257,0,0,1-1.383.597" style="fill:#d84315;fill-rule:evenodd"/><path d="M31.3537,22.2163c.004.97-.51,1.53-1.146,1.252a2.59479,2.59479,0,0,1-1.161-2.262c-.004-.969.51-1.53,1.147-1.252a2.59673,2.59673,0,0,1,1.16,2.262" style="fill:#d84315;fill-rule:evenodd"/><path d="M19.7306,32.0562c-.122-.533.4-.999,1.166-1.041a1.51486,1.51486,0,0,1,1.606.889c.123.533-.4.999-1.166,1.041a1.51691,1.51691,0,0,1-1.606-.889" style="fill:#d84315;fill-rule:evenodd"/><path d="M52.714,26.856A25.857,25.857,0,1,1,26.858,1,25.85584,25.85584,0,0,1,52.714,26.856Z" style="fill:none;stroke:#3f3350;stroke-linecap:round;stroke-linejoin:round;stroke-width:2px"/><path d="M46.1408,26.856a19.15264,19.15264,0,0,1-11.993,17.601,19.14413,19.14413,0,0,1-7.291,1.374.69152.69152,0,0,1,0-1.383,17.43711,17.43711,0,0,0,17.284-17.592,1.00011,1.00011,0,1,1,2-.029Z" style="fill:#3f3350;fill-rule:evenodd"/><path d="M15.1223,12.3111a13.15379,13.15379,0,0,1,5.429-3.316,15.66741,15.66741,0,0,1,6.305-.827.40565.40565,0,0,1,0,.809,22.63407,22.63407,0,0,0-5.87,1.254,33.14459,33.14459,0,0,0-5.355,2.709.40806.40806,0,0,1-.562-.135.41248.41248,0,0,1,.053-.494" style="fill:#3f3350;fill-rule:evenodd"/><path d="M8.1691,26.856a13.1892,13.1892,0,0,1,.838-6.335,15.67022,15.67022,0,0,1,3.343-5.446.40568.40568,0,0,1,.628.51,22.44885,22.44885,0,0,0-2.737,5.375,32.95114,32.95114,0,0,0-1.263,5.896.40789.40789,0,0,1-.809,0" style="fill:#3f3350;fill-rule:evenodd"/></svg>