<svg xmlns="http://www.w3.org/2000/svg" viewBox="0 0 212 42"><path d="M27.18534,0q.97278,0,2.12557.07644,1.15206.07668,2.35549.204Q32.86886.40731,33.996.63639a12.77506,12.77506,0,0,1,2.04828.58527,12.3473,12.3473,0,0,1,2.30509,1.09457,2.041,2.041,0,0,1,.89573,1.17053,3.84764,3.84764,0,0,1,0,1.654q-.18.96749-.384,2.54412-.41043,2.4438-.794,5.77672-.38307,3.33459-.66533,6.846-.28224,3.5116-.40946,6.89565-.12888,3.38547.02544,5.878a2.36408,2.36408,0,0,0,.51171,1.78112,1.71166,1.71166,0,0,0,1.178.45818,3.28815,3.28815,0,0,0,2.17644-.91731A13.76624,13.76624,0,0,0,43.009,31.95658c.2933-.29192.57748-.62206.86069-.956a38.356,38.356,0,0,0,1.98108-3.52881,14.76128,14.76128,0,0,0,1.40839-5.60662,5.94015,5.94015,0,0,1-1.02389-1.096,3.14379,3.14379,0,0,1-.6658-1.40177,9.04082,9.04082,0,0,1,.10225-2.752,6.84556,6.84556,0,0,1,.768-2.08928A4.12,4.12,0,0,1,47.66907,13.175a2.99126,2.99126,0,0,1,1.48472-.53511,7.7329,7.7329,0,0,1,1.38248.15337,14.47462,14.47462,0,0,1,1.63882.40754,6.96751,6.96751,0,0,1,1.66425.73911,1.69561,1.69561,0,0,1,.89621,1.04488,1.19782,1.19782,0,0,1-.25585.81555q-.30747.45793-.74309.99328-.43561.53606-.84484,1.14713a3.83931,3.83931,0,0,0-.56308,1.27421,3.0994,3.0994,0,0,0,.794.45866,6.17174,6.17174,0,0,0,1.04982.33109,8.28833,8.28833,0,0,0,1.15206.17821q.58828.0516,1.04982.05112a4.15227,4.15227,0,0,0,1.6129-.33109,3.53352,3.53352,0,0,1,1.25431-.33157,3.25109,3.25109,0,0,1,1.12662.2298,4.07239,4.07239,0,0,1,1.10119.61155,4.96229,4.96229,0,0,1,.84532.84087,1.81831,1.81831,0,0,1,.409.8662,7.071,7.071,0,0,1-.30722,3.05868q-.51195,1.73215-1.17751,3.43994-.666,1.70779-1.20343,3.21061a4.79243,4.79243,0,0,0-.384,2.31958q0,.81555.973.81507A4.7531,4.7531,0,0,0,62.98,33.9699a14.46294,14.46294,0,0,0,2.64735-2.5231c.0072-.09221.0072-.1892.01536-.28q.103-1.14735.20449-2.11556a33.37965,33.37965,0,0,1,.69124-4.20437,24.39669,24.39669,0,0,1,1.178-3.79684,12.05429,12.05429,0,0,1,1.53608-2.77823,2.4825,2.4825,0,0,1,1.71562-1.14664,11.57409,11.57409,0,0,1,1.25432.07644,7.46276,7.46276,0,0,1,1.357.28,4.996,4.996,0,0,1,1.43383.58622,1.42082,1.42082,0,0,1,.71717.94312,1.07691,1.07691,0,0,1-.12817.66267c-.12.2384-.25586.5093-.40947.81555q-.23112.45866-.48675,1.04488a5.047,5.047,0,0,0-.35857,1.35018A14.64391,14.64391,0,0,1,78.23961,19.546a7.85706,7.85706,0,0,1,3.8407-1.24841,4.45821,4.45821,0,0,1,3.04673.96844,3.23079,3.23079,0,0,1,1.10118,2.548,19.86633,19.86633,0,0,1,3.43123-2.54795,6.582,6.582,0,0,1,3.27715-.96844,4.496,4.496,0,0,1,2.53455.66267,3.55908,3.55908,0,0,1,1.4084,1.78351,5.32314,5.32314,0,0,1,.12768,3.23689,26.66451,26.66451,0,0,1-1.178,3.59283q-.74165,1.83536-1.35608,3.5933a6.60086,6.60086,0,0,0-.40995,3.13465,1.02529,1.02529,0,0,0,.33267.58623,1.32653,1.32653,0,0,0,.794.1782,4.065,4.065,0,0,0,2.56-1.47822,23.25273,23.25273,0,0,0,1.92779-2.22592,11.69057,11.69057,0,0,1,.68355-2.48871,18.8601,18.8601,0,0,1,7.60459-9.02077,9.25584,9.25584,0,0,1,4.7878-1.50354,4.15087,4.15087,0,0,1,1.04934.12709,9.2939,9.2939,0,0,1,.89621.28045h0l.46082-1.37645a.93851.93851,0,0,1,.56356-.50931,2.15785,2.15785,0,0,1,.87029-.204,6.22038,6.22038,0,0,1,1.4852.204,7.59454,7.59454,0,0,1,1.53657.56043,5.70251,5.70251,0,0,1,1.27975.86667,2.65627,2.65627,0,0,1,.768,1.12085q-.05112.66362-.63939,3.364-.58973,2.70249-1.92059,8.10392a26.07453,26.07453,0,0,0-.61443,3.10885q.04968.86787,1.12662.86668a3.58283,3.58283,0,0,0,2.33005-1.07021,25.55837,25.55837,0,0,0,2.14477-2.19535,15.98827,15.98827,0,0,1,.36337-4.63436,12.207,12.207,0,0,1,2.40686-4.99461,10.6893,10.6893,0,0,1,3.9175-2.98176,11.42718,11.42718,0,0,1,4.66011-.99376,2.68916,2.68916,0,0,1,1.38247.33109,1.33611,1.33611,0,0,1,.66581.99376q.20376,1.07069-.66581,1.376a7.55416,7.55416,0,0,0-2.71406,1.4529,8.8501,8.8501,0,0,0-2.15053,2.62486,12.0733,12.0733,0,0,0-1.25479,3.61863,12.69945,12.69945,0,0,0-.02544,4.33242,3.27886,3.27886,0,0,0,1.0239,1.63063,2.4722,2.4722,0,0,0,1.6897.76443,3.2401,3.2401,0,0,0,2.535-1.47774,12.37965,12.37965,0,0,0,1.9206-3.9502,28.24028,28.24028,0,0,0,1.07478-5.63195,34.67662,34.67662,0,0,0,0-6.52395,17.90322,17.90322,0,0,0-.79349-3.69507q-.53787-1.5537-1.10118-2.77775-.56307-1.22262-1.02389-2.24217a5.68613,5.68613,0,0,1-.51219-2.08977,1.9666,1.9666,0,0,1,.25633-1.50354,2.78392,2.78392,0,0,1,1.10071-.91779,5.42874,5.42874,0,0,1,1.53608-.45819q.84534-.12756,1.56249-.17868a2.89712,2.89712,0,0,1,1.91963.84135A8.05851,8.05851,0,0,1,143.58,6.8044a19.22146,19.22146,0,0,1,1.35752,3.38929,23.65453,23.65453,0,0,1,.84437,4.12841q.25562,2.44595.28178,5.22393a39.483,39.483,0,0,1-.33267,5.50439,26.72753,26.72753,0,0,1-1.22934,5.24973,16.85621,16.85621,0,0,1-2.355,4.53642,12.07919,12.07919,0,0,1-9.11525,4.91816,8.3643,8.3643,0,0,1-1.45928.07645,14.03007,14.03007,0,0,1-1.45976-.12709,7.30907,7.30907,0,0,1-3.81478-1.88576,6.33884,6.33884,0,0,1-1.5164-2.27752c-.21986.226-.44643.44958-.685.67174a17.2274,17.2274,0,0,1-3.40531,2.472,7.02806,7.02806,0,0,1-3.329,1.01956,6.17509,6.17509,0,0,1-3.25123-.76491,4.03387,4.03387,0,0,1-1.66425-2.8542,7.90615,7.90615,0,0,1-2.96992,2.8542,8.236,8.236,0,0,1-3.22675,1.01956,7.05432,7.05432,0,0,1-4.327-1.35065,5.50694,5.50694,0,0,1-1.86634-2.66882c-.15265.151-.30242.30243-.46275.45149a16.163,16.163,0,0,1-3.32851,2.39554,7.23522,7.23522,0,0,1-3.43123.96843,7.61273,7.61273,0,0,1-3.78886-.86667,3.58719,3.58719,0,0,1-1.84379-2.65019,6.92912,6.92912,0,0,1,.30674-3.0324q.512-1.70779,1.12711-3.364Q89.25,28.186,89.71034,26.83441a2.71851,2.71851,0,0,0,.15361-1.9622.54664.54664,0,0,0-.63987-.17821q-.38451.12758-.794.28a4.69809,4.69809,0,0,0-2.45822,2.06445,16.0331,16.0331,0,0,0-1.6129,3.49106,27.96817,27.96817,0,0,0-.99893,4.00084q-.35859,2.06469-.56259,3.59331a1.66391,1.66391,0,0,1-.61444,1.29953,2.86248,2.86248,0,0,1-1.53657.33157,8.57305,8.57305,0,0,1-2.76495-.43333A2.56351,2.56351,0,0,1,76.19133,37.461a12.54181,12.54181,0,0,1,.4613-3.66927q.51051-1.88552,1.07479-3.5933.56307-1.70707,1.02437-3.10885a5.3852,5.3852,0,0,0,.3581-2.21733,2.38117,2.38117,0,0,0-.71667-.12756,3.4382,3.4382,0,0,0-.92165.07644,4.43907,4.43907,0,0,0-2.25325,1.86043,14.3346,14.3346,0,0,0-1.53609,3.16,25.65969,25.65969,0,0,0-.973,3.61863q-.35857,1.86115-.61443,3.18529-.15337.71522-.30722,1.52934a1.30673,1.30673,0,0,1-.81941,1.0702.46535.46535,0,0,1-.25585.12709,1.99262,1.99262,0,0,0-.30722.07692c-.13681,0-.3677.00764-.69124.02533a4.38251,4.38251,0,0,1-1.10118-.10225,4.06593,4.06593,0,0,1-1.25479-.5093,3.2412,3.2412,0,0,1-1.10071-1.14665,5.32114,5.32114,0,0,1-.60435-1.86569q-.36074.339-.7522.66792a16.41792,16.41792,0,0,1-3.48212,2.24217,8.10411,8.10411,0,0,1-3.45668.89248q-4.50745,0-5.42815-3.61911a5.70364,5.70364,0,0,1,.33267-2.80307q.53787-1.52862,1.22887-3.0324.69195-1.50284,1.2039-2.90532a4.16386,4.16386,0,0,0,.25586-2.42086,1.06408,1.06408,0,0,0-.6658-.89152,4.77012,4.77012,0,0,0-1.3316-.30625q-.76827-.07668-1.53608-.07644a4.01752,4.01752,0,0,1-1.22887-.15289,22.85222,22.85222,0,0,1-1.20343,3.46574,34.21412,34.21412,0,0,1-1.71562,3.44042,20.53283,20.53283,0,0,1-1.15542,1.79546,8.2811,8.2811,0,0,1-.55972,1.1347,15.40367,15.40367,0,0,1-2.5859,3.21157,15.71906,15.71906,0,0,1-3.55892,2.57375,7.96774,7.96774,0,0,1-3.96935.99375,5.09664,5.09664,0,0,1-4.2756-1.73286,7.64,7.64,0,0,1-1.56153-4.17905q-2.61231-1.17246-5.505-2.49779a30.98308,30.98308,0,0,0-5.65856-1.98752h0l-3.32851,4.23018Q14.53639,35.321,13.411,36.69653a32.58618,32.58618,0,0,1-2.22828,2.472,19.31751,19.31751,0,0,1-2.09916,1.83511,5.36645,5.36645,0,0,1-1.81787.94264A2.00015,2.00015,0,0,1,5.96,41.81918,3.67113,3.67113,0,0,1,4.88424,41.029,5.8559,5.8559,0,0,1,4.014,39.83118a6.62174,6.62174,0,0,1-.589-1.4013,4.277,4.277,0,0,1-.20449-1.78447,4.60688,4.60688,0,0,1,.998-1.88576,16.90691,16.90691,0,0,1,1.84378-1.80883q1.10023-.94241,2.45822-2.08977a34.85521,34.85521,0,0,0,2.84225-2.72663,6.416,6.416,0,0,0-.87077-.05112,9.46944,9.46944,0,0,1-.99894-.05112,6.45873,6.45873,0,0,1-.89573-.15241.80379.80379,0,0,1-.56355-.408,3.00915,3.00915,0,0,1-.48627-2.34441,3.62228,3.62228,0,0,1,1.15206-1.83512,5.72835,5.72835,0,0,1,2.07372-1.14664A6.35246,6.35246,0,0,1,13.001,21.814a13.11092,13.11092,0,0,1,3.1749.5609q2.91832-4.07776,5.65856-8.027,2.739-3.94948,5.24862-8.4355a10.99293,10.99293,0,0,0-2.40686-.484,18.37409,18.37409,0,0,0-2.5091-.07692,37.76135,37.76135,0,0,0-6.09395.5867A19.41981,19.41981,0,0,0,10.8505,7.59415a9.15077,9.15077,0,0,0-3.48212,2.85419,5.56171,5.56171,0,0,0-.87077,4.17906,3.64577,3.64577,0,0,0,.30722,1.07068,3.69026,3.69026,0,0,0,.40994.66266q.20378.25586.38354.45818a1.50181,1.50181,0,0,1,.28226.51026,1.38807,1.38807,0,0,1-.25682,1.096,3.16081,3.16081,0,0,1-.89573.81507,3.9536,3.9536,0,0,1-1.20343.48446,5.35494,5.35494,0,0,1-1.1775.15289,1.56028,1.56028,0,0,1-.81989.40706A2.08232,2.08232,0,0,1,2.5033,20.234a2.57375,2.57375,0,0,1-.973-.56042,2.65874,2.65874,0,0,1-.71716-1.12133,7.29024,7.29024,0,0,1-.43491-1.07068,7.77392,7.77392,0,0,1-.28178-1.27373A11.14513,11.14513,0,0,1,1.37668,9.19945a13.87369,13.87369,0,0,1,5.3259-5.0806,29.13165,29.13165,0,0,1,8.808-3.08352A60.32367,60.32367,0,0,1,27.18534,0ZM169.90149,1.22362a5.74569,5.74569,0,0,1,.74213.05064,6.82962,6.82962,0,0,1,3.3285,1.40178A3.281,3.281,0,0,1,175.38,4.63824a1.84061,1.84061,0,0,1-.1536,1.12084,6.454,6.454,0,0,1-.66533,1.12181,20.50928,20.50928,0,0,0-1.58745,2.82839q-.872,1.81028-1.767,4.12841-.89572,2.31981-1.71513,4.89284-.82014,2.57493-1.51065,5.0462-.69123,2.47246-1.12711,4.63771a23.19852,23.19852,0,0,0-.48627,3.69507q-.05111.51026-.05136,1.01956a2.78823,2.78823,0,0,0,.1541.94264,1.385,1.385,0,0,0,.5117.688,1.74259,1.74259,0,0,0,1.02439.25513,2.88929,2.88929,0,0,0,1.81738-.79023,15.554,15.554,0,0,0,2.22829-2.472h0l.25584-1.78352q.15337-1.6311.51219-3.89907.35715-2.26678.89574-4.76576.53858-2.4961,1.30615-5.04572a35.12635,35.12635,0,0,1,1.79242-4.73948,21.22288,21.22288,0,0,1,2.27869-3.84843,8.03334,8.03334,0,0,1,2.79088-2.42086,6.11648,6.11648,0,0,1,1.66377.25513,6.74252,6.74252,0,0,1,1.71562.764,6.04933,6.04933,0,0,1,1.4084,1.19825,3.24549,3.24549,0,0,1,.7426,1.60483,2.4312,2.4312,0,0,1-.23041,1.35113,3.61611,3.61611,0,0,1-.89621,1.29953,14.74189,14.74189,0,0,0-2.40686,3.9502,59.6959,59.6959,0,0,0-2.176,5.63147,57.69127,57.69127,0,0,0-1.6393,5.96352,37.94889,37.94889,0,0,0-.79347,4.944c-.03458.3053-.06.58623-.07681.84088a2.41737,2.41737,0,0,0,.02592.63687,1.87011,1.87011,0,0,0,.43491,1.01956,1.37212,1.37212,0,0,0,1.04982.35689,3.757,3.757,0,0,0,1.97146-.612,11.43259,11.43259,0,0,0,2.33005-2.08977c.09026-.08934.18627-.19588.2861-.31437a11.737,11.737,0,0,1,.53284-4.01756,16.51308,16.51308,0,0,1,2.40685-4.84172,13.90774,13.90774,0,0,1,3.71254-3.568,7.95437,7.95437,0,0,1,4.37832-1.37549,4.50983,4.50983,0,0,1,2.45822.71331,6.2195,6.2195,0,0,1,1.63834-.25513,4.6071,4.6071,0,0,1,3.35443,1.17244,6.4072,6.4072,0,0,1,1.6897,2.8284,9.99128,9.99128,0,0,1,.35858,3.51686,9.51606,9.51606,0,0,1-.74262,3.23641,1.99615,1.99615,0,0,0,1.383.56091,2.35688,2.35688,0,0,0,1.792-.76444q.71642-.76467,1.58792-1.784.51051-.612.768-.612a1.70457,1.70457,0,0,1,.94708.43334,1.59129,1.59129,0,0,1,.4354.79023,4.13418,4.13418,0,0,1-.33315,1.80931,5.62142,5.62142,0,0,1-1.12614,1.73287,6.16237,6.16237,0,0,1-1.767,1.29953,4.76573,4.76573,0,0,1-2.151.50978,6.25562,6.25562,0,0,1-1.357-.15336,4.38433,4.38433,0,0,1-1.35657-.56042,20.83356,20.83356,0,0,1-1.76746,2.5231,13.521,13.521,0,0,1-2.40637,2.31909,13.19714,13.19714,0,0,1-2.99538,1.68175,9.07734,9.07734,0,0,1-3.43075.66267,7.60549,7.60549,0,0,1-2.86817-.53558,8.57684,8.57684,0,0,1-2.3814-1.42662,7.88815,7.88815,0,0,1-1.74059-2.08976c-.0264-.04587-.047-.09365-.072-.13952a13.79974,13.79974,0,0,1-1.43864,1.28616,14.83787,14.83787,0,0,1-3.6098,2.06445,10.1238,10.1238,0,0,1-3.76438.78975,5.51527,5.51527,0,0,1-3.09761-.89152,4.54282,4.54282,0,0,1-1.86923-2.472,13.27391,13.27391,0,0,1-3.76388,2.62487,9.6129,9.6129,0,0,1-4.07113.99328,5.88813,5.88813,0,0,1-1.587-.22885,4.94526,4.94526,0,0,1-1.51113-.71379,4.52243,4.52243,0,0,1-1.203-1.27421,4.60532,4.60532,0,0,1-.6658-1.91108c-.00383-.1634-.00624-.33157-.00767-.50261a14.65344,14.65344,0,0,1-1.273,1.1648,18.5963,18.5963,0,0,1-3.50757,2.24265,7.838,7.838,0,0,1-3.40579.91779,4.61188,4.61188,0,0,1-3.25122-.91779,5.01147,5.01147,0,0,1-1.25479-2.90484,19.23114,19.23114,0,0,1-.17905-2.57375,31.2719,31.2719,0,0,1,.1536-3.46574,34.344,34.344,0,0,1,.589-3.79731,18.73306,18.73306,0,0,1,1.10069-3.54219,9.95994,9.95994,0,0,1,1.66427-2.7013,3.78721,3.78721,0,0,1,2.30413-1.29954,6.30659,6.30659,0,0,1,2.3046.10177,2.27153,2.27153,0,0,1,1.33113.76443,2.77668,2.77668,0,0,1,.4613.96891,8.41326,8.41326,0,0,1-.07681,1.75772,10.35456,10.35456,0,0,1-.40994,1.63111q-.28226.84063-.64035,1.80931-.35859.96891-.768,2.34489-.35858,1.17244-.768,2.72663a16.53423,16.53423,0,0,0-.51219,3.1853.8602.8602,0,0,0,.9735.81555,4.09067,4.09067,0,0,0,2.53405-1.35113c.88661-.8189,1.80924-1.76489,2.76592-2.8241h0q.17858-3.21707.589-6.73178.409-3.51734,1.1007-7.11017a52.94492,52.94492,0,0,1,1.71562-6.67635,26.71912,26.71912,0,0,1,2.40686-5.37729,8.21134,8.21134,0,0,1,3.17489-3.21109A2.79227,2.79227,0,0,1,169.90149,1.22362Zm27.34427,20.79444a6.295,6.295,0,0,0-2.151,1.52886,10.82193,10.82193,0,0,0-1.74057,2.42134,12.94338,12.94338,0,0,0-1.10118,2.82887,6.88924,6.88924,0,0,0-.17907,2.80308,8.37375,8.37375,0,0,0,.30722,1.29953,5.35312,5.35312,0,0,0,.5122,1.14617,2.66747,2.66747,0,0,0,.79348.84183,1.90774,1.90774,0,0,0,1.10118.33062,3.43671,3.43671,0,0,0,1.97147-.73863,6.33752,6.33752,0,0,0,1.53609-1.73287,9.09371,9.09371,0,0,0,.99846-2.3449,9.64037,9.64037,0,0,0,.35907-2.57374,5.02411,5.02411,0,0,1-.76853-.8662,10.46628,10.46628,0,0,1-.768-1.22357,9.28174,9.28174,0,0,1-.61442-1.40129,7.71889,7.71889,0,0,1-.35859-1.4529,1.14187,1.14187,0,0,1,0-.484A3.54584,3.54584,0,0,1,197.24576,22.01806Zm-82.80249-.05069q-.25705-.35689-1.178-.25465a5.08869,5.08869,0,0,0-2.58591,1.5795,12.35163,12.35163,0,0,0-2.04827,2.956,16.595,16.595,0,0,0-1.28024,3.41509,8.1905,8.1905,0,0,0-.28178,2.956,2.20164,2.20164,0,0,0,.61444,1.4013,1.86427,1.86427,0,0,0,1.22935.3827,3.67427,3.67427,0,0,0,1.71562-.43334,2.93444,2.93444,0,0,0,1.0239-1.01908,5.84252,5.84252,0,0,0,.61491-1.47822q.22969-.84135.48627-1.75867.409-1.98729.84485-3.8986Q114.0326,23.904,114.44327,21.96737ZM31.12877,10.39722q-1.89586,3.67-4.07111,7.31418-2.17741,3.64419-4.63419,7.16081,3.84,1.47846,7.42507,3.16.10224-4.48482.40946-8.99545Q30.56546,14.52539,31.12877,10.39722Z" style="fill:#ff7043;fill-rule:evenodd"/><path d="M155.52586,11.947a3.76481,3.76481,0,0,1-3.4607,2.07272,8.00062,8.00062,0,0,1,3.4607-2.07272m-2.65515,4.804c2.51328,0,4.50394-1.88361,4.50394-2.82561a2.478,2.478,0,0,0-.94824-2.16668,6.26383,6.26383,0,0,1,2.276.09436c.09459-.33006-.33185-2.92037-3.74606-2.92037-2.79622,0-4.83579,2.308-4.83579,4.05029a2.37222,2.37222,0,0,0,.14228.80066,2.57344,2.57344,0,0,0,2.60786,2.96735" style="fill:#ff7043;fill-rule:evenodd"/></svg>