<?xml version="1.0" encoding="utf-8"?>
<!-- Generator: Adobe Illustrator 25.4.1, SVG Export Plug-In . SVG Version: 6.00 Build 0)  -->
<svg version="1.1" id="Layer_1" xmlns="http://www.w3.org/2000/svg" xmlns:xlink="http://www.w3.org/1999/xlink" x="0px" y="0px"
	 viewBox="0 0 69 67" style="enable-background:new 0 0 69 67;" xml:space="preserve">
<style type="text/css">
	.st0{fill-rule:evenodd;clip-rule:evenodd;fill:#FF7043;}
	.st1{fill-rule:evenodd;clip-rule:evenodd;fill:#3F3350;}
	.st2{filter:url(#Adobe_OpacityMaskFilter);}
	.st3{fill-rule:evenodd;clip-rule:evenodd;fill:#FFFFFF;}
	.st4{mask:url(#mask-2_00000160162617970778444100000015304880884400719803_);fill-rule:evenodd;clip-rule:evenodd;fill:#3F3350;}
	.st5{fill:none;stroke:#3F3350;stroke-width:1.2;stroke-linecap:round;stroke-linejoin:round;}
	.st6{fill:#3F3350;}
</style>
<g id="UI-KIT">
	<g id="Artboard" transform="translate(-428.000000, -2591.000000)">
		<g id="Group" transform="translate(399.000000, 2482.500000)">
			<g id="Group-10" transform="translate(0.000000, 63.500000)">
				<g id="Group-42" transform="translate(29.000000, 45.000000)">
					<polygon id="Fill-2" class="st0" points="20.9,34.9 29.4,34.9 29.4,26.4 20.9,26.4 					"/>
					<g id="Group-41">
						<path id="Fill-3" class="st1" d="M48.3,55.6c0.4-0.7,0.8-1.3,1.3-2c0.5-0.6,1.1-1.2,1.8-1.6c0.7-0.4,1.6-0.7,2.4-0.7
							c0.8,0,1.6,0.2,2.3,0.5c0.1,0.1,0.2,0.2,0.1,0.3c0,0.1-0.2,0.2-0.3,0.1l0,0c-0.7-0.2-1.4-0.3-2.1-0.3
							c-0.7,0.1-1.3,0.3-1.9,0.7c-1.1,0.8-1.8,2.1-2.4,3.4l0,0c-0.2,0.4-0.6,0.5-1,0.4C48.3,56.5,48.1,56,48.3,55.6
							C48.3,55.6,48.3,55.6,48.3,55.6"/>
						<g id="Group-7" transform="translate(60.891593, 50.971547)">
							<g id="Clip-6">
							</g>
							<defs>
								<filter id="Adobe_OpacityMaskFilter" filterUnits="userSpaceOnUse" x="0" y="0" width="8.1" height="5.3">
									<feColorMatrix  type="matrix" values="1 0 0 0 0  0 1 0 0 0  0 0 1 0 0  0 0 0 1 0"/>
								</filter>
							</defs>
							
								<mask maskUnits="userSpaceOnUse" x="0" y="0" width="8.1" height="5.3" id="mask-2_00000160162617970778444100000015304880884400719803_">
								<g class="st2">
									<polygon id="path-1_00000078021730480773240380000006091015446777678990_" class="st3" points="0,0 8.1,0 8.1,5.3 0,5.3 
																			"/>
								</g>
							</mask>
							<path id="Fill-5" class="st4" d="M0.1,4.2c0.4-0.7,0.8-1.3,1.3-2C2,1.7,2.6,1.1,3.3,0.7C4,0.2,4.8,0,5.6,0
								C6.5,0,7.3,0.2,8,0.5c0.1,0.1,0.2,0.2,0.1,0.3C8,1,7.9,1,7.8,1l0,0C7.1,0.8,6.4,0.6,5.7,0.7C5,0.8,4.3,1,3.8,1.5
								C2.7,2.3,2,3.6,1.4,4.9l0,0c-0.2,0.4-0.6,0.5-1,0.4C0.1,5.1-0.1,4.7,0.1,4.2C0.1,4.3,0.1,4.3,0.1,4.2"/>
						</g>
						<path id="Fill-8" class="st1" d="M54.4,51.5c0.8-0.4,1.6-0.7,2.5-0.7c0.9,0,1.8,0.5,2.4,1.1c0.6,0.6,1.1,1.3,1.4,2
							c0.4,0.7,0.7,1.4,1,2.1c0,0.1,0,0.3-0.1,0.3c-0.1,0-0.2,0-0.3-0.1c-0.4-0.7-0.8-1.3-1.2-1.9c-0.4-0.6-0.9-1.2-1.5-1.6
							C58.2,52.2,57.6,52,57,52c-0.6,0.1-1.2,0.3-1.8,0.7l0,0c-0.3,0.2-0.8,0.1-1-0.2C53.9,52.2,54,51.8,54.4,51.5
							C54.4,51.5,54.4,51.5,54.4,51.5"/>
						<line id="Stroke-10" class="st5" x1="11" y1="60.4" x2="11" y2="17.1"/>
						<line id="Stroke-12" class="st5" x1="58.9" y1="17.1" x2="58.9" y2="52.1"/>
						<polyline id="Stroke-14" class="st5" points="64.7,21.1 34.9,0.6 5.2,21.1 						"/>
						<polygon id="Stroke-16" class="st5" points="19.2,34.9 29.6,34.9 29.6,24.6 19.2,24.6 						"/>
						<path id="Fill-20" class="st1" d="M52.8,13.4V0.6l0.6,0.6h-4.8l0.6-0.6l-0.1,5.1c0,0.3-0.2,0.5-0.5,0.4
							c-0.2,0-0.4-0.2-0.4-0.4l-0.1-5.1c0-0.3,0.2-0.6,0.6-0.6h0h0h4.8C53.8,0,54,0.3,54,0.6v12.8c0,0.3-0.3,0.6-0.6,0.6
							S52.8,13.7,52.8,13.4"/>
						<line id="Stroke-21" class="st5" x1="24.4" y1="24.6" x2="24.4" y2="34.9"/>
						<line id="Stroke-22" class="st5" x1="19.2" y1="29.7" x2="29.6" y2="29.7"/>
						<polygon id="Fill-23" class="st0" points="42.5,34.9 51.1,34.9 51.1,26.4 42.5,26.4 						"/>
						<polygon id="Stroke-24" class="st5" points="40.7,34.9 51.1,34.9 51.1,24.6 40.7,24.6 						"/>
						<line id="Stroke-25" class="st5" x1="45.9" y1="24.6" x2="45.9" y2="34.9"/>
						<line id="Stroke-26" class="st5" x1="40.7" y1="29.7" x2="51.1" y2="29.7"/>
						<path id="Fill-27" class="st3" d="M5.9,64.1c0,0-0.1,0-0.2,0C5.6,64,5.5,64,5.4,64c-0.1,0-0.2-0.1-0.3-0.1
							c-0.1,0-0.2-0.1-0.2-0.1c0-0.2-0.1-0.2-0.4-0.3c-0.1,0-0.2,0-0.3-0.1C4.1,63.2,4,63,3.9,62.8c-0.1-0.3-0.2-0.5-0.3-0.5
							c-0.1-0.1-0.2-0.1-0.3-0.2c-0.2,0-0.3-0.2-0.4-0.2c0,0,0-0.3-0.1-0.4c0-0.1,0-0.1,0-0.2c0-0.1,0.1-0.2,0.1-0.3
							c0,0,0.1-0.3-0.2-0.3c0-0.1-0.1-0.1-0.2-0.2c-0.1-0.1-0.2-0.1-0.2-0.2c0-0.1-0.3-0.3-0.6-0.4c0,0,0,0,0-0.1l0,0c0,0,0,0,0-0.1
							c0-0.1-0.1-0.1-0.1-0.2c-0.1-0.2-0.1-0.3-0.2-0.5c-0.1-0.3-0.2-0.6-0.2-0.8c0-0.1-0.1-0.2-0.1-0.3c0,0,0,0,0,0
							c0,0,0-0.1,0-0.1c0-0.1,0-0.1,0-0.2c0-0.1,0-0.2,0-0.3c0-0.4,0.1-0.6,0.1-0.7c0-0.1-0.1-0.6,0-1.2c0-0.3,0-0.7,0.1-1.1
							c0-0.2,0-0.4,0.1-0.7c0-0.1,0-0.1,0-0.2l0-0.1c0,0,0,0,0,0l0,0l0.1,0C1.7,53.1,1.8,53,2,52.8c1.2-1.1,2.5-2.3,4-3.7
							c0.2-0.2,0.4-0.3,0.6-0.5l0.1-0.1l0,0c0,0,0,0,0,0l0.1,0c0.1,0,0.1,0,0.2,0c0.3,0,0.6-0.1,0.9-0.1c0.6-0.1,1.2-0.2,1.9-0.3
							c0.1,0,0.2,0,0.3,0c0.1,0,0.2,0,0.3,0c0.1,0,0.3,0,0.4,0c0.3,0,0.6,0.1,0.8,0.1l0.2,0l0.1,0c0,0,0,0,0.1,0l0.3,0.1
							c0.2,0,0.3,0.1,0.5,0.1c0.2,0,0.3,0.1,0.4,0.1c0.1,0,0.2,0.1,0.4,0.1l0.1,0l0.1,0c0,0,0.1,0,0.1,0.1c0.1,0,0.2,0.1,0.3,0.1
							c0.1,0,0.2,0.1,0.3,0.2c0.1,0,0.1,0.1,0.2,0.1c0.1,0,0.2,0.1,0.2,0.1c0.3,0.1,0.6,0.3,0.5,0.4c-0.1,0.1,0,0.1,0.2,0.1
							c0.1-0.1,0.4-0.1,0.7,0c0.2,0.1,0.4,0.2,0.3,0.3c-0.1,0.1,0.1,0.2,0.2,0.2c0.2-0.1,0.3,0,0.6,0.2c0.1,0.1,0.3,0.2,0.5,0.4
							c0,0,0.1,0.1,0.2,0.1c0.1,0,0.1,0.1,0.2,0.1c0.1,0.1,0.2,0.2,0.4,0.3c0.1,0.1,0.2,0.3,0.4,0.4c0.1,0.1,0.3,0.3,0.4,0.4
							c0.1,0.1,0.2,0.3,0.3,0.4c0.1,0.1,0.2,0.2,0.2,0.3c0,0.1,0.1,0.2,0.2,0.3c0,0.1,0.1,0.1,0.1,0.2c0,0.1,0.1,0.2,0.1,0.2
							c0.1,0.2,0.2,0.3,0.3,0.5c0.1,0.2,0.1,0.3,0.2,0.5c0.3,0.9,0.1,1.2,0,1.3c-0.2,0.1-0.3,0.3-0.3,0.4c0,0.2-0.1,0.4-0.1,0.6
							c0,0.2,0,0.4,0.1,0.7c0.1,0.1,0.1,0.2,0.1,0.3c0,0.1,0,0.1,0,0.1c-0.2,0-0.2,0.1-0.1,0.4c0.1,0.2,0,0.6,0,0.9
							c-0.1,0.3-0.2,0.5-0.3,0.5c0,0,0,0.1-0.1,0.1c-0.1,0.1-0.1,0.2-0.2,0.4c-0.1,0.1-0.1,0.2-0.2,0.3c-0.1,0.1-0.2,0.3-0.3,0.5
							c-0.1,0.2-0.2,0.4-0.4,0.6c-0.2,0.2-0.3,0.4-0.5,0.6c-0.1,0.1-0.2,0.2-0.3,0.4c-0.1,0.2-0.3,0.5-0.6,1
							c-0.2,0.2-0.3,0.4-0.5,0.5c-0.2,0.1-0.3,0.3-0.4,0.4c-0.1,0.1-0.1,0.1-0.2,0.2c-0.1,0-0.1,0.1-0.2,0.1
							c-0.1,0.1-0.3,0.2-0.5,0.3C15.2,65.7,15,65.8,15,66c-0.1,0-0.1,0.2-0.1,0.2c0,0-0.1,0.2-0.2,0.2c0,0-0.1,0.1-0.2,0.1
							c-0.1,0.1-0.2,0.1-0.2,0.1c-0.1,0-0.2,0.1-0.4,0.2c-0.1,0.1-0.1-0.2-0.3-0.2c-0.1,0.1-0.2,0.1-0.3,0.1c-0.1,0-0.2,0.1-0.3,0.1
							c-0.2,0-0.4,0.1-0.5,0.1L5.9,64.1z"/>
						<path id="Fill-28" class="st1" d="M5.2,50.6c-1.1,0.8-2.1,1.8-2.8,3c-0.7,1.2-1,2.6-0.8,3.9c0,0.2-0.1,0.4-0.4,0.5
							c-0.2,0-0.4-0.1-0.5-0.3c-0.3-1.5,0-3.1,0.6-4.5c0.7-1.4,1.7-2.6,2.9-3.6c0.3-0.3,0.8-0.2,1,0.1C5.6,49.9,5.6,50.4,5.2,50.6
							C5.2,50.6,5.2,50.6,5.2,50.6"/>
						<path id="Fill-29" class="st1" d="M19.8,59.5c0.2-1,0.3-2,0.3-3c0-1-0.1-2-0.5-2.9c-0.3-0.9-0.9-1.7-1.7-2.3
							c-0.8-0.6-1.7-1-2.7-1.3l0,0c-0.1,0-0.2-0.2-0.2-0.3c0-0.1,0.1-0.2,0.3-0.2c1,0.2,2.1,0.5,3,1.2c0.9,0.6,1.7,1.5,2.1,2.5
							c0.5,1,0.7,2.1,0.8,3.2c0.1,1.1,0.1,2.1,0,3.2c0,0.4-0.4,0.7-0.8,0.7C20.1,60.4,19.8,60,19.8,59.5
							C19.8,59.6,19.8,59.6,19.8,59.5"/>
						<path id="Fill-30" class="st1" d="M14.9,51c-0.4-0.9-0.9-1.7-1.6-2.3c-0.7-0.6-1.7-0.7-2.6-0.7c-1,0.1-2,0.4-2.9,0.8
							c-1,0.4-1.9,0.9-2.8,1.4c-0.1,0.1-0.3,0-0.3-0.1c-0.1-0.1,0-0.2,0.1-0.3c0.9-0.6,1.8-1.1,2.8-1.6c1-0.5,2-0.9,3.1-1.1
							c1.1-0.2,2.4-0.1,3.4,0.6c1,0.7,1.7,1.6,2.3,2.6c0.2,0.4,0.1,0.8-0.3,1C15.6,51.6,15.1,51.5,14.9,51
							C14.9,51.1,14.9,51.1,14.9,51L14.9,51z"/>
						<path id="Fill-31" class="st0" d="M6.6,56.8c0.4,0.1,0.8-0.3,0.9-0.7c0.1-0.5-0.2-0.9-0.6-1C6.5,55,6.1,55.3,6,55.8
							C5.9,56.3,6.2,56.7,6.6,56.8"/>
						<path id="Fill-32" class="st0" d="M66.3,56.8c0.4,0.1,0.8-0.3,0.9-0.7c0.1-0.5-0.2-0.9-0.6-1c-0.4-0.1-0.8,0.3-0.9,0.7
							C65.7,56.3,65.9,56.7,66.3,56.8"/>
						<path id="Fill-33" class="st0" d="M58.1,56.7c0.4,0.1,0.8-0.3,0.9-0.7c0.1-0.5-0.2-0.9-0.6-1c-0.4-0.1-0.8,0.3-0.9,0.7
							C57.4,56.2,57.7,56.6,58.1,56.7"/>
						<path id="Fill-34" class="st0" d="M13.7,56.2c0,0.3,0.5,0.6,1.1,0.7c0.6,0.1,1.2-0.1,1.2-0.4c0-0.3-0.5-0.6-1.1-0.7
							C14.3,55.7,13.8,55.9,13.7,56.2"/>
						<path id="Fill-35" class="st0" d="M53.2,57.9c0,0.3,0.5,0.6,1.1,0.7c0.6,0.1,1.2-0.1,1.2-0.4c0-0.3-0.5-0.6-1.1-0.7
							C53.8,57.5,53.3,57.6,53.2,57.9"/>
						<path id="Fill-36" class="st0" d="M13.3,59.3c-0.3,0.1-0.4,0.6-0.2,1.2c0.2,0.6,0.6,1,0.9,1c0.3-0.1,0.4-0.6,0.2-1.2
							C14,59.7,13.6,59.2,13.3,59.3"/>
						<path id="Fill-37" class="st0" d="M12.3,51.8c0-0.4-0.3-0.8-0.7-0.9c-0.4-0.1-0.8,0.2-0.9,0.7c0,0.4,0.3,0.8,0.7,0.9
							C11.9,52.5,12.2,52.2,12.3,51.8"/>
						<path id="Fill-38" class="st1" d="M0.6,60.6l16.8-0.1c5.6,0,11.2-0.1,16.8,0l16.8,0.2l8.4,0.1l8.4,0.2c0.2,0,0.3,0.1,0.3,0.3
							c0,0.2-0.1,0.3-0.3,0.3l-8.4,0.2l-8.4,0.1l-16.8,0.2c-5.6,0-11.2,0-16.8,0L0.6,61.7c-0.3,0-0.6-0.3-0.6-0.6
							C0,60.8,0.3,60.6,0.6,60.6"/>
						<path id="Fill-39" class="st0" d="M39.4,14.9c0,2.4-1.9,4.3-4.3,4.3c-2.4,0-4.3-1.9-4.3-4.3c0-2.4,1.9-4.3,4.3-4.3
							C37.5,10.7,39.4,12.6,39.4,14.9"/>
						<path id="Fill-40" class="st1" d="M30.5,14.9c-0.1-0.9,0.2-1.8,0.7-2.6c0.5-0.8,1.3-1.4,2.1-1.8c1.7-0.8,4-0.4,5.3,1
							c0.7,0.7,1.1,1.6,1.3,2.5c0.2,0.9,0.1,1.9-0.3,2.8c-0.4,0.9-1,1.6-1.8,2.1c-0.8,0.5-1.7,0.7-2.6,0.6c-0.2,0-0.3-0.1-0.3-0.3
							c0-0.1,0.1-0.2,0.3-0.3c1.6-0.1,3-1.2,3.5-2.6c0.5-1.4,0.2-3-0.9-4c-0.5-0.5-1.2-0.9-1.9-1c-0.7-0.1-1.5-0.1-2.2,0.2
							c-1.4,0.5-2.4,1.9-2.5,3.4c0,0.2-0.2,0.4-0.4,0.4C30.6,15.3,30.5,15.1,30.5,14.9"/>
						<g>
							<path class="st6" d="M39.3,60.5c-0.1-1.5-0.2-3-0.2-4.6c0-1.5,0-3-0.1-4.6c0-3,0-6.1,0-9.1l0.7,0.7l-9.5-0.3
								c-0.3,0-0.5-0.2-0.5-0.5c0-0.3,0.2-0.5,0.5-0.5l9.5-0.3c0.4,0,0.7,0.3,0.7,0.7l0,0l0,0c0,3,0.1,6.1,0,9.1c0,1.5,0,3-0.1,4.6
								c0,1.5-0.1,3-0.2,4.6c0,0.3-0.2,0.5-0.5,0.4C39.5,60.9,39.3,60.7,39.3,60.5z"/>
						</g>
					</g>
				</g>
			</g>
		</g>
	</g>
</g>
</svg>
