<?xml version="1.0" encoding="UTF-8"?>
<svg width="19px" height="18px" viewBox="0 0 19 18" version="1.1" xmlns="http://www.w3.org/2000/svg" xmlns:xlink="http://www.w3.org/1999/xlink">
    <title>Group</title>
    <g id="Symbols" stroke="none" stroke-width="1" fill="none" fill-rule="evenodd">
        <g id="Mobile-Nav" transform="translate(0.000000, -4.000000)" fill="#3F3350" fill-rule="nonzero">
            <g id="Group" transform="translate(0.000000, 4.000000)">
                <path d="M10.0270729,18 C11.1833348,18 12.329629,17.9933452 13.4659554,17.9800355 C14.6022818,17.9667258 15.6090271,17.8868678 16.4861914,17.7404614 C17.3633556,17.594055 18.0311965,17.3411713 18.4897142,16.9818101 C18.9482319,16.622449 19.0977485,16.0967169 18.9382641,15.404614 C18.9382641,15.2981366 18.8784574,15.244898 18.7588441,15.244898 C18.2803909,14.6326531 17.52284,14.2466726 16.4861914,14.0869565 C14.2932808,14.2200532 12.0704668,14.3398403 9.81774961,14.4463177 C7.56503236,14.552795 5.22260514,14.6459627 2.79046795,14.7258208 C1.99304591,14.8589175 1.44481827,15.1118012 1.145785,15.484472 C0.846751741,15.8571429 0.737106212,16.2298137 0.816848415,16.6024845 C0.976332822,17.18811 1.27536608,17.5341615 1.7139482,17.6406389 C2.15253032,17.7471162 2.77053239,17.8269743 3.56795443,17.880213 L3.56795443,17.880213 L5.66118726,17.920142 C6.45860929,17.9467613 7.21616022,17.9667258 7.93384005,17.9800355 C8.65151988,17.9933452 9.34926416,18 10.0270729,18 Z" id="="></path>
                <path d="M10.0270729,10.9565217 C11.1833348,10.9565217 12.329629,10.9498669 13.4659554,10.9365572 C14.6022818,10.9232476 15.6090271,10.8433895 16.4861914,10.6969831 C17.3633556,10.5505768 18.0311965,10.297693 18.4897142,9.93833185 C18.9482319,9.57897072 19.0977485,9.05323869 18.9382641,8.36113576 C18.9382641,8.25465839 18.8784574,8.2014197 18.7588441,8.2014197 C18.2803909,7.5891748 17.52284,7.20319432 16.4861914,7.04347826 C14.2932808,7.17657498 12.0704668,7.29636202 9.81774961,7.4028394 C7.56503236,7.50931677 5.22260514,7.60248447 2.79046795,7.6823425 C1.99304591,7.81543922 1.44481827,8.06832298 1.145785,8.44099379 C0.846751741,8.8136646 0.737106212,9.1863354 0.816848415,9.55900621 C0.976332822,10.1446318 1.27536608,10.4906832 1.7139482,10.5971606 C2.15253032,10.703638 2.77053239,10.783496 3.56795443,10.8367347 L3.56795443,10.8367347 L5.66118726,10.8766637 C6.45860929,10.9032831 7.21616022,10.9232476 7.93384005,10.9365572 C8.65151988,10.9498669 9.34926416,10.9565217 10.0270729,10.9565217 Z" id="=-copy-2"></path>
                <path d="M9.46012073,3.91304348 C10.8259131,3.91304348 12.0711944,3.9 13.1959646,3.87391304 C14.3207348,3.84782609 15.2747809,3.75652174 16.058103,3.6 C16.8414251,3.44347826 17.4238954,3.19565217 17.8055138,2.85652174 C18.1871323,2.5173913 18.2976008,2.03478261 18.1369194,1.40869565 C17.9360675,0.652173913 17.3736824,0.182608696 16.4497641,0 C15.2446531,0.104347826 14.06967,0.195652174 12.9248146,0.273913043 C11.7799592,0.352173913 10.6150187,0.417391304 9.42999295,0.469565217 C8.24496721,0.52173913 7.00972852,0.573913043 5.72427687,0.626086957 C4.43882522,0.67826087 3.05294767,0.730434783 1.5666442,0.782608696 C1.04442946,0.860869565 0.642725824,1.0826087 0.361533276,1.44782609 C-0.120511092,1.94347826 -0.120511092,2.42608696 0.361533276,2.89565217 C0.482044368,3.1826087 0.652768415,3.39782609 0.873705417,3.54130435 C1.09464242,3.68478261 1.37583497,3.77608696 1.71728306,3.81521739 C2.05873116,3.85434783 2.42026443,3.87391304 2.80188289,3.87391304 L2.80188289,3.87391304 L4.03712158,3.87391304 C4.72001777,3.9 5.56359542,3.91304348 6.56785452,3.91304348 L6.56785452,3.91304348 L9.46012073,3.91304348 Z" id="=-copy"></path>
            </g>
        </g>
    </g>
</svg>