<?xml version="1.0" encoding="UTF-8"?>
<svg width="41px" height="37px" viewBox="0 0 41 37" version="1.1" xmlns="http://www.w3.org/2000/svg" xmlns:xlink="http://www.w3.org/1999/xlink">
    <title>Group 27</title>
    <defs>
        <polygon id="path-1" points="-1.19348975e-15 0 40.6663073 0 40.6663073 36.617 -1.19348975e-15 36.617"></polygon>
    </defs>
    <g id="Symbols" stroke="none" stroke-width="1" fill="none" fill-rule="evenodd">
        <g id="Quotes" transform="translate(-785.000000, -136.000000)">
            <g id="Testimonials" transform="translate(123.000000, 39.000000)">
                <g id="Group-27" transform="translate(662.000000, 97.000000)">
                    <g id="Group-6" transform="translate(0.000000, 0.000000)">
                        <path d="M30.7776733,29.4519 C28.4076733,31.4459 25.5066733,33.4819 21.9996733,35.5269 L21.8546733,35.6109 L21.7686733,35.5579 C-11.8643267,15.1059 10.2366733,-2.4821 20.4546733,6.1349 C21.3596733,4.2499 23.8226733,1.5429 27.9046733,1.0819 C35.3726733,0.1919 43.9246733,11.5089 37.4656733,22.0079" id="Fill-1" fill="#FB5D60"></path>
                        <g id="Group-5">
                            <mask id="mask-2" fill="white">
                                <use xlink:href="#path-1"></use>
                            </mask>
                            <g id="Clip-4"></g>
                            <path d="M30.4255733,29.1599 C27.5145733,31.8879 24.3065733,34.2839 20.9715733,36.4669 L20.9685733,36.4689 C20.6495733,36.6699 20.2575733,36.6599 19.9555733,36.4779 L19.9245733,36.4589 C15.6645733,33.8759 11.4685733,30.9669 7.85457332,27.3819 C6.04257332,25.5969 4.37257332,23.6319 3.00757332,21.4309 C1.64857332,19.2339 0.584573315,16.7859 0.157573315,14.1509 C-0.0334266846,12.8309 -0.0564266846,11.4769 0.119573315,10.1369 C0.309573315,8.7959 0.738573315,7.4849 1.36557332,6.2799 C2.61357332,3.8549 4.75257332,1.9209 7.26557332,0.8949 C9.75857332,-0.1641 12.6645733,-0.2731 15.2305733,0.5129 C16.5315733,0.8889 17.7975733,1.5309 18.8575733,2.4339 C19.9255733,3.3299 20.7685733,4.4769 21.3435733,5.7199 L19.5655733,5.7219 C20.2795733,4.1929 21.4005733,2.8079 22.8295733,1.8579 C24.2515733,0.8999 25.9025733,0.3769 27.5215733,0.1619 C29.1695733,-0.0171 30.8745733,0.0629 32.4675733,0.5649 C34.0485733,1.0789 35.5275733,1.8889 36.7875733,2.9729 C38.0095733,4.0979 39.0205733,5.4449 39.6985733,6.9609 C39.8605733,7.3409 39.9745733,7.7399 40.1125733,8.1289 L40.3085733,8.7149 L40.4185733,9.3219 C40.4895733,9.7259 40.5695733,10.1309 40.6275733,10.5349 L40.6645733,11.7599 C40.7195733,15.0489 39.4595733,18.1289 37.8295733,20.7909 C37.6445733,21.0939 37.2495733,21.1879 36.9465733,21.0039 C36.6505733,20.8219 36.5525733,20.4399 36.7225733,20.1399 L36.7255733,20.1339 C38.1875733,17.5499 39.1645733,14.6589 39.0505733,11.7869 L38.9935733,10.7189 L38.7835733,9.6759 L38.6795733,9.1539 L38.4955733,8.6579 C38.3665733,8.3299 38.2655733,7.9909 38.1195733,7.6719 C37.5035733,6.4039 36.6375733,5.2809 35.5965733,4.3419 C34.5185733,3.4409 33.2605733,2.7789 31.9285733,2.3609 C30.5815733,1.9549 29.1755733,1.9219 27.7875733,2.0769 C26.3815733,2.2679 25.0425733,2.7119 23.9205733,3.4719 C22.7965733,4.2249 21.9245733,5.3059 21.3435733,6.5489 L21.3305733,6.5769 C21.1045733,7.0609 20.5295733,7.2699 20.0455733,7.0439 C19.8215733,6.9389 19.6555733,6.7599 19.5655733,6.5499 C17.7715733,2.3719 12.1375733,0.9669 8.03957332,2.7489 C5.95157332,3.6059 4.18557332,5.2169 3.16557332,7.2209 C2.65257332,8.2179 2.29757332,9.3009 2.14157332,10.4239 C2.00057332,11.5489 2.01957332,12.6959 2.18757332,13.8369 C2.56557332,16.1149 3.51257332,18.3159 4.76957332,20.3329 C6.03257332,22.3539 7.60957332,24.1969 9.31957332,25.9099 C11.0345733,27.6209 12.8935733,29.2089 14.8645733,30.6559 C16.8135733,32.1389 18.8755733,33.4499 20.9845733,34.7639 L19.9405733,34.7539 L19.9425733,34.7519 C23.3605733,32.8759 26.6675733,30.7829 29.7155733,28.3439 C29.9475733,28.1549 30.2895733,28.1919 30.4765733,28.4249 C30.6555733,28.6459 30.6285733,28.9679 30.4255733,29.1599" id="Fill-3" fill="#3F3350" mask="url(#mask-2)"></path>
                        </g>
                    </g>
                </g>
            </g>
        </g>
    </g>
</svg>