<svg xmlns="http://www.w3.org/2000/svg" viewBox="0 0 165 101"><path d="M144.18567,42.82025c-14.43523-14.2885-29.31495-17.11273-44.36687-18.64151-15.05272-1.528-55.53447.42422-95.17129-7.17253-3.8731-.74239-3.63684,8.4562-3.01134,11.53418,1.987,9.79565,25.41862,22.13507,25.41862,22.13507S80.51656,71.1977,104.51762,91.401a51.12235,51.12235,0,0,1,7.41944,7.47341l7.027-3.17225" style="fill:#fff;fill-rule:evenodd"/><path d="M163.80122,57.91776C131.768,28.99746,115.46354,29.17343,99.90546,27.85834,84.904,26.59116,38.13686,27.84891,4.11028,18.4602c-3.78341-1.04406-2.83675,3.12433-3.09945,7.00205C.37492,34.87139,27.95116,51.82071,27.95116,51.82071S105.265,82.24858,113.11373,100c24.01627-1.99149,53.59552-9.53561,50.68749-42.08224" style="fill:#ff7043;fill-rule:evenodd"/><path d="M35.14667,40.45009a20.29647,20.29647,0,0,1-2.54523,1.21768,25.87371,25.87371,0,0,1-2.67177.95529,22.793,22.793,0,0,1-5.53976.95686c-.46692-.00157-.93463.05342-1.39914.02671L21.598,43.521c-.46372-.03378-.917-.14612-1.37592-.21368l-.68637-.11548-.66794-.18933c-.44449-.1312-.8994-.23411-1.33668-.38573L16.24567,42.081a7.32352,7.32352,0,0,1-1.251-.61277l-1.23095-.6709-.06087-.03378a.674.674,0,0,0-.90662.25375.64891.64891,0,0,0,.20905.85944,17.66907,17.66907,0,0,0,11.47034,3.26339,22.56471,22.56471,0,0,0,5.89775-1.2004,22.7835,22.7835,0,0,0,5.34672-2.664.4929.4929,0,0,0,.12654-.69447.51582.51582,0,0,0-.67193-.1477Z" style="fill:#3f3350;fill-rule:evenodd"/><path d="M39.95664,40.93724a6.97649,6.97649,0,0,1-2.325.11077,3.10336,3.10336,0,0,1-1.83564-.80524,3.63445,3.63445,0,0,1-.88739-1.77467c-.08569-.35509-.12013-.744-.1938-1.12184-.02644-.39437-.05127-.79188-.11774-1.20039l-.0104-.06285a.54831.54831,0,0,0-1.0716-.03614c-.10171.43208-.16179.87516-.22505,1.32059a9.1696,9.1696,0,0,0,.05847,1.385,4.24045,4.24045,0,0,0,1.38072,2.64276,3.944,3.944,0,0,0,2.88722.85316,5.35942,5.35942,0,0,0,1.37993-.29774,3.58388,3.58388,0,0,0,1.243-.722.18386.18386,0,0,0,.0032-.264.19112.19112,0,0,0-.1786-.05185Z" style="fill:#3f3350;fill-rule:evenodd"/><path d="M163.80122,57.91776c-6.74509-6.67682-33.20328-25.94759-40.115-28.65556-7.87915-3.08741-15.8488-4.26895-23.86811-5.08362-15.05272-1.528-55.53367.42423-95.17129-7.17253-3.8731-.74239-3.60961,7.9652-3.01055,11.53419C2.93137,36.27447,27.055,50.67531,27.055,50.67531S99.38808,78.854,113.11373,100" style="fill:none;stroke:#3f3350;stroke-linecap:round;stroke-linejoin:round;stroke-width:1.600000023841858px"/><path d="M5.69908,22.13956c-.579,1.07627-.4461,2.29945.29633,2.73074.74322.43209,1.81482-.09113,2.39305-1.1674.57905-1.07627.4461-2.29945-.29712-2.73074-.74162-.43208-1.81322.09034-2.39226,1.1674" style="fill:#3f3350;fill-rule:evenodd"/><path d="M8.38335,25.51481c-.57906,1.07706-.4469,2.29945.29632,2.73153.74323.4313,1.81481-.09113,2.39305-1.1674.579-1.07706.44609-2.30024-.29713-2.73153-.74162-.43208-1.8132.09113-2.39224,1.1674" style="fill:#3f3350;fill-rule:evenodd"/><path d="M9.4321,31.927a1.23032,1.23032,0,0,0,.41727.04635,2.17332,2.17332,0,0,0,.32275-.0275,5.47693,5.47693,0,0,0,.60307-.11077,8.56645,8.56645,0,0,0,1.15329-.36452,6.88013,6.88013,0,0,0,2.09432-1.28209,4.57015,4.57015,0,0,0,1.36071-2.19419,5.31184,5.31184,0,0,0-.0921-2.6074A.80475.80475,0,0,0,14.32634,24.8a.78653.78653,0,0,0-.59746.94665.72952.72952,0,0,0,.02081.07149l.02323.06992a3.905,3.905,0,0,1,.28432,1.84459,3.33993,3.33993,0,0,1-.82572,1.70161,5.8721,5.8721,0,0,1-1.66585,1.27739,7.52055,7.52055,0,0,1-.9963.436,4.51118,4.51118,0,0,1-.51418.154c-.15617.05028-.37561.05735-.40285.07306l-.27389.16419a.21175.21175,0,0,0-.07289.29382.21979.21979,0,0,0,.12654.09427" style="fill:#3f3350;fill-rule:evenodd"/></svg>