<svg xmlns="http://www.w3.org/2000/svg" xmlns:xlink="http://www.w3.org/1999/xlink" viewBox="0 0 130 120"><defs><mask id="a" x="39.4998" y="49.22047" width="26.5123" height="68.73779" maskUnits="userSpaceOnUse"><polygon points="39.5 49.221 66.012 49.221 66.012 117.958 39.5 117.958 39.5 49.221" style="fill:#fff;fill-rule:evenodd"/></mask></defs><path d="M84.7719,80.82989H66.6049a6.592,6.592,0,1,1,0-13.184" style="fill:none;stroke:#3f3350;stroke-linecap:round;stroke-linejoin:round;stroke-width:2px"/><line x1="66.6054" y1="80.82989" x2="84.7724" y2="80.82989" style="fill:none;stroke:#3f3350;stroke-linecap:round;stroke-linejoin:round;stroke-width:2px"/><path d="M95.6503,64.64439a8.31233,8.31233,0,0,0-8.312-8.313h-3.918" style="fill:none;stroke:#3f3350;stroke-linecap:round;stroke-linejoin:round;stroke-width:2px"/><line x1="64.9491" y1="56.33189" x2="71.8891" y2="56.33189" style="fill:none;stroke:#3f3350;stroke-linecap:round;stroke-linejoin:round;stroke-width:2px"/><path d="M70.4735,108.19809a7.55889,7.55889,0,0,1-7.486-7.592,7.45305,7.45305,0,0,1,7.486-7.38.788.788,0,0,1,0,1.576,5.77148,5.77148,0,0,0-5.698,5.804,5.68911,5.68911,0,0,0,1.712,3.986,5.62992,5.62992,0,0,0,3.986,1.606,1.00011,1.00011,0,0,1,.03,2h-.03Z" style="fill:#3f3350;fill-rule:evenodd"/><path d="M96.6503,64.64439l-.053,23.646-.025,5.913-.022,2.956-.011,1.477a10.35328,10.35328,0,0,1-.121,1.602,9.08094,9.08094,0,0,1-3.113,5.569,9.206,9.206,0,0,1-5.967,2.17909.78809.78809,0,0,1-.007-1.57609h.007a7.57942,7.57942,0,0,0,4.879-1.864,7.36929,7.36929,0,0,0,2.465-4.565,8.33939,8.33939,0,0,0,.079-1.345l-.011-1.477-.022-2.956-.025-5.913-.053-23.646a1,1,0,1,1,2-.005Z" style="fill:#3f3350;fill-rule:evenodd"/><path d="M81.3773,94.01349l-14.772.001a6.592,6.592,0,0,1,0-13.184" style="fill:none;stroke:#3f3350;stroke-linecap:round;stroke-linejoin:round;stroke-width:2px"/><g style="mask:url(#a)"><path d="M52.5458,72.38269l9.68-11.538c.018-.022.041-.046.06-.066a5.54233,5.54233,0,0,0-7.839-7.837l.064-.071-10.044,12.016c-.019.022-.042.048-.063.068a9.81732,9.81732,0,0,0-2.74,5.339,10.16568,10.16568,0,0,0-.13,1.519l-.003,1.679-.002,3.37-.01,13.478-.064,13.479c-.053,4.493-.13,8.985-.259,13.478a.68077.68077,0,0,1-1.361,0c-.128-4.493-.206-8.985-.258-13.478l-.064-13.479-.01-13.478-.003-3.37v-1.689a12.27809,12.27809,0,0,1,.151-1.836,11.86617,11.86617,0,0,1,3.299-6.466l-.063.069,10.011-12.043.058-.065.006-.006a7.641,7.641,0,1,1,10.806,10.806l.06-.065-9.754,11.476a.99987.99987,0,0,1-1.528-1.29" style="fill:#3f3350;fill-rule:evenodd"/></g><line x1="87.3383" y1="107.69709" x2="87.3383" y2="117.29709" style="fill:none;stroke:#3f3350;stroke-linecap:round;stroke-linejoin:round;stroke-width:2px"/><path d="M83.3725,17.63949q.882,5.91,1.415,12.026.5325,6.1185.626,12.32,5.745-1.4895,11.362-2.529-3.669-5.3595-7.122-10.923t-6.281-10.894m-10.285,47.607q.4935-2.0325,1.112-4.525a50.07953,50.07953,0,0,0,1.023-5.597,9.07251,9.07251,0,0,0-1.062.673,13.92921,13.92921,0,0,1-1.212.78,8.97754,8.97754,0,0,1-1.179.573,1.15115,1.15115,0,0,1-1.003-.006,4.36907,4.36907,0,0,1-2.551-2.348,5.252,5.252,0,0,1-.202-3.127,8.2294,8.2294,0,0,1,1.459-3.093,9.15048,9.15048,0,0,1,2.327-2.263,18.84957,18.84957,0,0,1,4.191-2.011q-.0285-7.2495-.16-14.2-.1305-6.948-.983-14.334a15.76138,15.76138,0,0,0-3.227,1.454,25.94192,25.94192,0,0,0-3.001,2.021,54.25325,54.25325,0,0,0-6.639,5.814,27.8915,27.8915,0,0,0-4.713,6.342,13.18107,13.18107,0,0,0-1.665,6.285,8.07714,8.07714,0,0,0,2.512,5.646,5.02758,5.02758,0,0,0,2.303,1.436c.304.086.583.159.838.217a1.706,1.706,0,0,1,.76.362c1.75,1.527-2.255,6.772-2.597,7.138a3.01266,3.01266,0,0,1-1.242.802,3.71773,3.71773,0,0,1-1.613.158,3.84826,3.84826,0,0,1-1.786-.715,10.541,10.541,0,0,1-1.414-.894,11.3379,11.3379,0,0,1-1.407-1.261,16.1965,16.1965,0,0,1-4.423-9.319,20.03,20.03,0,0,1,1.941-10.455,41.83382,41.83382,0,0,1,7.704-11.034,86.48151,86.48151,0,0,1,12.793-11.037q1.137-.8175,2.552-1.697,1.413-.879,2.93-1.742,1.5135-.864,3.028-1.542a18.4,18.4,0,0,1,2.892-1.034,17.88675,17.88675,0,0,1,3.623-.65,2.94576,2.94576,0,0,1,2.038.623,5.57929,5.57929,0,0,1,1.397,1.944q.6075,1.2915,1.7,3.317,1.5855,3.219,3.953,7.462,2.367,4.2435,5.006,8.611,2.637,4.3665,5.347,8.454,2.7105,4.0905,4.997,6.892,1.119,1.557,2.105,1.665a2.46265,2.46265,0,0,0,1.765-.454,5.66956,5.66956,0,0,0,1.773-2.909c1.603-4.494-.808-9.686,2.36-10.376a1.3411,1.3411,0,0,1,1.477.349,8.05733,8.05733,0,0,1,1.389,4.272,22.2463,22.2463,0,0,1-.314,5.952,22.59194,22.59194,0,0,1-1.991,6.02,11.417,11.417,0,0,1-3.806,4.507q-3.417,2.4555-6.469,1.559a11.09905,11.09905,0,0,1-5.36-3.602q-4.0485.8175-8.554,1.692a44.55857,44.55857,0,0,0-8.304,2.421l-.321,7.776q-.174,2.67-.329,5.234a47.69111,47.69111,0,0,1-.519,4.781" style="fill:#fffef9;fill-rule:evenodd"/><path d="M84.4081,19.40319c.607,3.733-.168,8.693.222,12.553q.5865,5.7915.765,11.655c3.569-.884,8.375-2.789,11.869-3.389q-3.51-5.1195-6.822-10.43-3.309-5.31-6.034-10.389m-11.363,48.243c.288-1.276.792-5.361,1.154-6.925a62.19546,62.19546,0,0,0,1.23-6.199,8.365,8.365,0,0,0-.984.62c-.37.267-.122,1.869-.501,2.082a8.06974,8.06974,0,0,1-1.094.526,1.07027,1.07027,0,0,1-.939-.02,8.29556,8.29556,0,0,1-3.043-3.619,5.05665,5.05665,0,0,1-.234-2.96,7.54361,7.54361,0,0,1,1.32-2.902,8.20544,8.20544,0,0,1,2.144-2.106,16.95311,16.95311,0,0,1,3.892-1.841c-.087-4.569.416-7.681.267-12.063-.149-4.381-.807-11.808-1.41-16.471a16.64061,16.64061,0,0,0-3.227,1.454c-1.03.596-1.302,1.289-2.326,1.512-4.96,1.076-15.946,16.543-13.692,18.95,1.324,1.413,1.158,4.053,2.735,5.7a4.88022,4.88022,0,0,0,2.175,1.391c.286.086.547.158.787.217a1.65064,1.65064,0,0,1,.716.353c1.66,1.47-2.011,6.369-2.326,6.71a2.70739,2.70739,0,0,1-1.15.741,3.42794,3.42794,0,0,1-1.506.126,3.68721,3.68721,0,0,1-1.683-.703,10.22862,10.22862,0,0,1-1.336-.865c-.431-.325.662.373.204-.11a15.913,15.913,0,0,1-4.274-8.873,18.81865,18.81865,0,0,1,1.665-9.856,37.88516,37.88516,0,0,1,7.048-10.32,77.52937,77.52937,0,0,1,11.808-10.248q1.0515-.756,2.363-1.567,1.3095-.81,2.716-1.604,1.404-.7935,2.81-1.413a16.62236,16.62236,0,0,1,2.691-.937,16.43119,16.43119,0,0,1,3.38-.56235,2.81675,2.81675,0,0,1,1.916.61835,5.52468,5.52468,0,0,1,1.336,1.859q.5865,1.2285,1.638,3.16,1.5315,3.0675,3.807,7.112,2.2755,4.0455,4.808,8.213,2.5305,4.167,5.126,8.07,2.5935,3.906,4.775,6.588a3.35833,3.35833,0,0,0,1.993,1.604,2.24025,2.24025,0,0,0,1.646-.403c.812-.583.739-1.826,1.615-2.724,3.923-4.021,2.279-11.99,4.353-12.668.564-.185,2.576.979,2.943,1.411.722.928-.285,2.846-.1,4.625a21.19467,21.19467,0,0,1-.208,5.622c-.323,1.97-3.303,5.125-4.164,6.93s-.686,1.692-2.155,2.69q-3.162,2.2725-6.031,1.38a14.4262,14.4262,0,0,1-5.762-4.147c-2.517.477-5.815,1.825-8.617,2.331-2.803.508-5.386,2.554-7.74,3.492l-.188,7.345q-.123,2.523-.232,4.944a44.98022,44.98022,0,0,1-.415,4.512" style="fill:#ff7043;fill-rule:evenodd"/><path d="M71.7177,67.48229l1.57-6.232c.276-1.043.479-2.053.662-3.097.181-1.038.329-2.085.451-3.135l1.205.841a8.678,8.678,0,0,0-.956.627c-.358.264-.729.514-1.115.746a10.673,10.673,0,0,1-1.212.64,2.20261,2.20261,0,0,1-1.973.063l.063.03a6.23909,6.23909,0,0,1-2.191-1.452,4.41114,4.41114,0,0,1-.791-1.187,6.04419,6.04419,0,0,1-.398-1.285,6.38083,6.38083,0,0,1,.068-2.635,8.89327,8.89327,0,0,1,.914-2.357,11.37383,11.37383,0,0,1,1.452-2.004,9.27,9.27,0,0,1,1.905-1.636,20.14279,20.14279,0,0,1,4.281-2.069l-.683.966c-.095-4.756-.139-9.513-.197-14.269-.095-4.725-.437-9.448-.981-14.148l1.371.894a14.827,14.827,0,0,0-3.038,1.377c-.497.291-.986.595-1.462.916a2.1024,2.1024,0,0,1-1.719.58l-.025-.004a.7514.7514,0,0,1-.624-.822c.098-.873.671-1.176,1.182-1.523q.774-.519,1.575-.985a17.02265,17.02265,0,0,1,3.48-1.569,1.06274,1.06274,0,0,1,1.33.698,1.11286,1.11286,0,0,1,.042.195c.546,4.762.889,9.551.981,14.35.053,4.768.113,9.535.125,14.302v.006a1.01567,1.01567,0,0,1-.682.961,18.16706,18.16706,0,0,0-3.879,1.81,8.64137,8.64137,0,0,0-2.757,2.925,5.64274,5.64274,0,0,0-.819,3.699,4.1982,4.1982,0,0,0,.257.876,2.50128,2.50128,0,0,0,.451.693,4.54294,4.54294,0,0,0,1.539,1.056l.062.029c.053.015.044.076.451-.095a8.90425,8.90425,0,0,0,1.032-.512c.341-.194.674-.406.999-.632a10.26618,10.26618,0,0,1,1.175-.723l.015-.008a.8234.8234,0,0,1,1.108.357.81253.81253,0,0,1,.082.492c-.154,1.072-.333,2.145-.547,3.211-.211,1.06-.469,2.143-.756,3.167l-1.673,6.199-.007.024a.69408.69408,0,0,1-1.343-.351" style="fill:#3f3350;fill-rule:evenodd"/><path d="M99.6845,23.661l5.111,7.937a90.34123,90.34123,0,0,0,5.556,7.577c.426.548.987,1.001,1.305.997a1.65474,1.65474,0,0,0,1.422-.564,5.02832,5.02832,0,0,0,.96-1.738,10.75168,10.75168,0,0,0,.565-2.097,27.67635,27.67635,0,0,0,.129-4.575,9.8302,9.8302,0,0,1,.237-2.616,2.82968,2.82968,0,0,1,.287-.736,2.75719,2.75719,0,0,1,.512-.708,3.71283,3.71283,0,0,1,.728-.527c.257-.097.531-.197.786-.265a3.36908,3.36908,0,0,1,.821-.082,2.07964,2.07964,0,0,1,1.031.306,2.35713,2.35713,0,0,1,.689.676,5.7802,5.7802,0,0,1,.375.599,8.72054,8.72054,0,0,1,.872,2.507,19.62206,19.62206,0,0,1,.245,4.978,24.06661,24.06661,0,0,1-2.627,9.469,12.58942,12.58942,0,0,1-3.237,3.971,11.35116,11.35116,0,0,1-4.634,2.327,6.98564,6.98564,0,0,1-2.76.016,10.21735,10.21735,0,0,1-2.492-.882,12.80347,12.80347,0,0,1-4.006-3.197l1.013.351-8.534,1.691a43.69125,43.69125,0,0,0-8.133,2.369l.66-.938-.183,4.463c-.072,1.486-.099,2.975-.208,4.461-.1,1.488-.17,2.965-.295,4.462l-.244,2.267a3.76776,3.76776,0,0,1-.78,2.179.60723.60723,0,0,1-.854.081.59709.59709,0,0,1-.157-.199l-.026-.052a3.74182,3.74182,0,0,1-.299-2.254l.236-2.167c.124-1.463.196-2.957.296-4.434.11-1.48.137-2.965.209-4.447l.185-4.447a1.0659,1.0659,0,0,1,.66-.94,45.73757,45.73757,0,0,1,8.53-2.482l8.519-1.684a1.06626,1.06626,0,0,1,1.013.35,10.69073,10.69073,0,0,0,3.338,2.679,8.31886,8.31886,0,0,0,1.957.702,4.88145,4.88145,0,0,0,1.941-.015,9.37873,9.37873,0,0,0,3.743-1.907,10.49056,10.49056,0,0,0,2.723-3.301,22.02949,22.02949,0,0,0,2.461-8.637,17.816,17.816,0,0,0-.177-4.457,6.85987,6.85987,0,0,0-.653-1.955,2.397,2.397,0,0,0-.384-.567c.011-.012-.119-.052-.445.017-.534.12-.683.31-.877.881a8.30844,8.30844,0,0,0-.182,2.083,28.97633,28.97633,0,0,1-.188,4.877,12.18614,12.18614,0,0,1-.698,2.456,6.65748,6.65748,0,0,1-1.389,2.333,3.65839,3.65839,0,0,1-1.289.853,3.39507,3.39507,0,0,1-1.563.19,2.89215,2.89215,0,0,1-1.511-.675,6.1738,6.1738,0,0,1-.951-.993,92.234,92.234,0,0,1-5.515-7.78l-5.012-8.069a.69359.69359,0,0,1,1.172-.742Z" style="fill:#3f3350;fill-rule:evenodd"/><path d="M57.8812,31.72249a11.79447,11.79447,0,0,0-1.446,6.902,7.065,7.065,0,0,0,1.369,3.122,9.49974,9.49974,0,0,0,1.169,1.3,4.22613,4.22613,0,0,0,.636.485,6.871,6.871,0,0,0,.721.313,3.82762,3.82762,0,0,0,.825.261,3.57018,3.57018,0,0,1,1.145.416,2.18671,2.18671,0,0,1,.898,1.239,3.15738,3.15738,0,0,1,.052,1.29,11.166,11.166,0,0,1-1.61,3.812c-.347.564-.71,1.11-1.104,1.647l-.308.406a3.496,3.496,0,0,1-.432.457,3.858,3.858,0,0,1-1.042.664,4.5192,4.5192,0,0,1-2.335.319,4.82913,4.82913,0,0,1-2.172-.862l.098.059a12.16634,12.16634,0,0,1-2.222-1.567c-.331-.308-.7-.595-.996-.925-.3-.33-.579-.666-.855-1.004a18.10044,18.10044,0,0,1-2.679-4.544,17.57034,17.57034,0,0,1-.646-10.438,29.36643,29.36643,0,0,1,4.214-9.44,52.37461,52.37461,0,0,1,6.492-7.887,83.62883,83.62883,0,0,1,7.57-6.759q1.983-1.5765,4.038-3.053c1.415-.952,2.835-1.922,4.299-2.754,1.418-.9,3.002-1.632,4.528-2.42a20.264,20.264,0,0,1,2.477-.926c.869-.248,1.669-.436,2.542-.606a8.158,8.158,0,0,1,2.878-.154,3.76946,3.76946,0,0,1,1.587.68,5.29468,5.29468,0,0,1,1.084,1.144,8.24514,8.24514,0,0,1,.722,1.244l.565,1.101a4.06141,4.06141,0,0,1,.651,2.453l-.003.024a.61743.61743,0,0,1-.675.554.6304.6304,0,0,1-.246-.079,4.1761,4.1761,0,0,1-1.637-2.009l-.577-1.129a6.17486,6.17486,0,0,0-.533-.923,3.26724,3.26724,0,0,0-.626-.677,1.65043,1.65043,0,0,0-.699-.292,6.43026,6.43026,0,0,0-2.097.152,19.60887,19.60887,0,0,0-4.549,1.382c-1.439.751-2.903,1.412-4.31,2.305-1.445.82-2.784,1.738-4.144,2.649q-2.0145,1.449-3.959,2.99a81.49313,81.49313,0,0,0-7.383,6.584,51.48159,51.48159,0,0,0-6.246,7.559,27.32466,27.32466,0,0,0-3.997,8.738,15.597,15.597,0,0,0,.483,9.274,14.38848,14.38848,0,0,0,5.812,7.105l.045.024.053.034a2.9887,2.9887,0,0,0,1.327.56,2.81279,2.81279,0,0,0,1.405-.159,2.118,2.118,0,0,0,.566-.346,1.8115,1.8115,0,0,0,.226-.231l.273-.349c.366-.483.715-.99,1.043-1.504a9.77333,9.77333,0,0,0,1.425-3.133,1.57718,1.57718,0,0,0,.004-.599c-.031-.05-.019-.141-.069-.156-.03-.03-.038-.09-.106-.123a2.15792,2.15792,0,0,0-.644-.216,5.16421,5.16421,0,0,1-.984-.325,7.52157,7.52157,0,0,1-1.014-.471,5.97744,5.97744,0,0,1-.87-.681,10.96118,10.96118,0,0,1-1.354-1.553,8.61942,8.61942,0,0,1-1.594-3.824,13.18589,13.18589,0,0,1,1.712-7.776.69422.69422,0,0,1,1.229.646" style="fill:#3f3350;fill-rule:evenodd"/><path d="M96.2025,39.84949c-2.429-3.522-4.802-7.087-7.205-10.635l-6.537-11.091,1.933-.635c.517,4.061.976,8.132,1.458,12.201q.2655,3.063.422,6.135l.13,3.072.044,1.536c-.027.513.213,1.022-.509,1.545a.9234.9234,0,0,1-1.05.017c-.738-.497-.518-1.005-.569-1.511l-.042-1.519-.125-3.034q-.15-3.033-.41-6.06l-1.391-12.078v-.006a1.03709,1.03709,0,0,1,1.933-.63l6.279,11.086c2.261,3.604,4.551,7.192,6.785,10.822l.016.027a.69392.69392,0,0,1-1.162.758" style="fill:#3f3350;fill-rule:evenodd"/><path d="M87.3383,108.19809l-11.175-.051a.949.949,0,0,1,0-1.898l11.175-.051a1,1,0,1,1,.009,2Z" style="fill:#3f3350;fill-rule:evenodd"/><line x1="66.6054" y1="67.64639" x2="88.4294" y2="67.64639" style="fill:none;stroke:#3f3350;stroke-linecap:round;stroke-linejoin:round;stroke-width:2px"/><path d="M83.6561,13.33579c-.818-.41-1.217-1.221-.89-1.811a1.56828,1.56828,0,0,1,2.075-.325c.818.41,1.217,1.221.89,1.811a1.56854,1.56854,0,0,1-2.075.325" style="fill:#d84315;fill-rule:evenodd"/><path d="M79.393,15.827c-.43.024-1.089-1.55-1.473-3.516-.382-1.965-.344-3.579.085-3.603.43-.024,1.09,1.55,1.473,3.515.383,1.966.345,3.58-.085,3.604" style="fill:#d84315;fill-rule:evenodd"/><path d="M88.7172,18.21179c-.316.08-.702-.346-.861-.949-.159-.605-.032-1.159.285-1.239.316-.081.701.344.86.949.159.604.032,1.159-.284,1.239" style="fill:#d84315;fill-rule:evenodd"/><path d="M78.2655,45.619a1.41783,1.41783,0,0,1,.294-1.995,1.56673,1.56673,0,0,1,1.893.909,1.41883,1.41883,0,0,1-.294,1.996,1.5664,1.5664,0,0,1-1.893-.91" style="fill:#d84315;fill-rule:evenodd"/><path d="M79.6664,52.50669c-.306-.113-.382-.683-.17-1.27s.631-.972.937-.859.382.683.17,1.27c-.212.588-.631.972-.937.859" style="fill:#d84315;fill-rule:evenodd"/></svg>