<svg xmlns="http://www.w3.org/2000/svg" xmlns:xlink="http://www.w3.org/1999/xlink" viewBox="0 0 130 120"><defs><mask id="a" x="36.72544" y="14.44294" width="10.05544" height="104.76901" maskUnits="userSpaceOnUse"><polygon points="36.725 14.443 46.781 14.443 46.781 119.212 36.725 119.212 36.725 14.443" style="fill:#fff;fill-rule:evenodd"/></mask></defs><polygon points="37.726 118.493 45.78 118.493 45.78 15.443 37.726 15.443 37.726 118.493" style="fill:#ff7043;fill-rule:evenodd"/><path d="M36.97968,118.492l.09-86.375a.656.656,0,0,1,1.312,0l.09,86.375a.746.746,0,1,1-1.492.002Z" style="fill:#3f3350;fill-rule:evenodd"/><g style="mask:url(#a)"><path d="M36.91088,21.867l-.185-6.424a.97279.97279,0,0,1,.944-1h8.111a.99868.99868,0,0,1,1,.995v.005l-.279,103.049a.721.721,0,0,1-1.442,0l-.279-103.049,1,1h-8.055l1-1-.185,6.424a.81535.81535,0,0,1-1.63,0" style="fill:#3f3350;fill-rule:evenodd"/></g><line x1="45.78048" y1="21.86695" x2="113.92548" y2="21.86695" style="fill:none;stroke:#3f3350;stroke-linecap:round;stroke-linejoin:round;stroke-width:2px"/></svg>