<svg xmlns="http://www.w3.org/2000/svg" viewBox="0 0 130 120"><path d="M50.2021,111.10563a7.356,7.356,0,0,0,14.712,0v-61.419" style="fill:none;stroke:#3f3350;stroke-linecap:round;stroke-linejoin:round;stroke-width:2px"/><path d="M28.6934,63.07933c-.249-4.51,4.11-8.741,10.069-9.616,5.632-.826,10.76,1.629,12.198,5.608.846-5.287,6.768-9.385,13.954-9.385,7.185,0,13.108,4.098,13.953,9.385,1.439-3.979,6.567-6.434,12.199-5.608,5.958.875,10.317,5.106,10.068,9.616,0,0,4.902-2.93,8.075-1.674a7.39067,7.39067,0,0,1,4.412,4.319,7.25043,7.25043,0,0,1,.514,2.466h.144c0-25.953-21.948-48.964-48.314-48.964-24.294,0-43.846,19.542-46.77,42.917a8.65589,8.65589,0,0,1,1.424-.738c3.172-1.256,8.074,1.674,8.074,1.674" style="fill:#ff7043;fill-rule:evenodd"/><path d="M55.439,20.64763c-14.473,6.276-27.382,26.913-26.746,42.432-.248-4.51,4.135-8.419,9.842-9.616,5.571-1.169,10.759,1.628,12.198,5.608-2.268-15.273,1.53-28.82,14.157-39.853-3.69.117-7.297.29-9.451,1.429" style="fill:#fff;fill-rule:evenodd"/><path d="M74.3408,20.64763c14.473,6.276,27.382,26.913,26.746,42.432.248-4.51-4.135-8.419-9.842-9.616-5.571-1.169-10.759,1.628-12.198,5.608,2.268-15.273-1.53-28.82-14.157-39.853,3.69.117,7.297.29,9.451,1.429" style="fill:#fff;fill-rule:evenodd"/><path d="M37.0981,27.70133a49.48146,49.48146,0,0,1,77.182,40.489" style="fill:none;stroke:#3f3350;stroke-linecap:round;stroke-linejoin:round;stroke-width:2px"/><path d="M15.5,68.19063a48.42375,48.42375,0,0,1,6.608-24.486" style="fill:none;stroke:#3f3350;stroke-linecap:round;stroke-linejoin:round;stroke-width:2px"/><path d="M28.6934,63.07933s-4.902-2.93-8.074-1.674a8.13081,8.13081,0,0,0-3.427,2.502,6.61212,6.61212,0,0,0-1.692,4.575" style="fill:none;stroke:#3f3350;stroke-linecap:round;stroke-linejoin:round;stroke-width:2px"/><path d="M101.1348,63.07933c.249-4.51-4.11-8.741-10.069-9.615-5.632-.827-10.759,1.628-12.198,5.607-.846-5.287-6.768-9.385-13.954-9.385-7.185,0-13.108,4.098-13.953,9.385-1.439-3.979-6.567-6.434-12.199-5.607" style="fill:none;stroke:#3f3350;stroke-linecap:round;stroke-linejoin:round;stroke-width:2px"/><path d="M113.1045,68.48263a6.39977,6.39977,0,0,0-.257-2.442l-.021-.058a6.81625,6.81625,0,0,0-3.752-4.237.3669.3669,0,0,1,.269-.681,8.92884,8.92884,0,0,1,2.956,1.59,7.10539,7.10539,0,0,1,2.117,2.809l-.021-.057a8.26489,8.26489,0,0,1,.799,3.076l.001.02a1.04824,1.04824,0,1,1-2.092.137,1.02777,1.02777,0,0,1,.001-.157" style="fill:#3f3350;fill-rule:evenodd"/><path d="M50.9604,59.07143c-2.257-6-1.604-28.493,13.929-39.853" style="fill:none;stroke:#3f3350;stroke-linecap:round;stroke-linejoin:round;stroke-width:1.4249999523162842px"/><path d="M73.4228,30.01383a33.1635,33.1635,0,0,0-9.262-10.22.71266.71266,0,0,1,.824-1.163l.017.013a34.40283,34.40283,0,0,1,9.337,10.844.52819.52819,0,0,1-.916.526" style="fill:#3f3350;fill-rule:evenodd"/><path d="M78.1353,58.82053a20.9588,20.9588,0,0,0,.943-6.271,43.54945,43.54945,0,0,0-.354-6.501,46.23076,46.23076,0,0,0-3.401-12.582.4013.4013,0,0,1,.732-.329,47.16885,47.16885,0,0,1,3.773,12.758,44.86915,44.86915,0,0,1,.519,6.669,22.081,22.081,0,0,1-.878,6.758.71263.71263,0,0,1-1.354-.445l.005-.016Z" style="fill:#3f3350;fill-rule:evenodd"/><path d="M28.0264,63.33023a8.47568,8.47568,0,0,1-.267-3.211,25.51173,25.51173,0,0,1,.439-2.999,46.58677,46.58677,0,0,1,1.629-5.744,66.973,66.973,0,0,1,4.924-10.796,60.3783,60.3783,0,0,1,6.783-9.716,41.44285,41.44285,0,0,1,8.862-7.847.28422.28422,0,0,1,.393.083.28816.28816,0,0,1-.083.392,40.80153,40.80153,0,0,0-8.576,7.878,59.43423,59.43423,0,0,0-6.508,9.693,65.86171,65.86171,0,0,0-4.648,10.702,45.35187,45.35187,0,0,0-1.483,5.609,24.03616,24.03616,0,0,0-.363,2.834,7.33319,7.33319,0,0,0,.232,2.62l.017.05a.71238.71238,0,0,1-1.345.47l-.006-.018" style="fill:#3f3350;fill-rule:evenodd"/><path d="M99.9238,53.13693a55.12451,55.12451,0,0,0-10.655-19.979,45.21323,45.21323,0,0,0-8.311-7.69,40.1872,40.1872,0,0,0-10.009-5.183l-.008-.002a.71268.71268,0,1,1,.469-1.346l.01.003a41.50419,41.50419,0,0,1,10.278,5.502,46.34217,46.34217,0,0,1,8.42,8.008,54.60748,54.60748,0,0,1,6.347,9.699,55.97074,55.97074,0,0,1,4.218,10.78.39335.39335,0,0,1-.757.214Z" style="fill:#3f3350;fill-rule:evenodd"/><path d="M33.5796,37.44253c-.07-.389.283-.78.79-.876a.84024.84024,0,0,1,1.045.531c.07.389-.284.781-.79.876a.83942.83942,0,0,1-1.045-.531" style="fill:#d84315;fill-rule:evenodd"/><path d="M61.7959,27.01583c-.753-.52-1.036-1.377-.631-1.916a1.56239,1.56239,0,0,1,2.097-.036c.754.518,1.037,1.376.632,1.915a1.56458,1.56458,0,0,1-2.098.037" style="fill:#d84315;fill-rule:evenodd"/><path d="M25.4956,51.80483c-.372-.217-.056-1.894.706-3.746.761-1.852,1.68-3.179,2.052-2.962.372.216.056,1.893-.705,3.745-.762,1.853-1.681,3.179-2.053,2.963" style="fill:#d84315;fill-rule:evenodd"/><path d="M55.1606,39.32633c-.324.035-.647-.438-.721-1.059-.074-.62.128-1.152.452-1.187.324-.036.646.437.721,1.058.074.621-.128,1.152-.452,1.188" style="fill:#d84315;fill-rule:evenodd"/><path d="M74.2021,45.09783c-.073.541-.726.797-1.458.572-.733-.225-1.268-.846-1.195-1.387s.726-.797,1.459-.573c.732.226,1.267.847,1.194,1.388" style="fill:#d84315;fill-rule:evenodd"/><path d="M70.8853,36.15053c-.103.76-.603,1.248-1.117,1.09a1.50425,1.50425,0,0,1-.746-1.662c.102-.76.602-1.248,1.117-1.09a1.50355,1.50355,0,0,1,.746,1.662" style="fill:#d84315;fill-rule:evenodd"/><path d="M65.8457,43.99433c-.051.381-.51.561-1.024.402-.515-.158-.89-.594-.839-.974s.509-.56,1.024-.402c.515.159.89.594.839.974" style="fill:#d84315;fill-rule:evenodd"/><path d="M63.5298,37.05c.004.971-.509,1.531-1.145,1.252a2.593,2.593,0,0,1-1.159-2.261c-.004-.97.509-1.531,1.145-1.252a2.59427,2.59427,0,0,1,1.159,2.261" style="fill:#d84315;fill-rule:evenodd"/><path d="M51.9165,46.88983c-.122-.532.4-.998,1.165-1.04a1.51567,1.51567,0,0,1,1.606.889c.122.532-.4.998-1.165,1.041a1.51748,1.51748,0,0,1-1.606-.89" style="fill:#d84315;fill-rule:evenodd"/></svg>