<?xml version="1.0" encoding="utf-8"?>
<!-- Generator: Adobe Illustrator 25.3.1, SVG Export Plug-In . SVG Version: 6.00 Build 0)  -->
<svg version="1.1" id="Layer_1" xmlns="http://www.w3.org/2000/svg" xmlns:xlink="http://www.w3.org/1999/xlink" x="0px" y="0px"
	 viewBox="0 0 2 40" style="enable-background:new 0 0 2 40;" xml:space="preserve">
<style type="text/css">
	.st0{fill-rule:evenodd;clip-rule:evenodd;fill:#3F3350;}
</style>
<path class="st0" d="M1.4,0.3L2,3.4C2.1,4,1.7,4.5,1.2,4.6C0.7,4.8,0.1,4.4,0,3.8c0-0.1,0-0.3,0-0.4l0.6-3.1C0.7,0.1,0.9,0,1.1,0
	C1.2,0,1.3,0.2,1.4,0.3"/>
<path class="st0" d="M1.4,10.3L2,13.4c0.1,0.6-0.2,1.1-0.8,1.2S0.1,14.4,0,13.8c0-0.1,0-0.3,0-0.4l0.6-3.1c0-0.2,0.2-0.3,0.4-0.3
	C1.2,10,1.3,10.2,1.4,10.3"/>
<path class="st0" d="M1.4,20.3L2,23.4c0.1,0.6-0.2,1.1-0.8,1.2S0.1,24.4,0,23.8c0-0.1,0-0.3,0-0.4l0.6-3.1c0-0.2,0.2-0.3,0.4-0.3
	C1.2,20,1.3,20.2,1.4,20.3"/>
<path class="st0" d="M1.4,30.3L2,33.4c0.1,0.6-0.2,1.1-0.8,1.2c-0.5,0.1-1.1-0.2-1.2-0.8c0-0.1,0-0.3,0-0.4l0.6-3.1
	c0-0.2,0.2-0.3,0.4-0.3C1.2,30,1.3,30.2,1.4,30.3"/>
</svg>
