<svg xmlns="http://www.w3.org/2000/svg" viewBox="0 0 58.324 52.10052"><polygon points="1.575 36.595 56.912 36.595 56.912 23.396 1.575 23.396 1.575 36.595" style="fill:#ff7043;fill-rule:evenodd"/><path d="M48.115.60932l.475,11.885a1.0008,1.0008,0,0,1-2,.08c-.001-.026-.001-.054,0-.08l.475-11.885a.52542.52542,0,0,1,1.05,0" style="fill:#3f3350;fill-rule:evenodd"/><path d="M11.3631.60932l.372,11.885a1.00048,1.00048,0,0,1-2,.062c-.001-.019-.001-.042,0-.062l.371-11.885a.6288.6288,0,0,1,1.257,0" style="fill:#3f3350;fill-rule:evenodd"/><line x1="1.0003" y1="23.39542" x2="32.5093" y2="23.39542" style="fill:none;stroke:#3f3350;stroke-linecap:round;stroke-linejoin:round;stroke-width:1.42499995231628px"/><line x1="39.6765" y1="23.39542" x2="56.9115" y2="23.39542" style="fill:none;stroke:#3f3350;stroke-linecap:round;stroke-linejoin:round;stroke-width:1.42499995231628px"/><path d="M56.9119,37.30752l-31.509-.249a.46351.46351,0,0,1,0-.927l31.509-.249a.71252.71252,0,1,1,.011,1.425Z" style="fill:#3f3350;fill-rule:evenodd"/><polyline points="42.948 51.101 57.324 51.101 57.324 12.495 1 12.495 1 51.101 42.948 51.101" style="fill:none;stroke:#3f3350;stroke-linecap:round;stroke-linejoin:round;stroke-width:2px"/><path d="M12.4173,35.41792c.907.345,1.25,1.026.765,1.522a2.57647,2.57647,0,0,1-2.521.274c-.907-.345-1.249-1.025-.765-1.522a2.579,2.579,0,0,1,2.521-.274" style="fill:#d84315;fill-rule:evenodd"/><path d="M47.3572,25.43062a1.41669,1.41669,0,0,1,1.92-.616,1.5653,1.5653,0,0,1,.02,2.099c-.524.75-1.384,1.027-1.92.618a1.568,1.568,0,0,1-.02-2.101" style="fill:#d84315;fill-rule:evenodd"/><path d="M3.5154,28.27242c.039-.429,1.691-.853,3.692-.945,2.001-.094,3.592.178,3.553.607-.038.43-1.692.853-3.692.946-2.001.093-3.592-.179-3.553-.608" style="fill:#d84315;fill-rule:evenodd"/><path d="M52.5603,27.53022c-.033-.324.443-.644,1.064-.713.621-.07,1.151.137,1.184.461.033.325-.443.645-1.064.714s-1.151-.138-1.184-.462" style="fill:#d84315;fill-rule:evenodd"/><path d="M46.885,34.91792c-.759-.108-1.243-.612-1.081-1.126a1.501,1.501,0,0,1,1.668-.733c.759.108,1.243.612,1.081,1.126a1.50358,1.50358,0,0,1-1.668.733" style="fill:#d84315;fill-rule:evenodd"/><path d="M34.8196,32.30652c-.38-.055-.556-.515-.394-1.028.162-.514.601-.887.981-.832.379.053.556.514.393,1.028-.162.514-.601.886-.98.832" style="fill:#d84315;fill-rule:evenodd"/><path d="M20.532,33.75482c-.182.456-1.009.687-1.846.516-.838-.171-1.369-.68-1.188-1.136.182-.455,1.009-.687,1.847-.515.837.171,1.369.68,1.187,1.135" style="fill:#d84315;fill-rule:evenodd"/><path d="M21.8899,27.22842a1.45215,1.45215,0,0,1,1.534-.927.9523.9523,0,0,1,.586,1.387,1.453,1.453,0,0,1-1.534.928.953.953,0,0,1-.586-1.388" style="fill:#d84315;fill-rule:evenodd"/><path d="M37.3089,27.08884c-.97-.004-1.527-.521-1.243-1.156a2.594,2.594,0,0,1,2.27-1.143c.971.004,1.527.522,1.244,1.156a2.59813,2.59813,0,0,1-2.271,1.143" style="fill:#d84315;fill-rule:evenodd"/></svg>