<?xml version="1.0" standalone="no"?>
<!DOCTYPE svg PUBLIC "-//W3C//DTD SVG 20010904//EN"
 "http://www.w3.org/TR/2001/REC-SVG-20010904/DTD/svg10.dtd">
<svg version="1.0" xmlns="http://www.w3.org/2000/svg"
 width="346.000000pt" height="346.000000pt" viewBox="0 0 346.000000 346.000000"
 preserveAspectRatio="xMidYMid meet">
<metadata>
Created by potrace 1.14, written by Peter Selinger 2001-2017
</metadata>
<g transform="translate(0.000000,346.000000) scale(0.100000,-0.100000)"
fill="#000000" stroke="none">
<path d="M1618 3455 c-2 -1 -35 -5 -74 -8 -39 -4 -118 -16 -174 -27 -621 -127
-1133 -601 -1304 -1210 -14 -52 -28 -104 -30 -115 -2 -11 -9 -51 -17 -90 -24
-122 -17 -498 10 -593 5 -18 10 -35 10 -37 -1 -22 39 -166 60 -220 108 -270
206 -428 380 -610 286 -298 665 -483 1071 -522 133 -13 336 -7 447 13 199 36
331 80 511 171 159 81 273 163 411 296 274 265 464 639 506 995 3 23 7 61 10
85 6 49 6 256 0 307 -2 19 -7 58 -10 86 -23 208 -133 504 -256 687 -21 33 -39
63 -39 67 0 5 -4 10 -8 12 -4 2 -29 30 -54 63 -148 192 -364 364 -598 478
-110 53 -266 111 -332 122 -17 3 -34 8 -38 10 -6 4 -72 15 -180 30 -46 7 -296
15 -302 10z"/>
</g>
</svg>
