<svg xmlns="http://www.w3.org/2000/svg" xmlns:xlink="http://www.w3.org/1999/xlink" viewBox="0 0 130 130"><defs><mask id="a" x="-0.0001" y="-0.0002" width="129.174" height="129.174" maskUnits="userSpaceOnUse"><polygon points="0 0 129.174 0 129.174 129.174 0 129.174 0 0" style="fill:#fff;fill-rule:evenodd"/></mask></defs><g style="mask:url(#a)"><path d="M64.5869,2.0978a62.4895,62.4895,0,1,0,62.489,62.489,62.5592,62.5592,0,0,0-62.489-62.489m0,127.076a64.587,64.587,0,1,1,64.587-64.587,64.66,64.66,0,0,1-64.587,64.587" style="fill:#ff7043;fill-rule:evenodd"/></g><path d="M63.7651,68.3224q1.7865-2.5665,3.367-5.228,1.5825-2.6595,2.959-5.339-.4095,3.0135-.633,6.306-.2235,3.294-.297,6.569-2.6055-1.23-5.396-2.308m6.791,9.823a3.69281,3.69281,0,0,0,3.107,1.266,5.77726,5.77726,0,0,0,2.884-.726,11.39567,11.39567,0,0,0,2.586-1.88,11.23986,11.23986,0,0,0,1.879-2.343,4.07346,4.07346,0,0,0,.688-2.159.61822.61822,0,0,0-.502-.576,2.96669,2.96669,0,0,0-.763-.131,12.87976,12.87976,0,0,0-.912,1.006,11.13572,11.13572,0,0,1-.8.893,9.93426,9.93426,0,0,1-1.544,1.785,2.38078,2.38078,0,0,1-1.581.67,1.24151,1.24151,0,0,1-.856-.334,1.73268,1.73268,0,0,1-.372-1.301q-.1125-1.8195-.019-4.291.093-2.469.298-5.034.204-2.5635.484-4.997.279-2.4345.576-4.219c.099-.766.192-1.387.28-1.857a2.83561,2.83561,0,0,0,0-1.207,1.49782,1.49782,0,0,0-.652-.855,9.01017,9.01017,0,0,0-1.674-.8,9.3128,9.3128,0,0,0-1.489-.426q-.819-.168-1.693-.26-.8745-.093-1.711-.149-.837-.057-1.544-.056a43.66119,43.66119,0,0,0-8.484.756,21.09919,21.09919,0,0,0-6.4,2.252,10.0937,10.0937,0,0,0-3.87,3.709,8.16155,8.16155,0,0,0-.93,5.116,5.74465,5.74465,0,0,0,.204.929,5.29617,5.29617,0,0,0,.317.783,1.93857,1.93857,0,0,0,.521.818,1.87184,1.87184,0,0,0,.706.409,1.52012,1.52012,0,0,0,.745.037,1.11441,1.11441,0,0,0,.595-.297,3.83521,3.83521,0,0,0,.856-.112,2.88537,2.88537,0,0,0,.875-.353,2.30777,2.30777,0,0,0,.651-.595,1.02194,1.02194,0,0,0,.186-.801,1.093,1.093,0,0,0-.205-.371c-.087-.1-.18-.211-.279-.336a2.51892,2.51892,0,0,1-.521-1.265,4.07315,4.07315,0,0,1,.633-3.051,6.656,6.656,0,0,1,2.53-2.083,14.0255,14.0255,0,0,1,3.795-1.21,27.40143,27.40143,0,0,1,4.428-.428,13.25666,13.25666,0,0,1,1.823.056,7.91072,7.91072,0,0,1,1.749.354q-1.824,3.2745-3.814,6.157-1.9905,2.8845-4.112,5.861a9.49635,9.49635,0,0,0-2.307-.409,4.55736,4.55736,0,0,0-1.618.242,4.13429,4.13429,0,0,0-1.507.837,2.64794,2.64794,0,0,0-.837,1.34,2.19854,2.19854,0,0,0,.353,1.71.58106.58106,0,0,0,.41.298,4.54071,4.54071,0,0,0,.65.113,6.89057,6.89057,0,0,0,.726.037,4.54986,4.54986,0,0,1,.633.037,25.13116,25.13116,0,0,1-2.066,1.99q-.9855.8385-1.785,1.525a12.38659,12.38659,0,0,0-1.34,1.322,3.35636,3.35636,0,0,0-.725,1.377,3.147,3.147,0,0,0,.148,1.302,4.80025,4.80025,0,0,0,.428,1.023,4.27252,4.27252,0,0,0,.633.875,2.659,2.659,0,0,0,.781.576,1.44205,1.44205,0,0,0,.949.094,3.8863,3.8863,0,0,0,1.321-.689,14.12871,14.12871,0,0,0,1.526-1.339,24.13911,24.13911,0,0,0,1.618-1.805q.819-1.0035,1.675-2.046l2.418-3.089a22.50391,22.50391,0,0,1,4.112,1.451q2.1015.969,4,1.823a5.5845,5.5845,0,0,0,1.135,3.051" style="fill:#ff7043;fill-rule:evenodd"/><polygon points="25.593 40.221 22.397 36.357 22.432 36.305 27.219 37.798 28.248 36.265 22.95 29.935 21.772 31.69 25.426 35.587 25.389 35.642 20.305 33.875 19.343 35.309 22.895 39.338 22.858 39.393 17.878 37.491 16.698 39.249 24.566 41.751 25.593 40.221" style="fill:#ff7043;fill-rule:evenodd"/><polygon points="36.357 28.221 35.33 27.052 32.616 29.435 31.541 28.21 34.043 26.014 33.014 24.842 30.512 27.038 29.44 25.817 32.153 23.434 31.127 22.264 26.973 25.911 32.203 31.868 36.357 28.221" style="fill:#ff7043;fill-rule:evenodd"/><polygon points="44.283 23.264 43.514 21.91 40.647 23.539 37.5 17.999 35.834 18.946 39.749 25.839 44.283 23.264" style="fill:#ff7043;fill-rule:evenodd"/><path d="M47.3726,19.9767a3.39446,3.39446,0,0,0,1.692.922,3.88246,3.88246,0,0,0,1.98-.121,3.96979,3.96979,0,0,0,1.31-.668,3.28568,3.28568,0,0,0,.827-.957,3.34515,3.34515,0,0,0,.386-1.096,2.96431,2.96431,0,0,0-.019-1.081l-1.851.565a1.57826,1.57826,0,0,1-.019.543,1.3126,1.3126,0,0,1-.201.464,1.40439,1.40439,0,0,1-.368.365,1.94839,1.94839,0,0,1-.529.25,1.64773,1.64773,0,0,1-1.861-.54,3.40771,3.40771,0,0,1-.61-1.196,3.35781,3.35781,0,0,1-.172-1.3,1.77877,1.77877,0,0,1,.367-.969,1.71385,1.71385,0,0,1,.863-.566,1.90692,1.90692,0,0,1,.595-.091,1.38194,1.38194,0,0,1,.523.112,1.3073,1.3073,0,0,1,.425.297,1.67923,1.67923,0,0,1,.311.466l1.848-.576a3.40616,3.40616,0,0,0-.721-1.101,2.97372,2.97372,0,0,0-.998-.668,3.263,3.263,0,0,0-1.2-.234,4.28668,4.28668,0,0,0-1.331.206,3.86737,3.86737,0,0,0-1.681,1.019,3.42064,3.42064,0,0,0-.878,1.722,4.53659,4.53659,0,0,0,.184,2.265,4.5882,4.5882,0,0,0,1.128,1.968" style="fill:#ff7043;fill-rule:evenodd"/><path d="M60.062,13.5353a1.716,1.716,0,0,1,3.211-.181,3.45055,3.45055,0,0,1,.292,1.294,3.45625,3.45625,0,0,1-.145,1.319,1.73188,1.73188,0,0,1-.581.842,1.88464,1.88464,0,0,1-1.957.111,1.73907,1.73907,0,0,1-.674-.773,3.47076,3.47076,0,0,1-.291-1.294,3.446,3.446,0,0,1,.145-1.318m-1.472,3.608a3.45948,3.45948,0,0,0,1.432,1.306,4.13882,4.13882,0,0,0,3.84-.212,3.4374,3.4374,0,0,0,1.281-1.456,4.52444,4.52444,0,0,0,.377-2.243,4.51652,4.51652,0,0,0-.626-2.187,3.43289,3.43289,0,0,0-1.436-1.302,4.15164,4.15164,0,0,0-3.84.215,3.43151,3.43151,0,0,0-1.277,1.457,4.52978,4.52978,0,0,0-.376,2.242,4.51643,4.51643,0,0,0,.625,2.18" style="fill:#ff7043;fill-rule:evenodd"/><polygon points="72.511 14.287 72.575 14.3 73.449 19.433 74.616 19.677 77.466 15.349 77.53 15.362 76.535 20.129 78.361 20.51 79.981 12.75 77.658 12.265 74.685 16.658 74.594 16.64 73.627 11.424 71.304 10.938 69.684 18.699 71.511 19.08 72.511 14.287" style="fill:#ff7043;fill-rule:evenodd"/><polygon points="87.8 23.035 84.551 21.457 85.263 19.991 88.258 21.445 88.939 20.042 85.945 18.588 86.655 17.126 89.904 18.703 90.583 17.304 85.611 14.889 82.148 22.019 87.12 24.434 87.8 23.035" style="fill:#ff7043;fill-rule:evenodd"/><polygon points="97.726 32.739 102.228 28.231 103.929 29.929 105.028 28.828 100.287 24.093 99.187 25.195 100.891 26.896 96.39 31.404 97.726 32.739" style="fill:#ff7043;fill-rule:evenodd"/><path d="M108.8994,38.8254a4.01718,4.01718,0,0,1-2.219,1.387,1.72927,1.72927,0,0,1-1.018-.103,1.88459,1.88459,0,0,1-1.039-1.662,1.73283,1.73283,0,0,1,.352-.963,4.01924,4.01924,0,0,1,2.218-1.387,1.71641,1.71641,0,0,1,1.706,2.728m.07-4.21a3.42778,3.42778,0,0,0-1.891-.418,5.14548,5.14548,0,0,0-3.756,2.349,3.45092,3.45092,0,0,0-.454,1.883,4.13241,4.13241,0,0,0,2.036,3.263,3.42021,3.42021,0,0,0,1.892.422,5.14553,5.14553,0,0,0,3.762-2.352,3.43506,3.43506,0,0,0,.45-1.886,4.14778,4.14778,0,0,0-2.039-3.261" style="fill:#ff7043;fill-rule:evenodd"/><path d="M35.8574,48.2189l-1.609-1.814.026-.044,2.357.57Zm3.392-.655.874-1.453-6.73-1.477-1.082,1.8,4.459,5.252.874-1.453-.954-1.075,1.163-1.932Z" style="fill:#ff7043;fill-rule:evenodd"/><polygon points="46.99 36.348 42.758 34.663 41.632 35.421 45.278 40.836 46.587 39.955 44.482 36.83 44.516 36.807 48.776 38.481 49.886 37.734 46.24 32.319 44.934 33.198 47.035 36.318 46.99 36.348" style="fill:#ff7043;fill-rule:evenodd"/><polygon points="52.849 36.355 57.171 34.926 56.768 33.709 53.945 34.643 53.523 33.369 56.126 32.508 55.723 31.289 53.12 32.149 52.7 30.878 55.524 29.945 55.121 28.728 50.8 30.157 52.849 36.355" style="fill:#ff7043;fill-rule:evenodd"/><polygon points="63.982 27.567 62.788 31.826 62.733 31.825 61.818 27.532 60.075 27.504 61.868 34.061 63.385 34.086 64.626 30.147 64.677 30.147 65.789 34.125 67.309 34.15 69.311 27.653 67.571 27.625 66.513 31.896 66.459 31.895 65.403 27.589 63.982 27.567" style="fill:#ff7043;fill-rule:evenodd"/><path d="M81.0469,33.2785l.045.024-.438,2.386-1.329-.701Zm-3.632,3.605,1.019-1.011,1.994,1.052-.259,1.413,1.5.792,1.098-6.802-1.858-.981-4.994,4.746Z" style="fill:#ff7043;fill-rule:evenodd"/><path d="M88.3999,37.214a3.02822,3.02822,0,0,0-1.216.288,3.978,3.978,0,0,0-1.168.854,3.77409,3.77409,0,0,0-.965,1.55,2.80625,2.80625,0,0,0-.019,1.598,3.26426,3.26426,0,0,0,.891,1.438,3.21711,3.21711,0,0,0,1.299.802,2.48906,2.48906,0,0,0,1.4.027,2.88536,2.88536,0,0,0,1.316-.814l.604-.617-2.013-1.969-.804.823.922.903a1.15519,1.15519,0,0,1-.515.307,1.01764,1.01764,0,0,1-.608-.031,1.7079,1.7079,0,0,1-.625-.412,1.37168,1.37168,0,0,1-.338-1.601,2.82551,2.82551,0,0,1,.619-.893,2.69943,2.69943,0,0,1,.878-.629,1.46832,1.46832,0,0,1,.848-.103,1.449,1.449,0,0,1,.748.409,1.5577,1.5577,0,0,1,.27.343,1.1366,1.1366,0,0,1,.137.363,1.03419,1.03419,0,0,1,0,.368,1.16131,1.16131,0,0,1-.134.366l1.141,1.116a2.29709,2.29709,0,0,0,.417-.845,2.43875,2.43875,0,0,0,.054-.933,2.842,2.842,0,0,0-.299-.935,3.32352,3.32352,0,0,0-.642-.854,3.27255,3.27255,0,0,0-1.028-.693,2.84454,2.84454,0,0,0-1.17-.226" style="fill:#ff7043;fill-rule:evenodd"/><polygon points="92.185 51.429 93.297 50.792 91.818 48.212 92.982 47.544 94.346 49.923 95.46 49.284 94.097 46.906 95.259 46.241 96.737 48.821 97.849 48.184 95.586 44.234 89.922 47.48 92.185 51.429" style="fill:#ff7043;fill-rule:evenodd"/><polygon points="34.004 99.735 29.489 102.591 29.442 102.547 32.133 97.883 30.906 96.671 26.281 99.4 26.234 99.354 29.038 94.822 27.533 93.332 23.597 100.59 24.906 101.884 29.303 99.473 29.347 99.516 26.981 103.938 28.293 105.237 35.506 101.221 34.004 99.735" style="fill:#ff7043;fill-rule:evenodd"/><path d="M39.6982,106.0539l-.658,2.87-1.574-.921,2.179-1.98Zm-6.429,3.108,1.778,1.04,1.29-1.172,2.363,1.381-.39,1.702,1.778,1.039,1.694-8.193-2.201-1.288Z" style="fill:#ff7043;fill-rule:evenodd"/><path d="M50.418,111.3488a1.10274,1.10274,0,0,1-.324.529.896.896,0,0,1-.528.2,2.02262,2.02262,0,0,1-.726-.108l-.901-.282.646-2.062.901.284a1.88017,1.88017,0,0,1,.654.332.92122.92122,0,0,1,.316.48,1.13324,1.13324,0,0,1-.038.627m1.298-2.024a3.44617,3.44617,0,0,0-1.373-.766l-3.124-.98-2.372,7.565,1.828.573.812-2.589.936.293.572,3.024,1.994.625-.666-3.373a2.28655,2.28655,0,0,0,1.227-.526,2.58935,2.58935,0,0,0,.763-1.227,2.70892,2.70892,0,0,0,.084-1.449,2.3263,2.3263,0,0,0-.681-1.17" style="fill:#ff7043;fill-rule:evenodd"/><path d="M58.4395,111.8263l.94.086a1.88789,1.88789,0,0,1,.71.186.92659.92659,0,0,1,.411.403,1.13647,1.13647,0,0,1,.095.62,1.09706,1.09706,0,0,1-.204.586.90037.90037,0,0,1-.473.307,1.9909,1.9909,0,0,1-.733.048l-.94-.085Zm4.134,1.474a2.71045,2.71045,0,0,0-.224-1.433,2.33443,2.33443,0,0,0-.914-1,3.44579,3.44579,0,0,0-1.504-.456l-3.262-.295-.713,7.895,1.908.172.244-2.702.978.088,1.199,2.833,2.082.189-1.366-3.155a2.28193,2.28193,0,0,0,1.087-.775,2.58315,2.58315,0,0,0,.485-1.361Z" style="fill:#ff7043;fill-rule:evenodd"/><path d="M69.6958,115.0627l.504-2.901.061-.009,1.244,2.671Zm-.99-4.719-1.611,8.21,2.041-.27.299-1.719,2.714-.358.736,1.581,2.041-.271-3.691-7.508Z" style="fill:#ff7043;fill-rule:evenodd"/><polygon points="81.64 107.045 83.269 111.313 83.208 111.336 78.664 108.182 77.123 108.771 79.952 116.176 81.742 115.492 80.109 111.218 80.157 111.2 84.736 114.349 86.255 113.769 83.426 106.363 81.64 107.045" style="fill:#ff7043;fill-rule:evenodd"/><polygon points="92.971 102.339 92.109 101.043 86.531 104.757 87.394 106.052 89.398 104.718 92.929 110.021 94.501 108.974 90.97 103.671 92.971 102.339" style="fill:#ff7043;fill-rule:evenodd"/><polygon points="99.82 93.529 98.343 95.077 99.587 98.579 99.539 98.631 95.982 97.553 94.505 99.103 100.326 100.647 102.242 102.475 103.557 101.096 101.64 99.27 99.82 93.529" style="fill:#ff7043;fill-rule:evenodd"/><path d="M41.9199,89.5334a3.32342,3.32342,0,0,1-1.487,1.561,1.44159,1.44159,0,0,1-.834.125,1.41532,1.41532,0,0,1-1.083-1.954,3.30708,3.30708,0,0,1,1.487-1.559,1.41286,1.41286,0,0,1,1.917,1.827m.612-2.561a3.2214,3.2214,0,0,0-1.415-.811,2.81813,2.81813,0,0,0-1.594.052,4.23366,4.23366,0,0,0-2.518,2.64,2.84541,2.84541,0,0,0,.022,1.596,3.202,3.202,0,0,0,.876,1.377,3.23642,3.23642,0,0,0,1.414.811,2.82816,2.82816,0,0,0,1.597-.05,4.23553,4.23553,0,0,0,2.521-2.644,2.83889,2.83889,0,0,0-.026-1.597,3.23514,3.23514,0,0,0-.877-1.374" style="fill:#ff7043;fill-rule:evenodd"/><polygon points="46.741 95.031 49.021 96.27 49.635 95.141 47.354 93.902 47.993 92.726 50.523 94.1 51.135 92.974 47.219 90.846 44.102 96.584 45.489 97.337 46.741 95.031" style="fill:#ff7043;fill-rule:evenodd"/><polygon points="61.813 98.186 59.254 97.934 59.509 95.327 57.939 95.172 57.3 101.669 58.87 101.824 59.127 99.212 61.688 99.464 61.431 102.076 62.999 102.229 63.637 95.733 62.069 95.579 61.813 98.186" style="fill:#ff7043;fill-rule:evenodd"/><path d="M71.7568,99.0871a1.41376,1.41376,0,0,1-2.603.49,3.32026,3.32026,0,0,1-.399-2.118,1.41345,1.41345,0,0,1,2.603-.49,3.30318,3.30318,0,0,1,.399,2.118m-.495-4.021a3.42464,3.42464,0,0,0-3.112.587,2.817,2.817,0,0,0-.887,1.326,4.23408,4.23408,0,0,0,.675,3.585,2.85,2.85,0,0,0,1.309.913,3.19821,3.19821,0,0,0,1.63.091,3.23337,3.23337,0,0,0,1.483-.674,2.83444,2.83444,0,0,0,.891-1.327,4.23792,4.23792,0,0,0-.677-3.589,2.82678,2.82678,0,0,0-1.312-.912" style="fill:#ff7043;fill-rule:evenodd"/><polygon points="79.934 98.596 78.006 95.054 78.054 95.029 81.339 97.784 82.202 97.315 81.682 93.079 81.729 93.053 83.646 96.575 84.996 95.841 81.875 90.107 80.159 91.041 80.635 95.383 80.568 95.42 77.18 92.662 75.463 93.596 78.584 99.33 79.934 98.596" style="fill:#ff7043;fill-rule:evenodd"/><polygon points="87.379 84.945 84.155 88.159 88.765 92.782 91.988 89.567 91.084 88.66 88.978 90.759 88.03 89.81 89.971 87.874 89.065 86.965 87.123 88.899 86.178 87.951 88.284 85.852 87.379 84.945" style="fill:#ff7043;fill-rule:evenodd"/><polygon points="13.187 69.866 15.17 69.866 15.17 75.113 16.726 75.113 16.726 69.866 18.705 69.866 18.705 68.585 13.187 68.585 13.187 69.866" style="fill:#ff7043;fill-rule:evenodd"/><path d="M23.7505,73.7687v-3.839h.752a2.16415,2.16415,0,0,1,.946.187,1.23019,1.23019,0,0,1,.581.606,2.65653,2.65653,0,0,1,.198,1.123,2.70154,2.70154,0,0,1-.196,1.127,1.22954,1.22954,0,0,1-.577.609,2.09044,2.09044,0,0,1-.929.187Zm2.554.954a2.67863,2.67863,0,0,0,1.113-1.123,4.11144,4.11144,0,0,0-.001-3.502,2.69,2.69,0,0,0-1.114-1.122,3.55835,3.55835,0,0,0-1.72-.391h-2.41v6.529h2.413a3.5625,3.5625,0,0,0,1.719-.391Z" style="fill:#ff7043;fill-rule:evenodd"/><polygon points="18.534 63.572 15.56 63.572 15.56 62.23 18.302 62.23 18.302 60.945 15.56 60.945 15.56 59.606 18.534 59.606 18.534 58.325 13.982 58.325 13.982 64.853 18.534 64.853 18.534 63.572" style="fill:#ff7043;fill-rule:evenodd"/><path d="M25.2739,63.547a1.53128,1.53128,0,0,1-.543.086,1.59861,1.59861,0,0,1-.611-.108.93086.93086,0,0,1-.413-.32.98636.98636,0,0,1-.169-.525h-1.511a2.265,2.265,0,0,0,.348,1.265,2.03438,2.03438,0,0,0,.946.747,3.82033,3.82033,0,0,0,1.429.245,3.67424,3.67424,0,0,0,1.394-.237,1.93211,1.93211,0,0,0,.888-.678,1.82621,1.82621,0,0,0,.312-1.062,1.89569,1.89569,0,0,0-.133-.708,1.65828,1.65828,0,0,0-.385-.558,2.36044,2.36044,0,0,0-.624-.417,4.036,4.036,0,0,0-.856-.281l-.561-.127a3.28552,3.28552,0,0,1-.402-.111,1.41153,1.41153,0,0,1-.304-.149.6162.6162,0,0,1-.192-.196.46532.46532,0,0,1-.059-.258.539.539,0,0,1,.106-.317.67489.67489,0,0,1,.305-.219,1.44367,1.44367,0,0,1,.511-.079,1.14258,1.14258,0,0,1,.712.195.74778.74778,0,0,1,.282.547h1.511a1.92117,1.92117,0,0,0-.315-1.071,2.05148,2.05148,0,0,0-.869-.719,3.14017,3.14017,0,0,0-1.318-.256,3.25265,3.25265,0,0,0-1.323.255,2.15128,2.15128,0,0,0-.908.711,1.74546,1.74546,0,0,0-.326,1.062,1.49288,1.49288,0,0,0,.485,1.178,2.94733,2.94733,0,0,0,1.335.628l.682.161a3.68948,3.68948,0,0,1,.589.179.8922.8922,0,0,1,.342.23.48548.48548,0,0,1,.115.317.57076.57076,0,0,1-.124.351.80165.80165,0,0,1-.346.239" style="fill:#ff7043;fill-rule:evenodd"/><path d="M106.7632,73.8l.781-.721a11.64418,11.64418,0,0,0,1.098-1.06,3.06519,3.06519,0,0,0,.538-.811,1.95035,1.95035,0,0,0,.149-.739,1.79367,1.79367,0,0,0-.301-1.031,1.99706,1.99706,0,0,0-.849-.694,3.10094,3.10094,0,0,0-1.291-.248,2.86517,2.86517,0,0,0-1.265.263,1.97646,1.97646,0,0,0-.842.747,2.13448,2.13448,0,0,0-.3,1.151h1.495a1.02483,1.02483,0,0,1,.113-.503.771.771,0,0,1,.317-.318.99109.99109,0,0,1,.475-.109,1.03746,1.03746,0,0,1,.475.104.80676.80676,0,0,1,.325.298.86969.86969,0,0,1,.118.464,1.01753,1.01753,0,0,1-.099.448,1.61272,1.61272,0,0,1-.287.408c-.125.135-.277.284-.456.445l-2.381,2.085v1.134h4.833V73.842h-2.646Z" style="fill:#ff7043;fill-rule:evenodd"/><polygon points="112.943 69.586 112.943 70.95 114.403 70.058 114.441 70.058 114.441 75.113 116.016 75.113 116.016 68.585 114.553 68.585 112.943 69.586" style="fill:#ff7043;fill-rule:evenodd"/><path d="M106.4634,61.1896q-.1875.2025-.456.444l-2.381,2.085v1.135h4.833v-1.271h-2.646v-.042l.781-.721a11.75989,11.75989,0,0,0,1.098-1.061,3.03081,3.03081,0,0,0,.537-.81,1.93277,1.93277,0,0,0,.15-.739,1.80439,1.80439,0,0,0-.301-1.032,1.99809,1.99809,0,0,0-.85-.693,3.10094,3.10094,0,0,0-1.291-.248,2.8607,2.8607,0,0,0-1.264.263,1.972,1.972,0,0,0-.843.747,2.14331,2.14331,0,0,0-.3,1.151h1.496a1.04282,1.04282,0,0,1,.112-.504.771.771,0,0,1,.318-.317.97728.97728,0,0,1,.475-.11,1.03058,1.03058,0,0,1,.474.105.79627.79627,0,0,1,.326.298.87882.87882,0,0,1,.118.464,1.01753,1.01753,0,0,1-.099.448,1.68413,1.68413,0,0,1-.287.408" style="fill:#ff7043;fill-rule:evenodd"/><path d="M115.5728,63.2013a.94055.94055,0,0,1-.826.521.872.872,0,0,1-.596-.231,1.50787,1.50787,0,0,1-.4-.703,4.1355,4.1355,0,0,1-.138-1.19,3.1049,3.1049,0,0,1,.315-1.569.93147.93147,0,0,1,.819-.512.871.871,0,0,1,.597.227,1.49666,1.49666,0,0,1,.398.686,3.99078,3.99078,0,0,1,.143,1.168,3.16582,3.16582,0,0,1-.312,1.603m1.604-3.426a2.53833,2.53833,0,0,0-.955-1.145,2.95046,2.95046,0,0,0-2.946,0,2.53237,2.53237,0,0,0-.95,1.144,5.18535,5.18535,0,0,0-.004,3.662,2.6237,2.6237,0,0,0,4.851.005,4.58342,4.58342,0,0,0,.335-1.843,4.44606,4.44606,0,0,0-.331-1.823" style="fill:#ff7043;fill-rule:evenodd"/></svg>