<?xml version="1.0" encoding="utf-8"?>
<!-- Generator: Adobe Illustrator 25.3.1, SVG Export Plug-In . SVG Version: 6.00 Build 0)  -->
<svg version="1.1" id="Layer_1" xmlns="http://www.w3.org/2000/svg" xmlns:xlink="http://www.w3.org/1999/xlink" x="0px" y="0px"
	 viewBox="0 0 150 115" style="enable-background:new 0 0 150 115;" xml:space="preserve">
<style type="text/css">
	.st0{fill:#FFFFFF;}
	.st1{fill:none;stroke:#3F3350;stroke-width:2;stroke-linecap:round;stroke-linejoin:round;}
	.st2{fill-rule:evenodd;clip-rule:evenodd;fill:#3F3350;}
	.st3{fill-rule:evenodd;clip-rule:evenodd;fill:#FF7043;}
	.st4{fill:none;stroke:#3F3350;stroke-width:1.425;stroke-linecap:round;stroke-linejoin:round;}
</style>
<polygon class="st0" points="147.1,31.4 147.1,52.8 128.8,52.8 128.8,31.4 "/>
<polyline class="st0" points="41.9,113.2 107,113.2 107,2.4 41.9,2.4 41.9,101.7 "/>
<polyline class="st1" points="41.9,113.2 107,113.2 107,2.4 41.9,2.4 41.9,101.7 "/>
<polygon class="st1" points="147.1,31.4 147.1,52.8 128.8,52.8 128.8,31.4 "/>
<path class="st2" d="M135.3,25.4l0.4,5.8c0,0.6-0.4,1-0.9,1.1s-1-0.4-1.1-0.9l0,0v-0.1l0.4-5.8c0-0.3,0.3-0.6,0.7-0.6
	C135.1,24.9,135.3,25.1,135.3,25.4"/>
<path class="st2" d="M141.7,25.4l0.5,5.8c0,0.6-0.4,1-0.9,1.1c-0.6,0-1-0.4-1.1-0.9c0-0.1,0-0.1,0-0.2l0.5-5.8
	c0-0.3,0.3-0.5,0.5-0.5C141.5,25,141.7,25.2,141.7,25.4"/>
<polygon class="st3" points="83.3,23.2 82.3,23.2 63.4,23.2 63.4,31.5 82.3,31.5 83.3,31.5 89.1,31.5 89.1,23.2 "/>
<polygon class="st3" points="74.4,53.4 73.4,53.4 63.4,53.4 63.4,61.7 73.4,61.7 74.4,61.7 89.2,61.7 89.2,53.4 "/>
<polyline class="st4" points="82.7,19.4 59.7,19.4 59.7,31.5 82.7,31.5 "/>
<polyline class="st4" points="82.4,31.5 89.1,31.5 89.1,19.4 82.4,19.4 "/>
<polyline class="st4" points="73.5,50 59.7,50 59.7,62 73.5,62 "/>
<line class="st4" x1="73.8" y1="50" x2="89.1" y2="50"/>
<line class="st4" x1="89.1" y1="62" x2="73.8" y2="62"/>
<path class="st2" d="M89.8,50l-0.1,8.6c0,0.3-0.3,0.6-0.6,0.6c-0.3,0-0.6-0.3-0.6-0.6L88.4,50c0-0.4,0.3-0.7,0.7-0.7
	C89.5,49.2,89.8,49.5,89.8,50L89.8,50L89.8,50z"/>
<path class="st2" d="M139,52.8v36.8v1.2c0,0.4,0,0.8,0,1.2c-0.2,2.7-1.7,5.1-4,6.4c-0.8,0.4-1.6,0.7-2.5,0.9
	c-0.4,0.1-0.9,0.1-1.3,0.1c-0.4,0-0.8,0-1.2,0h-4.6H107c-0.6,0-1-0.5-1-1s0.5-1,1-1l0,0h18.4h4.6c0.4,0,0.8,0,1.1,0
	c1,0,2-0.3,2.8-0.8c1.8-1,2.9-2.8,3-4.8c0-0.3,0-0.7,0-1.1v-1.2V52.7c0-0.6,0.4-1,1-1S139,52.2,139,52.8"/>
<path class="st2" d="M51.8,10.1c0,0.9-0.8,1.7-1.7,1.7s-1.7-0.8-1.7-1.7s0.8-1.7,1.7-1.7l0,0C51,8.5,51.8,9.2,51.8,10.1L51.8,10.1"
	/>
<path class="st2" d="M59,10.1c0,0.9-0.8,1.7-1.7,1.7s-1.7-0.8-1.7-1.7s0.8-1.7,1.7-1.7l0,0C58.3,8.5,59,9.2,59,10.1L59,10.1"/>
<path class="st2" d="M142.7,46.4l-10.3-0.2c-0.3,0-0.5-0.2-0.5-0.5s0.2-0.5,0.5-0.5l10.3-0.2c0.4,0,0.7,0.3,0.7,0.7
	C143.5,46.1,143.1,46.4,142.7,46.4C142.8,46.4,142.7,46.4,142.7,46.4C142.7,46.5,142.7,46.5,142.7,46.4"/>
<polygon class="st3" points="83.2,86.9 82.3,86.9 63.4,86.9 63.4,95.2 82.3,95.2 83.2,95.2 89.1,95.2 89.1,86.9 "/>
<polyline class="st4" points="83.4,83.2 59.7,83.2 59.7,95.2 83.4,95.2 "/>
<polyline class="st4" points="82.4,95.2 89.1,95.2 89.1,83.2 82.4,83.2 "/>
</svg>
