<?xml version="1.0" encoding="utf-8"?>
<!-- Generator: Adobe Illustrator 25.3.1, SVG Export Plug-In . SVG Version: 6.00 Build 0)  -->
<svg version="1.1" id="Layer_1" xmlns="http://www.w3.org/2000/svg" xmlns:xlink="http://www.w3.org/1999/xlink" x="0px" y="0px"
	 viewBox="0 0 150 115" style="enable-background:new 0 0 150 115;" xml:space="preserve">
<style type="text/css">
	.st0{fill:#FFFFFF;}
	.st1{fill:none;stroke:#3F3350;stroke-width:2;stroke-linecap:round;stroke-linejoin:round;}
	.st2{fill-rule:evenodd;clip-rule:evenodd;fill:#FFFFFF;filter:url(#Adobe_OpacityMaskFilter);}
	.st3{mask:url(#a_1_);}
	.st4{fill-rule:evenodd;clip-rule:evenodd;fill:#3F3350;}
</style>
<g>
	<polyline class="st0" points="115.2,113.3 115.2,28 34.9,28 	"/>
	<polyline class="st0" points="34.9,28 34.9,113.3 115.2,113.3 	"/>
</g>
<polyline class="st1" points="115.2,113.3 115.2,28 34.9,28 "/>
<polyline class="st1" points="34.9,28 34.9,113.3 115.2,113.3 "/>
<defs>
	<filter id="Adobe_OpacityMaskFilter" filterUnits="userSpaceOnUse" x="33.9" y="98.8" width="63.6" height="2">
		<feColorMatrix  type="matrix" values="1 0 0 0 0  0 1 0 0 0  0 0 1 0 0  0 0 0 1 0"/>
	</filter>
</defs>
<mask maskUnits="userSpaceOnUse" x="33.9" y="98.8" width="63.6" height="2" id="a_1_">
	<polygon class="st2" points="33.9,98.8 97.5,98.8 97.5,100.8 33.9,100.8 	"/>
</mask>
<g class="st3">
	<path class="st4" d="M34.9,98.8L97,99.3c0.3,0,0.5,0.2,0.5,0.5c0,0.3-0.2,0.5-0.5,0.5l-62.1,0.5c-0.6,0-1-0.4-1-1
		S34.3,98.8,34.9,98.8L34.9,98.8z"/>
</g>
<path class="st4" d="M104.3,99.3l10.8-0.5c0.6,0,1,0.4,1,1s-0.4,1-1,1l0,0c0,0-0.1,0-0.1,0l-10.8-0.5c-0.3,0-0.5-0.3-0.5-0.6
	C103.8,99.5,104,99.3,104.3,99.3"/>
<path class="st4" d="M103.7,39.6c0,0.9-0.8,1.7-1.7,1.7c-0.9,0-1.7-0.8-1.7-1.7c0-0.9,0.8-1.7,1.7-1.7c0,0,0,0,0,0
	C103,37.9,103.7,38.7,103.7,39.6"/>
<path class="st4" d="M110.8,39.6c0,0.9-0.8,1.7-1.7,1.7c-0.9,0-1.7-0.8-1.7-1.7c0-0.9,0.8-1.7,1.7-1.7c0,0,0,0,0,0
	C110,37.9,110.8,38.7,110.8,39.6C110.8,39.6,110.8,39.6,110.8,39.6"/>
</svg>
