<svg xmlns="http://www.w3.org/2000/svg" viewBox="0 0 150 115"><rect x="42.42181" y="2" width="64.29537" height="69.31713" style="fill:#fff"/><polygon points="51.548 111.5 107.124 111.5 107.124 71.318 51.548 71.318 51.548 111.5" style="fill:#d84315;fill-rule:evenodd"/><path d="M107.4131,110.96757c-.545-.001-.374-3.881-.24-4.638" style="fill:#d84315;fill-rule:evenodd"/><polyline points="107.124 34.7 107.124 111.7 51.571 111.7" style="fill:none;stroke:#3f3350;stroke-linecap:round;stroke-linejoin:round;stroke-width:1.9960119774739562px"/><polyline points="107.124 25.88 107.124 2.016 42 2.016 42 111.32" style="fill:none;stroke:#3f3350;stroke-linecap:round;stroke-linejoin:round;stroke-width:2px"/><line x1="107.124" y1="71" x2="42" y2="71.00201" style="fill:none;stroke:#3f3350;stroke-linecap:round;stroke-linejoin:round;stroke-width:2px"/><line x1="74.5615" y1="2.01546" x2="74.5615" y2="70.90346" style="fill:none;stroke:#3f3350;stroke-linecap:round;stroke-linejoin:round;stroke-width:2px"/><path d="M80.9893,33.53006c.097,1.48.138,2.96.177,4.439l.039,4.44c-.02,1.479-.009,2.959-.053,4.438-.027,1.48-.089,2.96-.163,4.44a.49216.49216,0,0,1-.983,0c-.075-1.48-.136-2.96-.163-4.44-.044-1.479-.035-2.959-.054-4.438l.04-4.44c.039-1.479.08-2.959.177-4.439a.49258.49258,0,0,1,.983,0" style="fill:#3f3350;fill-rule:evenodd"/><path d="M68.2666,33.53006c.098,1.48.139,2.96.177,4.439l.04,4.44c-.02,1.479-.01,2.959-.054,4.438-.027,1.48-.089,2.96-.163,4.44a.49163.49163,0,0,1-.982,0c-.076-1.48-.136-2.96-.164-4.44-.043-1.479-.034-2.959-.053-4.438l.039-4.44c.039-1.479.08-2.959.178-4.439a.492.492,0,0,1,.982,0" style="fill:#3f3350;fill-rule:evenodd"/></svg>