<?xml version="1.0" encoding="utf-8"?>
<!-- Generator: Adobe Illustrator 25.3.1, SVG Export Plug-In . SVG Version: 6.00 Build 0)  -->
<svg version="1.1" id="Layer_1" xmlns="http://www.w3.org/2000/svg" xmlns:xlink="http://www.w3.org/1999/xlink" x="0px" y="0px"
	 viewBox="0 0 150 115" style="enable-background:new 0 0 150 115;" xml:space="preserve">
<style type="text/css">
	.st0{fill:#FFFFFF;}
	.st1{fill-rule:evenodd;clip-rule:evenodd;fill:#FF7043;}
	.st2{fill:none;stroke:#3F3350;stroke-width:2;stroke-linecap:round;stroke-linejoin:round;}
	.st3{fill:none;stroke:#3F3350;stroke-width:1.87;stroke-linecap:round;stroke-linejoin:round;}
	.st4{fill:none;stroke:#3F3350;stroke-width:1.87;stroke-linecap:round;stroke-linejoin:round;stroke-dasharray:5.381,5.381;}
	.st5{fill-rule:evenodd;clip-rule:evenodd;fill:#D84315;}
</style>
<path class="st0" d="M31.6,90.2C15.9,66.5,22.3,34.6,46,18.8s55.7-9.3,71.4,14.4s9.3,55.7-14.4,71.4c-22,14.6-51.4,10.2-68.2-10.1"
	/>
<path class="st1" d="M74.5,27.8c-9.5,0-21.7,15.2-21.7,34H40.5C40.5,43,55.7,27.8,74.5,27.8C74.5,27.8,74.5,27.8,74.5,27.8"/>
<path class="st2" d="M31.6,90.2C15.9,66.5,22.3,34.6,46,18.8s55.7-9.3,71.4,14.4s9.3,55.7-14.4,71.4c-22,14.6-51.4,10.2-68.2-10.1"
	/>
<path class="st3" d="M40.5,61.8c0-18.8,15.2-34,34-34l0,0"/>
<path class="st3" d="M74.5,27.8c0.8,0,1.7,0,2.5,0.1"/>
<path class="st4" d="M82.3,28.7c13.5,3.2,23.7,14.2,25.8,27.9"/>
<path class="st3" d="M108.4,59.3c0.1,0.8,0.1,1.7,0.1,2.5"/>
<line class="st2" x1="74.5" y1="14" x2="74.5" y2="10.4"/>
<line class="st2" x1="74.5" y1="113.3" x2="74.5" y2="109.6"/>
<line class="st2" x1="26.7" y1="61.8" x2="23.1" y2="61.8"/>
<line class="st2" x1="125.9" y1="61.8" x2="122.3" y2="61.8"/>
<line class="st2" x1="40.7" y1="28" x2="38.1" y2="25.4"/>
<line class="st2" x1="110.9" y1="98.2" x2="108.3" y2="95.6"/>
<line class="st2" x1="40.7" y1="95.6" x2="38.1" y2="98.2"/>
<line class="st2" x1="110.9" y1="25.4" x2="108.3" y2="28"/>
<line class="st2" x1="30" y1="44.4" x2="26.6" y2="43"/>
<line class="st2" x1="122.4" y1="80.6" x2="119" y2="79.3"/>
<line class="st2" x1="57.1" y1="106.3" x2="55.7" y2="109.7"/>
<line class="st2" x1="93.3" y1="13.9" x2="92" y2="17.3"/>
<line class="st2" x1="119" y1="44.4" x2="122.4" y2="43"/>
<line class="st2" x1="26.6" y1="80.6" x2="30" y2="79.3"/>
<line class="st2" x1="92" y1="106.3" x2="93.3" y2="109.7"/>
<line class="st2" x1="55.7" y1="13.9" x2="57.1" y2="17.3"/>
<path class="st5" d="M52.5,44.5c0.1-0.4,0.6-0.7,1-0.6c0.5,0,0.9,0.4,0.9,0.8c-0.1,0.4-0.6,0.7-1,0.6C52.9,45.2,52.5,44.9,52.5,44.5
	"/>
<path class="st5" d="M52.5,37.9c-0.6-0.5-0.6-1.4-0.1-2c0,0,0,0,0,0c0.7-0.4,1.6-0.1,2,0.5c0.6,0.5,0.6,1.4,0.1,2c0,0,0,0,0,0
	C53.8,38.8,52.9,38.5,52.5,37.9"/>
<path class="st5" d="M62.4,34.4c-0.3-0.1-0.5-0.6-0.4-1.2s0.4-1.1,0.8-1s0.5,0.6,0.4,1.2S62.8,34.5,62.4,34.4"/>
<path class="st5" d="M51.4,54.8c-0.3,0.7-0.9,1-1.4,0.7c-0.5-0.5-0.6-1.2-0.3-1.8c0.3-0.7,0.9-1,1.4-0.7
	C51.6,53.5,51.7,54.2,51.4,54.8"/>
<path class="st5" d="M47.5,62.9c-0.5-0.4-0.7-1.1-0.5-1.7c0.3-0.5,0.8-0.6,1.3-0.3c0.1,0,0.1,0.1,0.2,0.1c0.5,0.4,0.7,1.1,0.5,1.7
	c-0.3,0.5-0.8,0.6-1.3,0.3C47.6,63,47.6,62.9,47.5,62.9"/>
<path class="st5" d="M49,50.8c-0.3,0.9-0.9,1.3-1.4,0.9c-0.6-0.7-0.8-1.6-0.5-2.5c0.3-0.9,0.9-1.3,1.4-0.9
	C49.1,49,49.2,49.9,49,50.8"/>
</svg>
