<svg xmlns="http://www.w3.org/2000/svg" viewBox="0 0 150 115"><path d="M69.1,79.6l.1,22.6s2.6,10.2,11.6,9.7,10.6-7.4,11.3-11.6c.7-4.1-1.7-6.5,4-7.1,2.8.2,2.7,2.8,2.7,5.2V115h8V95.3s-1.1-9.9-11.1-9.8C85.6,85.6,84,95.3,84,95.9s1.3,6.5-3.4,7.8c-4.5.2-3.4-7-3.4-7.1v-17Z" style="fill:#fff"/><path d="M112.1,43.8A35.8068,35.8068,0,0,1,76.3,79.5c-19.8,0-38.5-16-38.5-35.7Z" style="fill:#ff7043;fill-rule:evenodd"/><path d="M113.9,39.8a40.45,40.45,0,0,1-80.9.1v-.1a.7.7,0,0,1,1.4,0A38.80013,38.80013,0,0,0,112,40v-.1a.94477.94477,0,0,1,1-1c.4-.1.9.4.9.9Z" style="fill:#3f3350;fill-rule:evenodd"/><line x1="42.6" y1="39.8" x2="112.9" y2="39.8" style="fill:none;stroke:#3f3350;stroke-linecap:round;stroke-linejoin:round;stroke-width:2px"/><path d="M128.9,79.4V19.2A18.202,18.202,0,0,0,110.7,1h-1.1A18.202,18.202,0,0,0,91.4,19.2" style="fill:none;stroke:#3f3350;stroke-linecap:round;stroke-linejoin:round;stroke-width:2px"/><polyline points="142.7 79.4 5 79.4 5 113.6" style="fill:none;stroke:#3f3350;stroke-linecap:round;stroke-linejoin:round;stroke-width:2px"/><line x1="138.8" y1="79.4" x2="138.8" y2="69.3" style="fill:none;stroke:#3f3350;stroke-linecap:round;stroke-linejoin:round;stroke-width:2px"/><line x1="133.89999" y1="69.3" x2="144" y2="69.3" style="fill:none;stroke:#3f3350;stroke-linecap:round;stroke-linejoin:round;stroke-width:2px"/><path d="M95.3,93.9a2.725,2.725,0,0,0-2.5,1.7,3.21,3.21,0,0,0-.2,1.7v2a14.76857,14.76857,0,0,1-.1,2.1,15.52467,15.52467,0,0,1-.4,2.1,13.84229,13.84229,0,0,1-1.8,3.9A12.22424,12.22424,0,0,1,69.1,105a10.23491,10.23491,0,0,1-.9-4.2c-.1-1.4,0-2.7,0-4.1l-.1-16.1a1,1,0,0,1,2,0h0L70,96.7v4a8.98819,8.98819,0,0,0,.8,3.6A10.49659,10.49659,0,0,0,89,106.4a10.10982,10.10982,0,0,0,1.6-3.3,11.62836,11.62836,0,0,0,.4-1.8c0-.6.1-1.2.1-1.9V96.3a2.66246,2.66246,0,0,1,.3-1.2,4.25812,4.25812,0,0,1,3.8-2.6h0a.68354.68354,0,0,1,.7.7.56267.56267,0,0,1-.6.7" style="fill:#3f3350;fill-rule:evenodd"/><line x1="98.7" y1="113.6" x2="98.7" y2="96.6" style="fill:none;stroke:#3f3350;stroke-linecap:round;stroke-linejoin:round;stroke-width:2px"/><path d="M83,96.6a13.4486,13.4486,0,0,1,.5-3.5A10.36231,10.36231,0,0,1,85,89.9a12.72413,12.72413,0,0,1,5.4-4.6,12.00657,12.00657,0,0,1,7-.9,12.317,12.317,0,0,1,10,9.2,11.27109,11.27109,0,0,1,.3,1.8c0,.6.1,1.2.1,1.7v16.5a1,1,0,0,1-2,0V97.1a7.08294,7.08294,0,0,0-.1-1.5l-.3-1.5a9.61179,9.61179,0,0,0-1.1-2.8,7.10267,7.10267,0,0,0-1.9-2.3,10.45786,10.45786,0,0,0-11.2-1.9,10.62569,10.62569,0,0,0-4.6,3.8,9.601,9.601,0,0,0-1.3,2.7,10.47351,10.47351,0,0,0-.5,3h0a.81676.81676,0,0,1-.9.8.76542.76542,0,0,1-.9-.8" style="fill:#3f3350;fill-rule:evenodd"/><path d="M77.1,80.6v19.6a3.4,3.4,0,1,0,6.8,0" style="fill:none;stroke:#3f3350;stroke-linecap:round;stroke-linejoin:round;stroke-width:2px"/><path d="M69.3,72.1c1,0,1.5.5,1.3,1.1a2.50933,2.50933,0,0,1-2.2,1.2c-1,0-1.5-.5-1.3-1.1a2.748,2.748,0,0,1,2.2-1.2" style="fill:#d84315;fill-rule:evenodd"/><path d="M97.5,62.4a.8408.8408,0,0,1,1.1.4.91037.91037,0,0,1-.1,1.2.8408.8408,0,0,1-1.1-.4.81676.81676,0,0,1,.1-1.2" style="fill:#d84315;fill-rule:evenodd"/><path d="M97.8,49.6c.2-.9.9-1.5,1.5-1.3a1.51743,1.51743,0,0,1,.8,1.9c-.2.9-.9,1.5-1.5,1.3a1.62325,1.62325,0,0,1-.8-1.9" style="fill:#d84315;fill-rule:evenodd"/><path d="M58.4,68.9c-.1-.4,1.2-1.4,3.1-2.3,1.8-.8,3.4-1.2,3.5-.8s-1.2,1.4-3.1,2.3c-1.8.8-3.4,1.2-3.5.8" style="fill:#d84315;fill-rule:evenodd"/><path d="M103.4,49.6c-.2-.3.2-.8.7-1.1s1.1-.3,1.3,0-.2.8-.7,1.1a1.44553,1.44553,0,0,1-1.3,0" style="fill:#d84315;fill-rule:evenodd"/><path d="M85.7,67.9c-.5.1-1-.4-1.1-1.1a1.47565,1.47565,0,0,1,.8-1.6c.5-.1,1,.4,1.1,1.1a1.54517,1.54517,0,0,1-.8,1.6" style="fill:#d84315;fill-rule:evenodd"/><path d="M101,58.5c-.7.2-1.4-.1-1.4-.6a1.56981,1.56981,0,0,1,1.3-1.3c.7-.2,1.4.1,1.4.6a1.48342,1.48342,0,0,1-1.3,1.3" style="fill:#d84315;fill-rule:evenodd"/><path d="M88.8,60.7c-.4.1-.7-.3-.8-.8a1.00736,1.00736,0,0,1,.6-1.1c.4-.1.7.3.8.8a.95457.95457,0,0,1-.6,1.1" style="fill:#d84315;fill-rule:evenodd"/><path d="M76.2,67.5c0,.5-.7,1-1.5,1.2s-1.5-.1-1.5-.6.7-1,1.5-1.2,1.5.1,1.5.6" style="fill:#d84315;fill-rule:evenodd"/><path d="M75,60.9a1.31964,1.31964,0,0,1,1.1-1.4.99809.99809,0,0,1,1.1,1.1A1.31964,1.31964,0,0,1,76.1,62c-.7.1-1.1-.4-1.1-1.1" style="fill:#d84315;fill-rule:evenodd"/><path d="M89.2,54.9c-.9.4-1.6.1-1.6-.6a2.52337,2.52337,0,0,1,1.7-1.9c.9-.4,1.6-.1,1.6.6a2.71577,2.71577,0,0,1-1.7,1.9" style="fill:#d84315;fill-rule:evenodd"/></svg>