<svg xmlns="http://www.w3.org/2000/svg" xmlns:xlink="http://www.w3.org/1999/xlink" viewBox="0 0 111 111"><defs><mask id="a" x="-0.0001" y="-0.0002" width="110.578" height="110.578" maskUnits="userSpaceOnUse"><polygon points="0 0 110.578 0 110.578 110.578 0 110.578 0 0" style="fill:#fff;fill-rule:evenodd"/></mask></defs><g style="mask:url(#a)"><path d="M110.5779,55.2888A55.289,55.289,0,1,1,55.2889-.0002a55.28871,55.28871,0,0,1,55.289,55.289" style="fill:#ffd740;fill-rule:evenodd"/></g><polygon points="29.43 74.808 24.325 76.458 24.29 76.402 28.073 72.539 27.182 71.052 22.001 72.553 21.967 72.496 25.827 68.787 24.735 66.962 19.094 73.038 20.043 74.626 24.923 73.378 24.955 73.431 21.548 77.141 22.5 78.732 30.519 76.629 29.43 74.808" style="fill:#ff7043;fill-rule:evenodd"/><path d="M32.199,84.2605l-1.404-1.178,2.492-1.593.048.04Zm-5.753-.738,1.584,1.329,1.475-.944,2.106,1.767-.672,1.618,1.584,1.329,3.06-7.825-1.963-1.646Z" style="fill:#ff7043;fill-rule:evenodd"/><path d="M42.8074,87.867a1.09861,1.09861,0,0,1-.375.498.89784.89784,0,0,1-.546.148,1.99632,1.99632,0,0,1-.716-.178l-.874-.368.845-1.999.874.37a1.90349,1.90349,0,0,1,.622.395.93271.93271,0,0,1,.269.511,1.13808,1.13808,0,0,1-.099.623m.195-2.796-3.028-1.281-3.102,7.332,1.772.75,1.062-2.51.908.384.279,3.077,1.933.817-.341-3.434a2.31682,2.31682,0,0,0,1.279-.408,2.59875,2.59875,0,0,0,.88-1.155,2.71882,2.71882,0,0,0,.225-1.438,2.33581,2.33581,0,0,0-.569-1.236,3.45614,3.45614,0,0,0-1.298-.898" style="fill:#ff7043;fill-rule:evenodd"/><path d="M50.1843,88.6814l.942.111a1.92419,1.92419,0,0,1,.707.207.93141.93141,0,0,1,.401.415,1.1325,1.1325,0,0,1,.079.626,1.09727,1.09727,0,0,1-.222.583.89149.89149,0,0,1-.483.295,2.01208,2.01208,0,0,1-.737.029l-.942-.112Zm3.034-.88a3.44058,3.44058,0,0,0-1.497-.5l-3.266-.387-.936,7.907,1.912.225.32-2.706.978.116,1.126,2.877,2.084.247-1.284-3.205a2.27357,2.27357,0,0,0,1.114-.747,2.59123,2.59123,0,0,0,.524-1.353,2.726,2.726,0,0,0-.185-1.445,2.34368,2.34368,0,0,0-.89-1.029Z" style="fill:#ff7043;fill-rule:evenodd"/><path d="M60.9451,91.907l.374-2.935.062-.01,1.368,2.622Zm-1.207-4.689-1.244,8.309,2.036-.364.221-1.737,2.707-.483.81,1.552,2.036-.363-4.044-7.365Z" style="fill:#ff7043;fill-rule:evenodd"/><polygon points="71.631 83.086 73.777 87.14 73.719 87.171 68.804 84.583 67.34 85.358 71.066 92.394 72.766 91.493 70.616 87.433 70.661 87.409 75.611 89.987 77.054 89.224 73.328 82.188 71.631 83.086" style="fill:#ff7043;fill-rule:evenodd"/><polygon points="81.4 76.965 80.302 75.853 75.513 80.578 76.61 81.691 78.331 79.992 82.825 84.547 84.176 83.215 79.682 78.66 81.4 76.965" style="fill:#ff7043;fill-rule:evenodd"/><polygon points="88.741 72.3 85.468 67.214 84.443 69.104 86.569 72.171 86.536 72.232 82.805 72.123 81.78 74.015 87.829 73.982 90.167 75.249 91.078 73.568 88.741 72.3" style="fill:#ff7043;fill-rule:evenodd"/><polygon points="32.152 34.717 29.703 30.316 29.746 30.272 34.201 32.621 35.498 31.295 31.423 24.075 29.939 25.593 32.834 30.111 32.788 30.157 28.09 27.484 26.879 28.723 29.649 33.351 29.603 33.399 25.033 30.61 23.547 32.13 30.859 36.039 32.152 34.717" style="fill:#ff7043;fill-rule:evenodd"/><polygon points="41.513 27.549 40.235 24.615 43.111 23.362 44.389 26.295 46.148 25.528 42.97 18.23 41.208 18.997 42.485 21.926 39.609 23.18 38.333 20.25 36.569 21.019 39.749 28.318 41.513 27.549" style="fill:#ff7043;fill-rule:evenodd"/><path d="M51.9192,21.3806l.681-2.878.062-.005,1.084,2.752Zm-.707-4.79-2.112,8.132,2.063-.147.403-1.705,2.742-.195.643,1.63,2.062-.148-3.245-7.75Z" style="fill:#ff7043;fill-rule:evenodd"/><polygon points="60.261 18.139 62.619 18.672 61.209 24.913 63.06 25.331 64.469 19.09 66.824 19.621 67.169 18.097 60.605 16.615 60.261 18.139" style="fill:#ff7043;fill-rule:evenodd"/><polygon points="78.776 24.278 77.215 23.153 72.562 29.614 74.124 30.738 78.776 24.278" style="fill:#ff7043;fill-rule:evenodd"/><path d="M79.9334,32.4402l-1.196-1.401a2.75834,2.75834,0,0,0-.899,1.323,2.468,2.468,0,0,0,.057,1.469,4.67,4.67,0,0,0,.903,1.519,4.50273,4.50273,0,0,0,1.323,1.107,2.366,2.366,0,0,0,1.333.286,2.22066,2.22066,0,0,0,1.231-.55,2.28951,2.28951,0,0,0,.551-.685,1.9803,1.9803,0,0,0,.213-.797,2.85087,2.85087,0,0,0-.107-.911,4.83425,4.83425,0,0,0-.417-1.015l-.326-.622a3.76621,3.76621,0,0,1-.214-.461,1.66852,1.66852,0,0,1-.104-.4.75674.75674,0,0,1,.03-.333.5743.5743,0,0,1,.193-.258.6636.6636,0,0,1,.378-.154.82185.82185,0,0,1,.445.112,1.71414,1.71414,0,0,1,.478.41,1.37538,1.37538,0,0,1,.381.815.90971.90971,0,0,1-.283.694l1.196,1.403a2.33511,2.33511,0,0,0,.743-1.141,2.48708,2.48708,0,0,0-.02-1.375,3.82711,3.82711,0,0,0-.806-1.426,3.96949,3.96949,0,0,0-1.283-1.025,2.63377,2.63377,0,0,0-1.379-.28,2.13832,2.13832,0,0,0-1.242.539,1.81527,1.81527,0,0,0-.709,1.382,3.61547,3.61547,0,0,0,.473,1.737l.392.759a4.59356,4.59356,0,0,1,.299.687,1.10261,1.10261,0,0,1,.058.5.602.602,0,0,1-.203.358.69131.69131,0,0,1-.424.162.95592.95592,0,0,1-.496-.132,1.82415,1.82415,0,0,1-.509-.436,1.92721,1.92721,0,0,1-.383-.652,1.12621,1.12621,0,0,1-.031-.635,1.20978,1.20978,0,0,1,.354-.573" style="fill:#ff7043;fill-rule:evenodd"/><polygon points="40.006 58.429 41.926 58.429 41.926 50.467 40.006 50.467 40.006 53.662 36.869 53.662 36.869 50.467 34.945 50.467 34.945 58.429 36.869 58.429 36.869 55.229 40.006 55.229 40.006 58.429" style="fill:#ff7043;fill-rule:evenodd"/><path d="M47.9656,53.1336a1.72334,1.72334,0,0,1,3.23,0,4.03408,4.03408,0,0,1,0,2.628,1.72462,1.72462,0,0,1-3.23,0,4.03408,4.03408,0,0,1,0-2.628m1.615,5.403a3.933,3.933,0,0,0,1.93-.473,3.46031,3.46031,0,0,0,1.367-1.388,5.16513,5.16513,0,0,0,0-4.455,3.454,3.454,0,0,0-1.367-1.388,4.17029,4.17029,0,0,0-3.862,0,3.43626,3.43626,0,0,0-1.362,1.388,5.16112,5.16112,0,0,0,0,4.449,3.46645,3.46645,0,0,0,1.362,1.39,3.91343,3.91343,0,0,0,1.932.477" style="fill:#ff7043;fill-rule:evenodd"/><polygon points="59.112 53.512 59.178 53.512 61.091 58.377 62.288 58.377 64.2 53.537 64.267 53.537 64.267 58.429 66.14 58.429 66.14 50.467 63.758 50.467 61.736 55.396 61.643 55.396 59.621 50.467 57.238 50.467 57.238 58.429 59.112 58.429 59.112 53.512" style="fill:#ff7043;fill-rule:evenodd"/><polygon points="75.633 56.866 72.007 56.866 72.007 55.229 75.349 55.229 75.349 53.663 72.007 53.663 72.007 52.03 75.633 52.03 75.633 50.468 70.082 50.468 70.082 58.428 75.633 58.428 75.633 56.866" style="fill:#ff7043;fill-rule:evenodd"/></svg>